<svg xmlns="http://www.w3.org/2000/svg" width="164" height="167" viewBox="0 0 164 167" fill="none">
  <path d="M85.7079 0.287445C74.111 1.39191 63.3911 5.06265 53.8732 11.2347C50.8521 13.1838 45.9145 16.9195 45.5247 17.5692C45.3948 17.7965 44.1604 18.8685 42.8285 19.973C39.1253 22.9616 39.0603 23.3189 42.6661 20.915C49.0005 16.6921 56.2446 13.671 63.9109 12.0468C67.6466 11.2347 68.6536 11.1697 75.4753 11.1372C82.1021 11.1372 83.369 11.2347 86.6824 11.9169C110.266 16.757 128.782 34.1362 135.539 57.7849C137.131 63.4047 136.968 63.5021 134.11 58.4021C129.302 49.9561 127.97 47.8121 126.021 45.1484C110.753 24.5533 84.9608 13.8335 59.7529 17.6341C35.9743 21.2074 15.6066 36.6375 5.95868 58.4345C2.28794 66.7505 0.371365 75.0666 0.0465206 84.3896C-0.830559 108.948 10.7339 131.395 31.394 145.233C36.8189 148.904 46.2069 152.964 54.8477 155.433C55.1076 155.498 53.5808 154.653 51.4369 153.516C46.889 151.113 45.4922 150.235 42.1788 147.734C32.9532 140.685 25.7742 130.647 22.071 119.57C15.0218 98.3904 19.862 75.1965 34.9997 57.6549C36.6565 55.7383 38.1507 54.0816 38.3456 53.9842C38.8004 53.6918 38.7679 53.7243 35.9093 58.0772C30.9717 65.5486 27.106 75.099 25.4168 84.0323C24.2474 90.1393 23.9875 98.9751 24.7996 105.18C28.0156 130.55 44.8425 152.412 68.1663 161.508C76.3524 164.691 83.4015 166.185 91.7175 166.478C116.178 167.355 139.307 155.433 152.658 135.065C158.311 126.457 162.079 116.354 163.508 105.992C164.353 99.8846 164.093 90.3667 162.858 83.2526L161.884 77.7303L161.689 84.0647C161.494 89.8795 161.072 93.3878 160.097 97.1235C154.023 120.707 135.019 137.859 110.234 142.082C105.458 142.894 97.0125 143.056 91.9774 142.407C87.7544 141.855 81.6149 140.555 80.5429 139.97C80.218 139.776 83.5315 139.678 89.2812 139.711C99.2864 139.776 101.235 139.613 107.96 137.989C121.376 134.773 132.291 128.536 141.906 118.628C147.558 112.813 151.132 107.681 154.77 100.145C157.336 94.8496 159.253 89.1323 160.292 83.4475C160.747 81.0112 161.234 78.5749 161.397 78.0551C161.884 76.4959 161.559 63.5346 160.942 59.8639C157.953 41.2503 148.825 25.6902 134.37 14.5481C120.726 3.99066 102.6 -1.33678 85.7079 0.287445ZM110.916 8.08371C128.068 13.9309 142.263 26.3399 150.06 42.3223C159.058 60.7734 158.993 82.0507 149.865 100.469C144.375 111.579 136.416 120.642 125.989 127.561C123.195 129.445 119.102 131.817 118.68 131.817C118.55 131.817 120.174 130.647 122.285 129.251C141.516 116.484 152.756 94.0375 151.879 70.2589C151.456 59.474 149.345 50.9956 144.667 41.3477C141.061 33.9088 137.618 29.0361 131.901 23.1889C125.371 16.5296 118.03 11.5271 109.909 8.21364C107.148 7.07669 106.498 6.75185 106.888 6.75185C106.985 6.75185 108.804 7.33656 110.916 8.08371ZM92.1073 8.24612C92.0099 8.34358 91.7175 8.37607 91.4901 8.27861C91.2303 8.18115 91.3277 8.08371 91.6851 8.08371C92.0424 8.05122 92.2373 8.14867 92.1073 8.24612ZM96.4278 9.02576C120.206 14.678 139.015 32.9993 145.154 56.4855C146.909 63.2422 147.233 66.0359 147.233 73.8322C147.233 81.401 146.941 83.7074 145.284 90.3992C140.672 108.688 127.45 124.898 110.558 132.921C106.53 134.838 105.458 135.098 108.609 133.344C120.759 126.717 129.627 117.394 135.604 105.017C140.217 95.4018 142.296 86.1762 142.263 75.1315C142.263 58.8244 137.456 44.5637 127.645 31.6024C125.209 28.3865 118.875 22.117 115.529 19.5507C108.869 14.5481 100.326 10.3901 93.0169 8.60345L92.3672 8.44102L93.0169 8.40855C93.3742 8.40855 94.901 8.66843 96.4278 9.02576ZM78.269 21.3698C83.1416 21.8896 89.1837 23.1565 93.6666 24.6508C97.4998 25.9176 107.18 30.4979 108.772 31.7648C109.227 32.1222 107.765 31.5374 105.523 30.4979C95.1934 25.5928 86.0977 23.7087 74.3709 24.066C66.1198 24.3259 59.3306 25.6902 51.6967 28.6788C37.3386 34.2986 24.7996 44.8236 16.8085 57.9798C11.611 66.5556 8.10265 76.9831 7.09564 86.9559C6.5434 92.4457 6.67334 96.4738 7.5829 104.043C7.71284 105.245 7.71284 105.277 7.42048 104.367C5.69881 99.1375 4.95167 86.8909 5.9262 79.2895C9.17464 53.7243 26.0016 32.9018 50.0075 24.6508C59.0057 21.5972 68.881 20.4278 78.269 21.3698ZM86.9098 28.354C96.8826 29.6534 106.303 33.1942 114.327 38.5866C118.939 41.6726 120.791 43.3618 116.666 40.6981C110.429 36.67 103.477 33.8763 95.7781 32.2521C90.808 31.2126 81.29 30.7903 76.0925 31.4075C56.4395 33.7139 38.7355 44.1414 26.8462 60.3511C15.1193 76.3659 11.0587 97.0585 16.0289 115.575C16.841 118.693 16.2562 117.686 15.0868 114.015C3.35993 76.9507 26.0341 37.8719 64.2682 29.3285C70.895 27.8342 79.9907 27.4769 86.9098 28.354ZM90.8405 35.0133C109.129 36.9623 124.787 46.1554 134.792 60.7409C137.358 64.5091 137.65 65.6786 137.91 73.8322C138.04 78.6074 137.975 80.9787 137.553 84.2921C135.409 101.054 127.093 116.062 114.262 126.424C106.173 132.921 95.6157 137.404 85.1882 138.801C78.7238 139.678 77.7817 139.516 71.0574 136.3C53.5159 127.951 40.4896 112.294 35.8768 93.9725C34.3825 88.0603 33.9602 83.8698 34.1552 77.4054C34.415 68.5697 35.9093 61.9104 39.2552 54.6664C40.5871 51.7428 41.854 50.4434 46.8241 46.9351C59.6554 37.8394 75.8976 33.4215 90.8405 35.0133ZM32.0112 73.085C31.9137 73.3449 31.8163 73.2474 31.8163 72.8901C31.7838 72.5328 31.8812 72.3379 31.9787 72.4678C32.0761 72.5653 32.1086 72.8576 32.0112 73.085ZM31.5239 80.4265C31.3615 87.8654 31.8163 91.7635 33.538 98.098C40.3597 122.981 62.1242 142.017 89.2162 146.825C94.6736 147.767 106.108 147.864 111.208 146.987C124.234 144.713 135.896 139.191 144.115 131.362C145.219 130.323 146.129 129.575 146.129 129.77C146.129 130.225 139.535 136.592 137.196 138.346C127.775 145.525 116.438 150.138 104.549 151.632C100.586 152.12 92.4972 152.022 88.2417 151.47C73.5263 149.521 60.0127 142.829 49.5853 132.239C43.9654 126.587 40.5871 121.812 37.1112 114.763C32.336 105.05 30.2245 95.1744 30.5819 84.2272C30.7118 80.1016 31.2965 73.9946 31.5889 73.9946C31.6214 73.9946 31.5889 76.8857 31.5239 80.4265ZM27.7882 85.2667C27.6908 85.5915 27.6258 85.3966 27.6258 84.8769C27.6258 84.3246 27.6908 84.0972 27.7882 84.2921C27.8532 84.5195 27.8532 84.9743 27.7882 85.2667ZM27.8857 94.1999C29.4774 114.308 40.1973 132.661 57.2841 144.551C64.723 149.716 74.5008 153.874 83.499 155.66C89.606 156.895 93.959 157.252 100.001 157.057C113.417 156.57 125.047 152.802 136.221 145.265C139.697 142.894 139.762 142.894 138.008 144.486C135.669 146.63 131.284 149.748 127.548 151.892C119.687 156.472 110.429 159.591 101.3 160.695C97.3373 161.215 89.2487 161.118 84.9608 160.566C59.8178 157.285 38.8329 139.711 30.8093 115.315C28.1131 107.096 27.2035 101.152 27.3009 92.3483C27.3334 89.2947 27.3984 87.4756 27.4634 88.2877C27.4958 89.0998 27.6908 91.7635 27.8857 94.1999Z" fill="white"/>
  <path d="M47.5386 54.6018C47.4411 54.8291 47.4087 57.6553 47.4411 60.8388L47.5386 66.686L52.3463 66.7834L57.1215 66.8809V65.7114C57.1215 64.2496 56.147 62.3006 54.8801 61.2286L53.9055 60.4165L55.1724 59.0846C56.4068 57.7852 56.9916 56.226 56.7317 54.9266C56.6342 54.4068 56.2119 54.3419 52.1514 54.2444C48.708 54.1795 47.636 54.2444 47.5386 54.6018ZM54.2953 56.3234C54.6527 56.7132 53.5482 58.3699 52.6062 58.8897C52.0864 59.1496 51.1768 59.4094 50.5596 59.4419C49.5201 59.5394 49.4877 59.5069 49.3902 58.1101C49.3252 57.2005 49.4227 56.5833 49.715 56.4209C50.2023 56.096 54.003 56.0311 54.2953 56.3234ZM52.931 62.2356C53.4183 62.4955 54.0355 63.1452 54.3278 63.6324C55.0425 64.8343 54.7501 64.9643 51.7291 64.8343L49.4877 64.7369L49.3902 63.47C49.2278 61.5534 49.4552 61.2611 50.852 61.5209C51.5342 61.6509 52.4762 61.9432 52.931 62.2356Z" fill="white"/>
  <path d="M62.7739 54.6016C62.6764 54.8615 62.8389 55.6087 63.0987 56.2908C63.3911 56.973 63.6185 57.5577 63.6185 57.6227C63.6185 57.6877 63.0663 58.0125 62.3841 58.3698C60.7274 59.2144 58.8758 61.3259 58.4535 62.8527C58.0312 64.347 57.9987 66.8483 58.356 66.8483C58.5184 66.8483 60.3051 66.4909 62.3516 66.0361C66.1523 65.1916 66.8669 65.1916 66.8669 66.0037C66.8669 66.7183 68.881 67.2381 69.2383 66.5884C69.3357 66.4584 68.3287 63.6648 67.0618 60.3514C64.8854 54.7316 64.6905 54.3418 63.8459 54.2443C63.2936 54.1793 62.9038 54.3093 62.7739 54.6016ZM65.0803 61.3584C65.5026 62.5603 65.5351 63.0801 65.2752 63.2425C64.658 63.6323 60.6624 64.347 60.435 64.1196C60.0127 63.6648 61.7019 61.0985 62.9038 60.4163C63.5535 60.0265 64.2032 59.7017 64.3331 59.7017C64.4306 59.7017 64.7879 60.4488 65.0803 61.3584Z" fill="white"/>
  <path d="M70.5055 54.4714C70.2456 54.6013 70.1156 55.0886 70.1806 55.5109C70.2781 56.2581 70.3755 56.2905 73.8189 56.453L77.3272 56.6154L73.7214 60.6759C70.6029 64.1842 70.1156 64.8664 70.1806 65.711L70.2781 66.6855H75.3132H80.3482V65.711V64.7365L76.71 64.5741L73.0717 64.4116L76.775 60.2536C78.8215 57.9797 80.5107 55.9007 80.5107 55.6733C80.5107 54.244 80.3158 54.179 75.5081 54.179C73.0068 54.179 70.7329 54.309 70.5055 54.4714Z" fill="white"/>
  <path d="M85.8379 54.6015C85.7404 54.8614 85.9028 55.6085 86.1627 56.2907C86.4551 56.9729 86.6824 57.5576 86.6824 57.6226C86.6824 57.6875 86.1302 58.0124 85.4805 58.3697C83.8888 59.1818 82.2971 60.8385 81.6798 62.3653C81.1276 63.6647 80.9652 66.8481 81.4525 66.8481C81.5824 66.8481 83.369 66.4908 85.3831 66.036C89.1513 65.159 89.9309 65.159 89.9309 66.0035C89.9309 66.5558 91.2952 67.0106 92.0099 66.7507C92.3997 66.5883 92.1073 65.6137 90.678 61.9105C89.7035 59.3442 88.664 56.6156 88.3392 55.8034C87.9169 54.634 87.6245 54.3092 86.9098 54.2442C86.3576 54.1792 85.9678 54.3092 85.8379 54.6015ZM88.1118 61.3583C88.5665 62.5602 88.6315 63.08 88.3392 63.2424C87.7219 63.6322 83.7588 64.3468 83.5315 64.1195C83.0442 63.6322 84.7334 61.001 85.9353 60.3837C86.6175 60.0264 87.2347 59.7341 87.3646 59.7016C87.4621 59.7016 87.7869 60.4487 88.1118 61.3583Z" fill="white"/>
  <path d="M46.0769 76.5609C46.0769 77.6653 46.4992 77.8927 48.7081 77.8927H50.2999V82.9278V87.9629H51.4368H52.5738V82.9278V77.9252L54.6203 77.8278C56.6343 77.7303 56.6343 77.7303 56.6343 76.7558V75.7812L51.3719 75.6838L46.0769 75.6188V76.5609Z" fill="white"/>
  <path d="M58.0959 81.7906V87.9627H59.0705C60.045 87.9627 60.045 87.9627 60.045 86.0786C60.045 83.9021 60.2399 83.5773 61.4418 83.3499C62.2864 83.1875 62.5463 83.3824 64.203 85.5264C65.9897 87.8327 66.0871 87.8977 67.6788 88.0277C68.6859 88.0926 70.6024 87.8652 72.6814 87.4105C76.7745 86.5009 77.1643 86.5009 77.4242 87.313C77.5866 87.8003 77.9114 87.9627 78.756 87.9627C79.3732 87.9627 79.8605 87.8327 79.8605 87.7028C79.8605 87.5404 79.5032 86.5659 79.0809 85.4939C78.6586 84.4544 77.6516 81.7906 76.807 79.5817C75.3452 75.846 75.2152 75.6186 74.3706 75.6186C73.0713 75.6186 73.0063 75.846 73.656 77.5677L74.2407 79.1269L72.9738 79.7116C70.6024 80.7836 69.0432 83.22 68.426 86.7608C68.361 87.2155 67.9062 86.8257 66.6069 85.234C64.4629 82.5378 64.3654 82.2779 65.3075 81.6607C66.4444 80.9136 67.4839 78.8995 67.5814 77.2103L67.6788 75.781L62.9036 75.6836L58.0959 75.5861V81.7906ZM65.2425 78.0874C65.2425 79.5167 62.6113 81.4658 60.6947 81.4658C60.1425 81.4658 60.045 81.2384 60.045 79.7441C60.045 78.7696 60.1425 77.8925 60.2724 77.7951C60.3699 77.6651 61.5393 77.5677 62.8712 77.5677C64.8202 77.5677 65.2425 77.6651 65.2425 78.0874ZM75.4426 82.1805C76.4496 84.6493 76.4821 84.5843 74.4356 85.0066C73.3961 85.2015 72.1942 85.4614 71.7719 85.5913C71.0247 85.7862 70.9923 85.7213 71.2197 84.7142C71.447 83.4798 72.1292 82.6028 73.526 81.7582C74.8254 80.9461 74.9554 80.9785 75.4426 82.1805Z" fill="white"/>
  <path d="M81.4849 81.7909V87.9629H82.4594H83.4339V81.7909V75.6188H82.4594H81.4849V81.7909Z" fill="white"/>
  <path d="M86.2601 75.8462C86.1302 75.9437 86.0327 78.7373 86.0327 82.0182V87.9629H87.1697H88.3066V83.545C88.3066 81.1087 88.4366 79.1921 88.5665 79.2571C88.7289 79.2896 90.1907 80.8163 91.8149 82.603C94.2838 85.2992 94.8035 86.0463 94.8035 86.8909C94.8035 87.8979 94.8685 87.9629 95.9405 87.9629H97.0774L97.0124 81.8558L96.915 75.7812H95.9405H94.9659L94.8035 79.2896L94.6411 82.7979L91.3926 79.2246C88.8589 76.366 87.9818 75.6188 87.3321 75.6188C86.8448 75.6188 86.3576 75.7163 86.2601 75.8462Z" fill="white"/>
  <path d="M99.6763 81.7909V87.9629H103.899H108.122V86.9884V86.0463L104.971 85.9489C101.918 85.8514 101.788 85.8189 101.69 85.0718C101.625 84.682 101.658 83.9673 101.755 83.545C101.95 82.7979 102.08 82.7654 104.711 82.7654H107.473V81.7909V80.8488L104.646 80.7514C101.918 80.6539 101.788 80.6214 101.69 79.8743C101.625 79.4845 101.658 78.7698 101.755 78.3475C101.95 77.6004 102.048 77.5679 105.036 77.5679H108.122V76.5933V75.6188H103.899H99.6763V81.7909Z" fill="white"/>
  <path d="M110.201 76.0413C110.136 76.2687 110.104 78.9973 110.136 82.1158L110.233 87.8006L114.262 87.8981C116.47 87.9306 118.452 87.8331 118.614 87.6707C118.777 87.5083 118.809 87.086 118.679 86.6961C118.485 86.0789 118.225 86.014 115.399 86.014H112.312L112.41 84.4547L112.507 82.928L115.366 82.8305L118.192 82.7331V81.791V80.8165H115.236H112.312L112.41 79.2572L112.507 77.7305L115.431 77.633C117.023 77.568 118.485 77.4056 118.614 77.2757C118.777 77.1132 118.809 76.691 118.679 76.3011C118.485 75.6515 118.257 75.619 114.424 75.619C111.435 75.619 110.331 75.7164 110.201 76.0413Z" fill="white"/>
  <path d="M47.1488 97.5785C47.0514 97.8384 47.0514 99.3651 47.1163 100.957C47.4737 106.804 50.2023 109.403 56.0495 109.403H58.0961V103.231V97.0588H56.9591H55.8221V102.289V107.519L54.7826 107.291C52.6712 106.869 51.6966 106.447 50.852 105.57C49.6176 104.27 49.3253 103.198 49.3253 99.9499V97.0588H48.3507C47.7335 97.0588 47.2787 97.2537 47.1488 97.5785Z" fill="white"/>
  <path d="M60.6948 103.231V109.403H61.6694H62.6114L62.7089 106.869C62.8063 104.497 62.8388 104.367 63.6184 104.27C64.7229 104.108 66.672 104.725 67.3541 105.504C67.679 105.862 68.1013 106.836 68.3287 107.681C68.686 109.11 68.8159 109.24 69.7905 109.338L70.8624 109.435L70.6351 108.103C70.3427 106.317 69.3357 104.335 68.3287 103.685L67.5166 103.166L68.3611 102.483C69.4331 101.671 70.4077 99.5273 70.4401 98.098C70.4401 97.156 70.3427 97.0585 69.4981 97.0585C68.4911 97.0585 68.4261 97.1884 68.0038 99.235C67.7439 100.534 66.2497 101.834 64.7554 102.126C62.8388 102.483 62.6439 102.256 62.6439 99.4948V97.0585H61.6694H60.6948V103.231Z" fill="white"/>
  <path d="M72.7144 103.231V109.403H73.6889H74.6634V107.129C74.6634 105.115 74.7284 104.855 75.2806 104.855C75.638 104.855 76.1252 104.758 76.3851 104.66C76.7424 104.53 77.4896 105.245 78.7889 106.934L80.673 109.37L82.4597 109.403C83.9864 109.403 88.8591 108.558 90.9706 107.909C91.3929 107.779 91.6528 107.974 91.8802 108.558C92.14 109.24 92.3999 109.403 93.3744 109.403C94.349 109.403 94.5114 109.305 94.349 108.818C94.219 108.526 93.1471 105.732 91.9776 102.646L89.8336 97.0588H88.7292C87.4948 97.0588 87.4948 97.0588 88.2094 98.9753C88.5667 99.9174 88.6317 100.47 88.4043 100.535C88.2419 100.6 87.3973 101.087 86.5852 101.607C84.7986 102.744 83.5317 104.79 83.2068 107.096L82.9469 108.818L80.9654 106.317L78.9514 103.783L79.9259 102.938C81.1603 101.931 82.1024 99.8849 82.1348 98.2607V97.0588H77.4246H72.7144V103.231ZM79.8609 99.4626C79.8609 100.242 78.4966 101.672 77.1322 102.289C74.8908 103.296 74.6634 103.198 74.6634 100.957V99.0078H77.2622C79.2437 99.0078 79.8609 99.1053 79.8609 99.4626ZM90.2559 104.303C90.6782 105.44 90.7432 105.895 90.4833 105.992C89.2814 106.382 85.5457 107.064 85.4158 106.934C85.3183 106.869 85.5782 106.122 85.968 105.342C86.6827 103.88 88.3718 102.484 89.2489 102.646C89.4763 102.711 89.9311 103.458 90.2559 104.303Z" fill="white"/>
  <path d="M95.908 97.4808C95.8431 97.7082 95.8106 100.437 95.8431 103.555L95.9405 109.24L97.0125 109.338L98.052 109.435V103.263V97.0585H97.0775C96.5252 97.0585 96.0055 97.2534 95.908 97.4808Z" fill="white"/>
  <path d="M100.651 103.263V109.435L101.723 109.338L102.762 109.24L102.86 104.92C102.892 102.581 103.055 100.632 103.185 100.664C103.315 100.664 104.744 102.159 106.336 103.913C108.642 106.479 109.292 107.421 109.357 108.298C109.454 109.273 109.552 109.403 110.429 109.403H111.371V103.231V97.0585H110.396H109.422V100.469C109.422 102.353 109.324 103.88 109.194 103.88C109.032 103.88 107.538 102.353 105.848 100.469C103.152 97.4483 102.665 97.0585 101.723 97.0585H100.651V103.263Z" fill="white"/>
  <path d="M114.294 103.231V109.435L118.452 109.338L122.578 109.24V108.428C122.578 107.616 122.545 107.616 119.427 107.518L116.243 107.421V105.829V104.205H119.167H122.09V103.231V102.256H119.167H116.243V100.632V99.04L119.427 98.9426C122.545 98.8451 122.578 98.8451 122.578 98.033V97.2209L118.452 97.1235L114.294 97.026V103.231Z" fill="white"/>
</svg>