<svg width="907" height="676" viewBox="0 0 907 676" fill="none" xmlns="http://www.w3.org/2000/svg">
<g clip-path="url(#clip0_288_2392)">
<path d="M815.858 623.139H755.798V623.593H815.858V623.139Z" fill="#EBEBEB"/>
<path d="M600.642 628.072H584.883V628.525H600.642V628.072Z" fill="#EBEBEB"/>
<path d="M753.985 606.311H719.185V606.764H753.985V606.311Z" fill="#EBEBEB"/>
<path d="M173.454 609.357H95.1323V609.81H173.454V609.357Z" fill="#EBEBEB"/>
<path d="M201.091 609.357H189.612V609.81H201.091V609.357Z" fill="#EBEBEB"/>
<path d="M408.292 617.01H238.411V617.463H408.292V617.01Z" fill="#EBEBEB"/>
<path d="M807.734 112.987H368.378V536.494H807.734V112.987Z" fill="#E1DCFF"/>
<path d="M807.734 120.676H375.433V529.095H807.734V120.676Z" fill="#F8F7FF"/>
<path d="M378.624 430.191V307.35H391.373V291.12L420.097 277.682V261.089H424.885V307.35H429.672V430.191H436.055V366.377H450.418V332.883H455.205V430.191H466.358V393.506H474.337V383.931H491.891V350.419H501.465V328.095H512.636V294.583H517.424V328.095H528.594V350.419H538.151V383.931H555.705V393.506H563.684V430.191H573.259V383.931H590.813V281.817H595.6V270.646H633.881V281.817H641.861V355.206H673.777V363.185H684.929V367.973H673.777V396.697H707.271V300.967H713.654V281.817H729.612V208.428H734.399V281.817H745.57V300.967H807.734V529.113H375.433V430.191H378.624Z" fill="#F8F7FF"/>
<path d="M774.513 305.972H769.997V310.487H774.513V305.972Z" fill="#F0F0F0"/>
<path d="M774.513 313.552H769.997V318.067H774.513V313.552Z" fill="#F0F0F0"/>
<path d="M774.513 343.854H769.997V348.369H774.513V343.854Z" fill="#F0F0F0"/>
<path d="M774.513 351.434H769.997V355.949H774.513V351.434Z" fill="#F0F0F0"/>
<path d="M774.513 359.014H769.997V363.53H774.513V359.014Z" fill="#F0F0F0"/>
<path d="M774.513 381.754H769.997V386.27H774.513V381.754Z" fill="#F0F0F0"/>
<path d="M774.513 389.334H769.997V393.85H774.513V389.334Z" fill="#F0F0F0"/>
<path d="M767.331 336.274H762.816V340.789H767.331V336.274Z" fill="#F0F0F0"/>
<path d="M767.331 343.854H762.816V348.369H767.331V343.854Z" fill="#F0F0F0"/>
<path d="M767.331 351.434H762.816V355.949H767.331V351.434Z" fill="#F0F0F0"/>
<path d="M767.331 359.014H762.816V363.53H767.331V359.014Z" fill="#F0F0F0"/>
<path d="M767.331 366.594H762.816V371.11H767.331V366.594Z" fill="#F0F0F0"/>
<path d="M767.331 381.754H762.816V386.27H767.331V381.754Z" fill="#F0F0F0"/>
<path d="M767.331 389.334H762.816V393.85H767.331V389.334Z" fill="#F0F0F0"/>
<path d="M760.15 305.972H755.635V310.487H760.15V305.972Z" fill="#F0F0F0"/>
<path d="M760.15 313.552H755.635V318.067H760.15V313.552Z" fill="#F0F0F0"/>
<path d="M760.15 321.132H755.635V325.647H760.15V321.132Z" fill="#F0F0F0"/>
<path d="M760.15 328.712H755.635V333.227H760.15V328.712Z" fill="#F0F0F0"/>
<path d="M760.15 336.274H755.635V340.789H760.15V336.274Z" fill="#F0F0F0"/>
<path d="M760.15 343.854H755.635V348.369H760.15V343.854Z" fill="#F0F0F0"/>
<path d="M760.15 351.434H755.635V355.949H760.15V351.434Z" fill="#F0F0F0"/>
<path d="M760.15 359.014H755.635V363.53H760.15V359.014Z" fill="#F0F0F0"/>
<path d="M760.15 366.594H755.635V371.11H760.15V366.594Z" fill="#F0F0F0"/>
<path d="M760.15 374.174H755.635V378.69H760.15V374.174Z" fill="#F0F0F0"/>
<path d="M760.15 389.334H755.635V393.85H760.15V389.334Z" fill="#F0F0F0"/>
<path d="M752.969 305.972H748.454V310.487H752.969V305.972Z" fill="#F0F0F0"/>
<path d="M752.969 313.552H748.454V318.067H752.969V313.552Z" fill="#F0F0F0"/>
<path d="M752.969 321.132H748.454V325.647H752.969V321.132Z" fill="#F0F0F0"/>
<path d="M752.969 328.712H748.454V333.227H752.969V328.712Z" fill="#F0F0F0"/>
<path d="M752.969 336.274H748.454V340.789H752.969V336.274Z" fill="#F0F0F0"/>
<path d="M752.969 343.854H748.454V348.369H752.969V343.854Z" fill="#F0F0F0"/>
<path d="M752.969 351.434H748.454V355.949H752.969V351.434Z" fill="#F0F0F0"/>
<path d="M752.969 419.637H748.454V424.152H752.969V419.637Z" fill="#F0F0F0"/>
<path d="M745.788 305.972H741.272V310.487H745.788V305.972Z" fill="#F0F0F0"/>
<path d="M745.788 313.552H741.272V318.067H745.788V313.552Z" fill="#F0F0F0"/>
<path d="M745.788 321.132H741.272V325.647H745.788V321.132Z" fill="#F0F0F0"/>
<path d="M745.788 328.712H741.272V333.227H745.788V328.712Z" fill="#F0F0F0"/>
<path d="M745.788 336.274H741.272V340.789H745.788V336.274Z" fill="#F0F0F0"/>
<path d="M745.788 343.854H741.272V348.369H745.788V343.854Z" fill="#F0F0F0"/>
<path d="M745.788 351.434H741.272V355.949H745.788V351.434Z" fill="#F0F0F0"/>
<path d="M745.788 359.014H741.272V363.53H745.788V359.014Z" fill="#F0F0F0"/>
<path d="M745.788 404.495H741.272V409.01H745.788V404.495Z" fill="#F0F0F0"/>
<path d="M745.788 412.057H741.272V416.572H745.788V412.057Z" fill="#F0F0F0"/>
<path d="M745.788 419.637H741.272V424.152H745.788V419.637Z" fill="#F0F0F0"/>
<path d="M745.788 427.217H741.272V431.732H745.788V427.217Z" fill="#F0F0F0"/>
<path d="M745.788 457.537H741.272V462.053H745.788V457.537Z" fill="#F0F0F0"/>
<path d="M738.607 305.972H734.091V310.487H738.607V305.972Z" fill="#F0F0F0"/>
<path d="M738.607 313.552H734.091V318.067H738.607V313.552Z" fill="#F0F0F0"/>
<path d="M738.607 321.132H734.091V325.647H738.607V321.132Z" fill="#F0F0F0"/>
<path d="M738.607 328.712H734.091V333.227H738.607V328.712Z" fill="#F0F0F0"/>
<path d="M738.607 336.274H734.091V340.789H738.607V336.274Z" fill="#F0F0F0"/>
<path d="M738.607 343.854H734.091V348.369H738.607V343.854Z" fill="#F0F0F0"/>
<path d="M738.607 351.434H734.091V355.949H738.607V351.434Z" fill="#F0F0F0"/>
<path d="M738.607 359.014H734.091V363.53H738.607V359.014Z" fill="#F0F0F0"/>
<path d="M738.607 366.594H734.091V371.11H738.607V366.594Z" fill="#F0F0F0"/>
<path d="M738.607 374.174H734.091V378.69H738.607V374.174Z" fill="#F0F0F0"/>
<path d="M738.607 396.915H734.091V401.43H738.607V396.915Z" fill="#F0F0F0"/>
<path d="M738.607 404.495H734.091V409.01H738.607V404.495Z" fill="#F0F0F0"/>
<path d="M738.607 412.057H734.091V416.572H738.607V412.057Z" fill="#F0F0F0"/>
<path d="M738.607 419.637H734.091V424.152H738.607V419.637Z" fill="#F0F0F0"/>
<path d="M738.607 427.217H734.091V431.732H738.607V427.217Z" fill="#F0F0F0"/>
<path d="M738.607 457.537H734.091V462.053H738.607V457.537Z" fill="#F0F0F0"/>
<path d="M731.426 305.972H726.91V310.487H731.426V305.972Z" fill="#F0F0F0"/>
<path d="M731.426 313.552H726.91V318.067H731.426V313.552Z" fill="#F0F0F0"/>
<path d="M731.426 321.132H726.91V325.647H731.426V321.132Z" fill="#F0F0F0"/>
<path d="M731.426 328.712H726.91V333.227H731.426V328.712Z" fill="#F0F0F0"/>
<path d="M731.426 336.274H726.91V340.789H731.426V336.274Z" fill="#F0F0F0"/>
<path d="M731.426 343.854H726.91V348.369H731.426V343.854Z" fill="#F0F0F0"/>
<path d="M731.426 351.434H726.91V355.949H731.426V351.434Z" fill="#F0F0F0"/>
<path d="M731.426 359.014H726.91V363.53H731.426V359.014Z" fill="#F0F0F0"/>
<path d="M731.426 366.594H726.91V371.11H731.426V366.594Z" fill="#F0F0F0"/>
<path d="M731.426 374.174H726.91V378.69H731.426V374.174Z" fill="#F0F0F0"/>
<path d="M731.426 381.754H726.91V386.27H731.426V381.754Z" fill="#F0F0F0"/>
<path d="M731.426 389.334H726.91V393.85H731.426V389.334Z" fill="#F0F0F0"/>
<path d="M731.426 396.915H726.91V401.43H731.426V396.915Z" fill="#F0F0F0"/>
<path d="M731.426 404.495H726.91V409.01H731.426V404.495Z" fill="#F0F0F0"/>
<path d="M731.426 412.057H726.91V416.572H731.426V412.057Z" fill="#F0F0F0"/>
<path d="M731.426 419.637H726.91V424.152H731.426V419.637Z" fill="#F0F0F0"/>
<path d="M731.426 427.217H726.91V431.732H731.426V427.217Z" fill="#F0F0F0"/>
<path d="M731.426 434.797H726.91V439.312H731.426V434.797Z" fill="#F0F0F0"/>
<path d="M724.244 305.972H719.729V310.487H724.244V305.972Z" fill="#F0F0F0"/>
<path d="M724.244 313.552H719.729V318.067H724.244V313.552Z" fill="#F0F0F0"/>
<path d="M724.244 321.132H719.729V325.647H724.244V321.132Z" fill="#F0F0F0"/>
<path d="M724.244 328.712H719.729V333.227H724.244V328.712Z" fill="#F0F0F0"/>
<path d="M724.244 336.274H719.729V340.789H724.244V336.274Z" fill="#F0F0F0"/>
<path d="M724.244 343.854H719.729V348.369H724.244V343.854Z" fill="#F0F0F0"/>
<path d="M724.244 351.434H719.729V355.949H724.244V351.434Z" fill="#F0F0F0"/>
<path d="M724.244 359.014H719.729V363.53H724.244V359.014Z" fill="#F0F0F0"/>
<path d="M724.244 366.594H719.729V371.11H724.244V366.594Z" fill="#F0F0F0"/>
<path d="M724.244 374.174H719.729V378.69H724.244V374.174Z" fill="#F0F0F0"/>
<path d="M724.244 396.915H719.729V401.43H724.244V396.915Z" fill="#F0F0F0"/>
<path d="M724.244 404.495H719.729V409.01H724.244V404.495Z" fill="#F0F0F0"/>
<path d="M724.244 412.057H719.729V416.572H724.244V412.057Z" fill="#F0F0F0"/>
<path d="M724.244 419.637H719.729V424.152H724.244V419.637Z" fill="#F0F0F0"/>
<path d="M717.081 305.972H712.566V310.487H717.081V305.972Z" fill="#F0F0F0"/>
<path d="M717.081 313.552H712.566V318.067H717.081V313.552Z" fill="#F0F0F0"/>
<path d="M717.081 321.132H712.566V325.647H717.081V321.132Z" fill="#F0F0F0"/>
<path d="M717.081 328.712H712.566V333.227H717.081V328.712Z" fill="#F0F0F0"/>
<path d="M717.081 336.274H712.566V340.789H717.081V336.274Z" fill="#F0F0F0"/>
<path d="M717.081 343.854H712.566V348.369H717.081V343.854Z" fill="#F0F0F0"/>
<path d="M717.081 351.434H712.566V355.949H717.081V351.434Z" fill="#F0F0F0"/>
<path d="M717.081 359.014H712.566V363.53H717.081V359.014Z" fill="#F0F0F0"/>
<path d="M717.081 366.594H712.566V371.11H717.081V366.594Z" fill="#F0F0F0"/>
<path d="M717.081 374.174H712.566V378.69H717.081V374.174Z" fill="#F0F0F0"/>
<path d="M717.081 396.915H712.566V401.43H717.081V396.915Z" fill="#F0F0F0"/>
<path d="M717.081 404.495H712.566V409.01H717.081V404.495Z" fill="#F0F0F0"/>
<path d="M717.081 412.057H712.566V416.572H717.081V412.057Z" fill="#F0F0F0"/>
<path d="M636.239 286.296H631.724V290.811H636.239V286.296Z" fill="#F0F0F0"/>
<path d="M636.239 293.876H631.724V298.391H636.239V293.876Z" fill="#F0F0F0"/>
<path d="M636.239 301.456H631.724V305.971H636.239V301.456Z" fill="#F0F0F0"/>
<path d="M636.239 309.018H631.724V313.533H636.239V309.018Z" fill="#F0F0F0"/>
<path d="M636.239 316.598H631.724V321.114H636.239V316.598Z" fill="#F0F0F0"/>
<path d="M636.239 324.178H631.724V328.694H636.239V324.178Z" fill="#F0F0F0"/>
<path d="M636.239 331.758H631.724V336.274H636.239V331.758Z" fill="#F0F0F0"/>
<path d="M636.239 339.338H631.724V343.854H636.239V339.338Z" fill="#F0F0F0"/>
<path d="M636.239 362.079H631.724V366.594H636.239V362.079Z" fill="#F0F0F0"/>
<path d="M636.239 369.659H631.724V374.174H636.239V369.659Z" fill="#F0F0F0"/>
<path d="M629.058 286.296H624.542V290.811H629.058V286.296Z" fill="#F0F0F0"/>
<path d="M629.058 293.876H624.542V298.391H629.058V293.876Z" fill="#F0F0F0"/>
<path d="M629.058 301.456H624.542V305.971H629.058V301.456Z" fill="#F0F0F0"/>
<path d="M629.058 309.018H624.542V313.533H629.058V309.018Z" fill="#F0F0F0"/>
<path d="M629.058 316.598H624.542V321.114H629.058V316.598Z" fill="#F0F0F0"/>
<path d="M629.058 324.178H624.542V328.694H629.058V324.178Z" fill="#F0F0F0"/>
<path d="M629.058 331.758H624.542V336.274H629.058V331.758Z" fill="#F0F0F0"/>
<path d="M629.058 339.338H624.542V343.854H629.058V339.338Z" fill="#F0F0F0"/>
<path d="M629.058 369.659H624.542V374.174H629.058V369.659Z" fill="#F0F0F0"/>
<path d="M621.877 286.296H617.361V290.811H621.877V286.296Z" fill="#F0F0F0"/>
<path d="M621.877 293.876H617.361V298.391H621.877V293.876Z" fill="#F0F0F0"/>
<path d="M621.877 301.456H617.361V305.971H621.877V301.456Z" fill="#F0F0F0"/>
<path d="M621.877 309.018H617.361V313.533H621.877V309.018Z" fill="#F0F0F0"/>
<path d="M621.877 316.598H617.361V321.114H621.877V316.598Z" fill="#F0F0F0"/>
<path d="M621.877 324.178H617.361V328.694H621.877V324.178Z" fill="#F0F0F0"/>
<path d="M621.877 331.758H617.361V336.274H621.877V331.758Z" fill="#F0F0F0"/>
<path d="M621.877 339.338H617.361V343.854H621.877V339.338Z" fill="#F0F0F0"/>
<path d="M614.696 286.296H610.18V290.811H614.696V286.296Z" fill="#F0F0F0"/>
<path d="M614.696 293.876H610.18V298.391H614.696V293.876Z" fill="#F0F0F0"/>
<path d="M614.696 301.456H610.18V305.971H614.696V301.456Z" fill="#F0F0F0"/>
<path d="M614.696 309.018H610.18V313.533H614.696V309.018Z" fill="#F0F0F0"/>
<path d="M614.696 316.598H610.18V321.114H614.696V316.598Z" fill="#F0F0F0"/>
<path d="M614.696 324.178H610.18V328.694H614.696V324.178Z" fill="#F0F0F0"/>
<path d="M614.696 339.338H610.18V343.854H614.696V339.338Z" fill="#F0F0F0"/>
<path d="M614.696 346.918H610.18V351.434H614.696V346.918Z" fill="#F0F0F0"/>
<path d="M614.696 369.659H610.18V374.174H614.696V369.659Z" fill="#F0F0F0"/>
<path d="M614.696 377.239H610.18V381.754H614.696V377.239Z" fill="#F0F0F0"/>
<path d="M614.696 384.801H610.18V389.316H614.696V384.801Z" fill="#F0F0F0"/>
<path d="M614.696 392.381H610.18V396.896H614.696V392.381Z" fill="#F0F0F0"/>
<path d="M614.696 399.961H610.18V404.476H614.696V399.961Z" fill="#F0F0F0"/>
<path d="M614.696 407.541H610.18V412.056H614.696V407.541Z" fill="#F0F0F0"/>
<path d="M614.696 415.122H610.18V419.637H614.696V415.122Z" fill="#F0F0F0"/>
<path d="M607.514 286.296H602.999V290.811H607.514V286.296Z" fill="#F0F0F0"/>
<path d="M607.514 293.876H602.999V298.391H607.514V293.876Z" fill="#F0F0F0"/>
<path d="M607.514 301.456H602.999V305.971H607.514V301.456Z" fill="#F0F0F0"/>
<path d="M607.514 309.018H602.999V313.533H607.514V309.018Z" fill="#F0F0F0"/>
<path d="M607.514 316.598H602.999V321.114H607.514V316.598Z" fill="#F0F0F0"/>
<path d="M607.514 324.178H602.999V328.694H607.514V324.178Z" fill="#F0F0F0"/>
<path d="M607.514 346.918H602.999V351.434H607.514V346.918Z" fill="#F0F0F0"/>
<path d="M607.514 354.499H602.999V359.014H607.514V354.499Z" fill="#F0F0F0"/>
<path d="M607.514 362.079H602.999V366.594H607.514V362.079Z" fill="#F0F0F0"/>
<path d="M607.514 369.659H602.999V374.174H607.514V369.659Z" fill="#F0F0F0"/>
<path d="M607.514 377.239H602.999V381.754H607.514V377.239Z" fill="#F0F0F0"/>
<path d="M607.514 384.801H602.999V389.316H607.514V384.801Z" fill="#F0F0F0"/>
<path d="M607.514 392.381H602.999V396.896H607.514V392.381Z" fill="#F0F0F0"/>
<path d="M607.514 399.961H602.999V404.476H607.514V399.961Z" fill="#F0F0F0"/>
<path d="M607.514 407.541H602.999V412.056H607.514V407.541Z" fill="#F0F0F0"/>
<path d="M607.514 415.122H602.999V419.637H607.514V415.122Z" fill="#F0F0F0"/>
<path d="M607.514 422.702H602.999V427.217H607.514V422.702Z" fill="#F0F0F0"/>
<path d="M607.514 437.862H602.999V442.377H607.514V437.862Z" fill="#F0F0F0"/>
<path d="M600.333 286.296H595.818V290.811H600.333V286.296Z" fill="#F0F0F0"/>
<path d="M600.333 293.876H595.818V298.391H600.333V293.876Z" fill="#F0F0F0"/>
<path d="M600.333 301.456H595.818V305.971H600.333V301.456Z" fill="#F0F0F0"/>
<path d="M600.333 309.018H595.818V313.533H600.333V309.018Z" fill="#F0F0F0"/>
<path d="M600.333 316.598H595.818V321.114H600.333V316.598Z" fill="#F0F0F0"/>
<path d="M600.333 324.178H595.818V328.694H600.333V324.178Z" fill="#F0F0F0"/>
<path d="M600.333 346.918H595.818V351.434H600.333V346.918Z" fill="#F0F0F0"/>
<path d="M600.333 354.499H595.818V359.014H600.333V354.499Z" fill="#F0F0F0"/>
<path d="M600.333 362.079H595.818V366.594H600.333V362.079Z" fill="#F0F0F0"/>
<path d="M600.333 369.659H595.818V374.174H600.333V369.659Z" fill="#F0F0F0"/>
<path d="M600.333 392.381H595.818V396.896H600.333V392.381Z" fill="#F0F0F0"/>
<path d="M600.333 399.961H595.818V404.476H600.333V399.961Z" fill="#F0F0F0"/>
<path d="M600.333 407.541H595.818V412.056H600.333V407.541Z" fill="#F0F0F0"/>
<path d="M600.333 415.122H595.818V419.637H600.333V415.122Z" fill="#F0F0F0"/>
<path d="M600.333 422.702H595.818V427.217H600.333V422.702Z" fill="#F0F0F0"/>
<path d="M600.333 437.862H595.818V442.377H600.333V437.862Z" fill="#F0F0F0"/>
<path d="M600.333 445.442H595.818V449.957H600.333V445.442Z" fill="#F0F0F0"/>
<path d="M535.195 356.766H530.68V361.281H535.195V356.766Z" fill="#F0F0F0"/>
<path d="M535.195 364.328H530.68V368.843H535.195V364.328Z" fill="#F0F0F0"/>
<path d="M535.195 371.908H530.68V376.423H535.195V371.908Z" fill="#F0F0F0"/>
<path d="M535.195 379.488H530.68V384.003H535.195V379.488Z" fill="#F0F0F0"/>
<path d="M535.195 387.068H530.68V391.583H535.195V387.068Z" fill="#F0F0F0"/>
<path d="M535.195 394.648H530.68V399.163H535.195V394.648Z" fill="#F0F0F0"/>
<path d="M535.195 402.228H530.68V406.743H535.195V402.228Z" fill="#F0F0F0"/>
<path d="M535.195 424.968H530.68V429.484H535.195V424.968Z" fill="#F0F0F0"/>
<path d="M535.195 432.53H530.68V437.046H535.195V432.53Z" fill="#F0F0F0"/>
<path d="M535.195 440.11H530.68V444.626H535.195V440.11Z" fill="#F0F0F0"/>
<path d="M528.014 356.766H523.499V361.281H528.014V356.766Z" fill="#F0F0F0"/>
<path d="M528.014 364.328H523.499V368.843H528.014V364.328Z" fill="#F0F0F0"/>
<path d="M528.014 371.908H523.499V376.423H528.014V371.908Z" fill="#F0F0F0"/>
<path d="M528.014 379.488H523.499V384.003H528.014V379.488Z" fill="#F0F0F0"/>
<path d="M528.014 387.068H523.499V391.583H528.014V387.068Z" fill="#F0F0F0"/>
<path d="M528.014 394.648H523.499V399.163H528.014V394.648Z" fill="#F0F0F0"/>
<path d="M528.014 402.228H523.499V406.743H528.014V402.228Z" fill="#F0F0F0"/>
<path d="M520.833 356.766H516.317V361.281H520.833V356.766Z" fill="#F0F0F0"/>
<path d="M520.833 364.328H516.317V368.843H520.833V364.328Z" fill="#F0F0F0"/>
<path d="M520.833 371.908H516.317V376.423H520.833V371.908Z" fill="#F0F0F0"/>
<path d="M520.833 379.488H516.317V384.003H520.833V379.488Z" fill="#F0F0F0"/>
<path d="M520.833 387.068H516.317V391.583H520.833V387.068Z" fill="#F0F0F0"/>
<path d="M520.833 394.648H516.317V399.163H520.833V394.648Z" fill="#F0F0F0"/>
<path d="M520.833 402.228H516.317V406.743H520.833V402.228Z" fill="#F0F0F0"/>
<path d="M513.652 356.766H509.136V361.281H513.652V356.766Z" fill="#F0F0F0"/>
<path d="M513.652 364.328H509.136V368.843H513.652V364.328Z" fill="#F0F0F0"/>
<path d="M513.652 371.908H509.136V376.423H513.652V371.908Z" fill="#F0F0F0"/>
<path d="M513.652 379.488H509.136V384.003H513.652V379.488Z" fill="#F0F0F0"/>
<path d="M513.652 387.068H509.136V391.583H513.652V387.068Z" fill="#F0F0F0"/>
<path d="M513.652 394.648H509.136V399.163H513.652V394.648Z" fill="#F0F0F0"/>
<path d="M513.652 402.228H509.136V406.743H513.652V402.228Z" fill="#F0F0F0"/>
<path d="M513.652 409.808H509.136V414.324H513.652V409.808Z" fill="#F0F0F0"/>
<path d="M513.652 417.388H509.136V421.904H513.652V417.388Z" fill="#F0F0F0"/>
<path d="M513.652 424.968H509.136V429.484H513.652V424.968Z" fill="#F0F0F0"/>
<path d="M513.652 432.53H509.136V437.046H513.652V432.53Z" fill="#F0F0F0"/>
<path d="M506.471 356.766H501.955V361.281H506.471V356.766Z" fill="#F0F0F0"/>
<path d="M506.471 364.328H501.955V368.843H506.471V364.328Z" fill="#F0F0F0"/>
<path d="M506.471 371.908H501.955V376.423H506.471V371.908Z" fill="#F0F0F0"/>
<path d="M506.471 379.488H501.955V384.003H506.471V379.488Z" fill="#F0F0F0"/>
<path d="M506.471 387.068H501.955V391.583H506.471V387.068Z" fill="#F0F0F0"/>
<path d="M506.471 394.648H501.955V399.163H506.471V394.648Z" fill="#F0F0F0"/>
<path d="M506.471 402.228H501.955V406.743H506.471V402.228Z" fill="#F0F0F0"/>
<path d="M506.471 409.808H501.955V414.324H506.471V409.808Z" fill="#F0F0F0"/>
<path d="M506.471 417.388H501.955V421.904H506.471V417.388Z" fill="#F0F0F0"/>
<path d="M506.471 424.968H501.955V429.484H506.471V424.968Z" fill="#F0F0F0"/>
<path d="M506.471 432.53H501.955V437.046H506.471V432.53Z" fill="#F0F0F0"/>
<path d="M506.471 440.11H501.955V444.626H506.471V440.11Z" fill="#F0F0F0"/>
<path d="M506.471 462.851H501.955V467.366H506.471V462.851Z" fill="#F0F0F0"/>
<path d="M506.471 470.431H501.955V474.946H506.471V470.431Z" fill="#F0F0F0"/>
<path d="M499.289 356.766H494.774V361.281H499.289V356.766Z" fill="#F0F0F0"/>
<path d="M499.289 364.328H494.774V368.843H499.289V364.328Z" fill="#F0F0F0"/>
<path d="M499.289 371.908H494.774V376.423H499.289V371.908Z" fill="#F0F0F0"/>
<path d="M499.289 394.648H494.774V399.163H499.289V394.648Z" fill="#F0F0F0"/>
<path d="M499.289 402.228H494.774V406.743H499.289V402.228Z" fill="#F0F0F0"/>
<path d="M499.289 409.808H494.774V414.324H499.289V409.808Z" fill="#F0F0F0"/>
<path d="M499.289 417.388H494.774V421.904H499.289V417.388Z" fill="#F0F0F0"/>
<path d="M499.289 424.968H494.774V429.484H499.289V424.968Z" fill="#F0F0F0"/>
<path d="M499.289 432.53H494.774V437.046H499.289V432.53Z" fill="#F0F0F0"/>
<path d="M499.289 440.11H494.774V444.626H499.289V440.11Z" fill="#F0F0F0"/>
<path d="M499.289 462.851H494.774V467.366H499.289V462.851Z" fill="#F0F0F0"/>
<path d="M499.289 470.431H494.774V474.946H499.289V470.431Z" fill="#F0F0F0"/>
<path d="M499.289 478.011H494.774V482.526H499.289V478.011Z" fill="#F0F0F0"/>
<path d="M424.051 311.285H419.535V315.8H424.051V311.285Z" fill="#F0F0F0"/>
<path d="M424.051 318.865H419.535V323.38H424.051V318.865Z" fill="#F0F0F0"/>
<path d="M424.051 326.445H419.535V330.96H424.051V326.445Z" fill="#F0F0F0"/>
<path d="M424.051 334.025H419.535V338.541H424.051V334.025Z" fill="#F0F0F0"/>
<path d="M424.051 341.605H419.535V346.121H424.051V341.605Z" fill="#F0F0F0"/>
<path d="M424.051 349.186H419.535V353.701H424.051V349.186Z" fill="#F0F0F0"/>
<path d="M424.051 356.766H419.535V361.281H424.051V356.766Z" fill="#F0F0F0"/>
<path d="M424.051 364.328H419.535V368.843H424.051V364.328Z" fill="#F0F0F0"/>
<path d="M424.051 371.908H419.535V376.423H424.051V371.908Z" fill="#F0F0F0"/>
<path d="M424.051 379.488H419.535V384.003H424.051V379.488Z" fill="#F0F0F0"/>
<path d="M424.051 387.068H419.535V391.583H424.051V387.068Z" fill="#F0F0F0"/>
<path d="M424.051 394.648H419.535V399.163H424.051V394.648Z" fill="#F0F0F0"/>
<path d="M424.051 402.228H419.535V406.743H424.051V402.228Z" fill="#F0F0F0"/>
<path d="M424.051 409.808H419.535V414.324H424.051V409.808Z" fill="#F0F0F0"/>
<path d="M424.051 417.388H419.535V421.904H424.051V417.388Z" fill="#F0F0F0"/>
<path d="M424.051 424.968H419.535V429.484H424.051V424.968Z" fill="#F0F0F0"/>
<path d="M424.051 432.53H419.535V437.046H424.051V432.53Z" fill="#F0F0F0"/>
<path d="M424.051 440.11H419.535V444.626H424.051V440.11Z" fill="#F0F0F0"/>
<path d="M424.051 447.69H419.535V452.206H424.051V447.69Z" fill="#F0F0F0"/>
<path d="M424.051 455.271H419.535V459.786H424.051V455.271Z" fill="#F0F0F0"/>
<path d="M424.051 462.851H419.535V467.366H424.051V462.851Z" fill="#F0F0F0"/>
<path d="M424.051 470.431H419.535V474.946H424.051V470.431Z" fill="#F0F0F0"/>
<path d="M424.051 478.011H419.535V482.526H424.051V478.011Z" fill="#F0F0F0"/>
<path d="M416.869 311.285H412.354V315.8H416.869V311.285Z" fill="#F0F0F0"/>
<path d="M416.869 318.865H412.354V323.38H416.869V318.865Z" fill="#F0F0F0"/>
<path d="M416.869 326.445H412.354V330.96H416.869V326.445Z" fill="#F0F0F0"/>
<path d="M416.869 334.025H412.354V338.541H416.869V334.025Z" fill="#F0F0F0"/>
<path d="M416.869 341.605H412.354V346.121H416.869V341.605Z" fill="#F0F0F0"/>
<path d="M416.869 349.186H412.354V353.701H416.869V349.186Z" fill="#F0F0F0"/>
<path d="M416.869 356.766H412.354V361.281H416.869V356.766Z" fill="#F0F0F0"/>
<path d="M416.869 364.328H412.354V368.843H416.869V364.328Z" fill="#F0F0F0"/>
<path d="M416.869 371.908H412.354V376.423H416.869V371.908Z" fill="#F0F0F0"/>
<path d="M416.869 379.488H412.354V384.003H416.869V379.488Z" fill="#F0F0F0"/>
<path d="M416.869 387.068H412.354V391.583H416.869V387.068Z" fill="#F0F0F0"/>
<path d="M416.869 394.648H412.354V399.163H416.869V394.648Z" fill="#F0F0F0"/>
<path d="M416.869 402.228H412.354V406.743H416.869V402.228Z" fill="#F0F0F0"/>
<path d="M416.869 409.808H412.354V414.324H416.869V409.808Z" fill="#F0F0F0"/>
<path d="M416.869 417.388H412.354V421.904H416.869V417.388Z" fill="#F0F0F0"/>
<path d="M416.869 424.968H412.354V429.484H416.869V424.968Z" fill="#F0F0F0"/>
<path d="M416.869 432.53H412.354V437.046H416.869V432.53Z" fill="#F0F0F0"/>
<path d="M416.869 440.11H412.354V444.626H416.869V440.11Z" fill="#F0F0F0"/>
<path d="M416.869 447.69H412.354V452.206H416.869V447.69Z" fill="#F0F0F0"/>
<path d="M409.688 311.285H405.173V315.8H409.688V311.285Z" fill="#F0F0F0"/>
<path d="M409.688 318.865H405.173V323.38H409.688V318.865Z" fill="#F0F0F0"/>
<path d="M409.688 326.445H405.173V330.96H409.688V326.445Z" fill="#F0F0F0"/>
<path d="M409.688 334.025H405.173V338.541H409.688V334.025Z" fill="#F0F0F0"/>
<path d="M409.688 341.605H405.173V346.121H409.688V341.605Z" fill="#F0F0F0"/>
<path d="M409.688 349.186H405.173V353.701H409.688V349.186Z" fill="#F0F0F0"/>
<path d="M409.688 356.766H405.173V361.281H409.688V356.766Z" fill="#F0F0F0"/>
<path d="M409.688 364.328H405.173V368.843H409.688V364.328Z" fill="#F0F0F0"/>
<path d="M409.688 371.908H405.173V376.423H409.688V371.908Z" fill="#F0F0F0"/>
<path d="M409.688 379.488H405.173V384.003H409.688V379.488Z" fill="#F0F0F0"/>
<path d="M409.688 387.068H405.173V391.583H409.688V387.068Z" fill="#F0F0F0"/>
<path d="M409.688 394.648H405.173V399.163H409.688V394.648Z" fill="#F0F0F0"/>
<path d="M409.688 402.228H405.173V406.743H409.688V402.228Z" fill="#F0F0F0"/>
<path d="M409.688 409.808H405.173V414.324H409.688V409.808Z" fill="#F0F0F0"/>
<path d="M409.688 417.388H405.173V421.904H409.688V417.388Z" fill="#F0F0F0"/>
<path d="M409.688 424.968H405.173V429.484H409.688V424.968Z" fill="#F0F0F0"/>
<path d="M409.688 432.53H405.173V437.046H409.688V432.53Z" fill="#F0F0F0"/>
<path d="M409.688 440.11H405.173V444.626H409.688V440.11Z" fill="#F0F0F0"/>
<path d="M409.688 447.69H405.173V452.206H409.688V447.69Z" fill="#F0F0F0"/>
<path d="M402.507 311.285H397.992V315.8H402.507V311.285Z" fill="#F0F0F0"/>
<path d="M402.507 318.865H397.992V323.38H402.507V318.865Z" fill="#F0F0F0"/>
<path d="M402.507 326.445H397.992V330.96H402.507V326.445Z" fill="#F0F0F0"/>
<path d="M402.507 334.025H397.992V338.541H402.507V334.025Z" fill="#F0F0F0"/>
<path d="M402.507 341.605H397.992V346.121H402.507V341.605Z" fill="#F0F0F0"/>
<path d="M402.507 349.186H397.992V353.701H402.507V349.186Z" fill="#F0F0F0"/>
<path d="M402.507 356.766H397.992V361.281H402.507V356.766Z" fill="#F0F0F0"/>
<path d="M402.507 364.328H397.992V368.843H402.507V364.328Z" fill="#F0F0F0"/>
<path d="M402.507 371.908H397.992V376.423H402.507V371.908Z" fill="#F0F0F0"/>
<path d="M402.507 379.488H397.992V384.003H402.507V379.488Z" fill="#F0F0F0"/>
<path d="M402.507 387.068H397.992V391.583H402.507V387.068Z" fill="#F0F0F0"/>
<path d="M402.507 394.648H397.992V399.163H402.507V394.648Z" fill="#F0F0F0"/>
<path d="M402.507 402.228H397.992V406.743H402.507V402.228Z" fill="#F0F0F0"/>
<path d="M402.507 409.808H397.992V414.324H402.507V409.808Z" fill="#F0F0F0"/>
<path d="M402.507 417.388H397.992V421.904H402.507V417.388Z" fill="#F0F0F0"/>
<path d="M395.326 311.285H390.811V315.8H395.326V311.285Z" fill="#F0F0F0"/>
<path d="M395.326 318.865H390.811V323.38H395.326V318.865Z" fill="#F0F0F0"/>
<path d="M395.326 326.445H390.811V330.96H395.326V326.445Z" fill="#F0F0F0"/>
<path d="M395.326 334.025H390.811V338.541H395.326V334.025Z" fill="#F0F0F0"/>
<path d="M395.326 341.605H390.811V346.121H395.326V341.605Z" fill="#F0F0F0"/>
<path d="M395.326 349.186H390.811V353.701H395.326V349.186Z" fill="#F0F0F0"/>
<path d="M395.326 356.766H390.811V361.281H395.326V356.766Z" fill="#F0F0F0"/>
<path d="M395.326 364.328H390.811V368.843H395.326V364.328Z" fill="#F0F0F0"/>
<path d="M395.326 371.908H390.811V376.423H395.326V371.908Z" fill="#F0F0F0"/>
<path d="M395.326 379.488H390.811V384.003H395.326V379.488Z" fill="#F0F0F0"/>
<path d="M395.326 387.068H390.811V391.583H395.326V387.068Z" fill="#F0F0F0"/>
<path d="M395.326 394.648H390.811V399.163H395.326V394.648Z" fill="#F0F0F0"/>
<path d="M395.326 402.228H390.811V406.743H395.326V402.228Z" fill="#F0F0F0"/>
<path d="M388.145 311.285H383.629V315.8H388.145V311.285Z" fill="#F0F0F0"/>
<path d="M388.145 318.865H383.629V323.38H388.145V318.865Z" fill="#F0F0F0"/>
<path d="M388.145 326.445H383.629V330.96H388.145V326.445Z" fill="#F0F0F0"/>
<path d="M388.145 334.025H383.629V338.541H388.145V334.025Z" fill="#F0F0F0"/>
<path d="M388.145 341.605H383.629V346.121H388.145V341.605Z" fill="#F0F0F0"/>
<path d="M388.145 349.186H383.629V353.701H388.145V349.186Z" fill="#F0F0F0"/>
<path d="M388.145 356.766H383.629V361.281H388.145V356.766Z" fill="#F0F0F0"/>
<path d="M388.145 364.328H383.629V368.843H388.145V364.328Z" fill="#F0F0F0"/>
<path d="M388.145 371.908H383.629V376.423H388.145V371.908Z" fill="#F0F0F0"/>
<path d="M388.145 379.488H383.629V384.003H388.145V379.488Z" fill="#F0F0F0"/>
<path d="M388.145 387.068H383.629V391.583H388.145V387.068Z" fill="#F0F0F0"/>
<path d="M388.145 394.648H383.629V399.163H388.145V394.648Z" fill="#F0F0F0"/>
<path d="M807.208 309.018H802.693V313.533H807.208V309.018Z" fill="#F0F0F0"/>
<path d="M807.208 316.598H802.693V321.114H807.208V316.598Z" fill="#F0F0F0"/>
<path d="M807.208 324.178H802.693V328.694H807.208V324.178Z" fill="#F0F0F0"/>
<path d="M807.208 331.758H802.693V336.274H807.208V331.758Z" fill="#F0F0F0"/>
<path d="M807.208 339.338H802.693V343.854H807.208V339.338Z" fill="#F0F0F0"/>
<path d="M807.208 346.918H802.693V351.434H807.208V346.918Z" fill="#F0F0F0"/>
<path d="M807.208 354.499H802.693V359.014H807.208V354.499Z" fill="#F0F0F0"/>
<path d="M807.208 362.079H802.693V366.594H807.208V362.079Z" fill="#F0F0F0"/>
<path d="M807.208 369.659H802.693V374.174H807.208V369.659Z" fill="#F0F0F0"/>
<path d="M807.208 377.239H802.693V381.754H807.208V377.239Z" fill="#F0F0F0"/>
<path d="M807.208 384.801H802.693V389.316H807.208V384.801Z" fill="#F0F0F0"/>
<path d="M807.208 392.381H802.693V396.896H807.208V392.381Z" fill="#F0F0F0"/>
<path d="M807.208 399.961H802.693V404.476H807.208V399.961Z" fill="#F0F0F0"/>
<path d="M807.208 407.541H802.693V412.056H807.208V407.541Z" fill="#F0F0F0"/>
<path d="M807.208 415.122H802.693V419.637H807.208V415.122Z" fill="#F0F0F0"/>
<path d="M807.208 422.702H802.693V427.217H807.208V422.702Z" fill="#F0F0F0"/>
<path d="M807.208 430.282H802.693V434.797H807.208V430.282Z" fill="#F0F0F0"/>
<path d="M807.208 445.442H802.693V449.957H807.208V445.442Z" fill="#F0F0F0"/>
<path d="M807.208 453.022H802.693V457.537H807.208V453.022Z" fill="#F0F0F0"/>
<path d="M807.208 460.584H802.693V465.099H807.208V460.584Z" fill="#F0F0F0"/>
<path d="M807.208 468.164H802.693V472.68H807.208V468.164Z" fill="#F0F0F0"/>
<path d="M807.208 475.744H802.693V480.26H807.208V475.744Z" fill="#F0F0F0"/>
<path d="M800.027 309.018H795.512V313.533H800.027V309.018Z" fill="#F0F0F0"/>
<path d="M800.027 316.598H795.512V321.114H800.027V316.598Z" fill="#F0F0F0"/>
<path d="M800.027 324.178H795.512V328.694H800.027V324.178Z" fill="#F0F0F0"/>
<path d="M800.027 331.758H795.512V336.274H800.027V331.758Z" fill="#F0F0F0"/>
<path d="M800.027 339.338H795.512V343.854H800.027V339.338Z" fill="#F0F0F0"/>
<path d="M800.027 346.918H795.512V351.434H800.027V346.918Z" fill="#F0F0F0"/>
<path d="M800.027 354.499H795.512V359.014H800.027V354.499Z" fill="#F0F0F0"/>
<path d="M800.027 362.079H795.512V366.594H800.027V362.079Z" fill="#F0F0F0"/>
<path d="M800.027 369.659H795.512V374.174H800.027V369.659Z" fill="#F0F0F0"/>
<path d="M800.027 377.239H795.512V381.754H800.027V377.239Z" fill="#F0F0F0"/>
<path d="M800.027 384.801H795.512V389.316H800.027V384.801Z" fill="#F0F0F0"/>
<path d="M800.027 392.381H795.512V396.896H800.027V392.381Z" fill="#F0F0F0"/>
<path d="M800.027 399.961H795.512V404.476H800.027V399.961Z" fill="#F0F0F0"/>
<path d="M800.027 407.541H795.512V412.056H800.027V407.541Z" fill="#F0F0F0"/>
<path d="M800.027 415.122H795.512V419.637H800.027V415.122Z" fill="#F0F0F0"/>
<path d="M800.027 422.702H795.512V427.217H800.027V422.702Z" fill="#F0F0F0"/>
<path d="M800.027 468.164H795.512V472.68H800.027V468.164Z" fill="#F0F0F0"/>
<path d="M800.027 475.744H795.512V480.26H800.027V475.744Z" fill="#F0F0F0"/>
<path d="M792.864 309.018H788.349V313.533H792.864V309.018Z" fill="#F0F0F0"/>
<path d="M792.864 316.598H788.349V321.114H792.864V316.598Z" fill="#F0F0F0"/>
<path d="M792.864 324.178H788.349V328.694H792.864V324.178Z" fill="#F0F0F0"/>
<path d="M792.864 331.758H788.349V336.274H792.864V331.758Z" fill="#F0F0F0"/>
<path d="M792.864 339.338H788.349V343.854H792.864V339.338Z" fill="#F0F0F0"/>
<path d="M792.864 346.918H788.349V351.434H792.864V346.918Z" fill="#F0F0F0"/>
<path d="M792.864 354.499H788.349V359.014H792.864V354.499Z" fill="#F0F0F0"/>
<path d="M792.864 362.079H788.349V366.594H792.864V362.079Z" fill="#F0F0F0"/>
<path d="M792.864 369.659H788.349V374.174H792.864V369.659Z" fill="#F0F0F0"/>
<path d="M792.864 377.239H788.349V381.754H792.864V377.239Z" fill="#F0F0F0"/>
<path d="M792.864 384.801H788.349V389.316H792.864V384.801Z" fill="#F0F0F0"/>
<path d="M792.864 392.381H788.349V396.896H792.864V392.381Z" fill="#F0F0F0"/>
<path d="M792.864 399.961H788.349V404.476H792.864V399.961Z" fill="#F0F0F0"/>
<path d="M792.864 407.541H788.349V412.056H792.864V407.541Z" fill="#F0F0F0"/>
<path d="M792.864 415.122H788.349V419.637H792.864V415.122Z" fill="#F0F0F0"/>
<path d="M792.864 422.702H788.349V427.217H792.864V422.702Z" fill="#F0F0F0"/>
<path d="M792.864 437.862H788.349V442.377H792.864V437.862Z" fill="#F0F0F0"/>
<path d="M792.864 445.442H788.349V449.957H792.864V445.442Z" fill="#F0F0F0"/>
<path d="M792.864 453.022H788.349V457.537H792.864V453.022Z" fill="#F0F0F0"/>
<path d="M792.864 460.584H788.349V465.099H792.864V460.584Z" fill="#F0F0F0"/>
<path d="M792.864 475.744H788.349V480.26H792.864V475.744Z" fill="#F0F0F0"/>
<path d="M667.611 362.079H663.096V366.594H667.611V362.079Z" fill="#F0F0F0"/>
<path d="M667.611 369.659H663.096V374.174H667.611V369.659Z" fill="#F0F0F0"/>
<path d="M667.611 377.239H663.096V381.754H667.611V377.239Z" fill="#F0F0F0"/>
<path d="M667.611 384.801H663.096V389.316H667.611V384.801Z" fill="#F0F0F0"/>
<path d="M667.611 392.381H663.096V396.896H667.611V392.381Z" fill="#F0F0F0"/>
<path d="M667.611 399.961H663.096V404.476H667.611V399.961Z" fill="#F0F0F0"/>
<path d="M667.611 407.541H663.096V412.056H667.611V407.541Z" fill="#F0F0F0"/>
<path d="M667.611 415.122H663.096V419.637H667.611V415.122Z" fill="#F0F0F0"/>
<path d="M667.611 422.702H663.096V427.217H667.611V422.702Z" fill="#F0F0F0"/>
<path d="M667.611 430.282H663.096V434.797H667.611V430.282Z" fill="#F0F0F0"/>
<path d="M667.611 437.862H663.096V442.377H667.611V437.862Z" fill="#F0F0F0"/>
<path d="M667.611 445.442H663.096V449.957H667.611V445.442Z" fill="#F0F0F0"/>
<path d="M667.611 453.022H663.096V457.537H667.611V453.022Z" fill="#F0F0F0"/>
<path d="M667.611 468.164H663.096V472.68H667.611V468.164Z" fill="#F0F0F0"/>
<path d="M667.611 475.744H663.096V480.26H667.611V475.744Z" fill="#F0F0F0"/>
<path d="M667.611 483.324H663.096V487.84H667.611V483.324Z" fill="#F0F0F0"/>
<path d="M667.611 490.904H663.096V495.42H667.611V490.904Z" fill="#F0F0F0"/>
<path d="M667.611 506.064H663.096V510.58H667.611V506.064Z" fill="#F0F0F0"/>
<path d="M667.611 513.645H663.096V518.16H667.611V513.645Z" fill="#F0F0F0"/>
<path d="M667.611 521.225H663.096V525.74H667.611V521.225Z" fill="#F0F0F0"/>
<path d="M660.43 362.079H655.915V366.594H660.43V362.079Z" fill="#F0F0F0"/>
<path d="M660.43 369.659H655.915V374.174H660.43V369.659Z" fill="#F0F0F0"/>
<path d="M660.43 377.239H655.915V381.754H660.43V377.239Z" fill="#F0F0F0"/>
<path d="M660.43 384.801H655.915V389.316H660.43V384.801Z" fill="#F0F0F0"/>
<path d="M660.43 392.381H655.915V396.896H660.43V392.381Z" fill="#F0F0F0"/>
<path d="M660.43 399.961H655.915V404.476H660.43V399.961Z" fill="#F0F0F0"/>
<path d="M660.43 407.541H655.915V412.056H660.43V407.541Z" fill="#F0F0F0"/>
<path d="M660.43 415.122H655.915V419.637H660.43V415.122Z" fill="#F0F0F0"/>
<path d="M660.43 422.702H655.915V427.217H660.43V422.702Z" fill="#F0F0F0"/>
<path d="M660.43 430.282H655.915V434.797H660.43V430.282Z" fill="#F0F0F0"/>
<path d="M660.43 437.862H655.915V442.377H660.43V437.862Z" fill="#F0F0F0"/>
<path d="M660.43 445.442H655.915V449.957H660.43V445.442Z" fill="#F0F0F0"/>
<path d="M660.43 453.022H655.915V457.537H660.43V453.022Z" fill="#F0F0F0"/>
<path d="M660.43 475.744H655.915V480.26H660.43V475.744Z" fill="#F0F0F0"/>
<path d="M660.43 483.324H655.915V487.84H660.43V483.324Z" fill="#F0F0F0"/>
<path d="M660.43 498.484H655.915V503H660.43V498.484Z" fill="#F0F0F0"/>
<path d="M660.43 506.064H655.915V510.58H660.43V506.064Z" fill="#F0F0F0"/>
<path d="M660.43 513.645H655.915V518.16H660.43V513.645Z" fill="#F0F0F0"/>
<path d="M660.43 521.225H655.915V525.74H660.43V521.225Z" fill="#F0F0F0"/>
<path d="M653.249 362.079H648.733V366.594H653.249V362.079Z" fill="#F0F0F0"/>
<path d="M653.249 369.659H648.733V374.174H653.249V369.659Z" fill="#F0F0F0"/>
<path d="M653.249 377.239H648.733V381.754H653.249V377.239Z" fill="#F0F0F0"/>
<path d="M653.249 384.801H648.733V389.316H653.249V384.801Z" fill="#F0F0F0"/>
<path d="M653.249 392.381H648.733V396.896H653.249V392.381Z" fill="#F0F0F0"/>
<path d="M653.249 399.961H648.733V404.476H653.249V399.961Z" fill="#F0F0F0"/>
<path d="M653.249 407.541H648.733V412.056H653.249V407.541Z" fill="#F0F0F0"/>
<path d="M653.249 415.122H648.733V419.637H653.249V415.122Z" fill="#F0F0F0"/>
<path d="M653.249 422.702H648.733V427.217H653.249V422.702Z" fill="#F0F0F0"/>
<path d="M653.249 430.282H648.733V434.797H653.249V430.282Z" fill="#F0F0F0"/>
<path d="M653.249 437.862H648.733V442.377H653.249V437.862Z" fill="#F0F0F0"/>
<path d="M653.249 445.442H648.733V449.957H653.249V445.442Z" fill="#F0F0F0"/>
<path d="M653.249 453.022H648.733V457.537H653.249V453.022Z" fill="#F0F0F0"/>
<path d="M653.249 460.584H648.733V465.099H653.249V460.584Z" fill="#F0F0F0"/>
<path d="M653.249 475.744H648.733V480.26H653.249V475.744Z" fill="#F0F0F0"/>
<path d="M653.249 490.904H648.733V495.42H653.249V490.904Z" fill="#F0F0F0"/>
<path d="M653.249 498.484H648.733V503H653.249V498.484Z" fill="#F0F0F0"/>
<path d="M653.249 506.064H648.733V510.58H653.249V506.064Z" fill="#F0F0F0"/>
<path d="M653.249 513.645H648.733V518.16H653.249V513.645Z" fill="#F0F0F0"/>
<path d="M653.249 521.225H648.733V525.74H653.249V521.225Z" fill="#F0F0F0"/>
<path d="M696.862 405.292H692.346V409.808H696.862V405.292Z" fill="#F0F0F0"/>
<path d="M696.862 412.854H692.346V417.37H696.862V412.854Z" fill="#F0F0F0"/>
<path d="M696.862 420.435H692.346V424.95H696.862V420.435Z" fill="#F0F0F0"/>
<path d="M696.862 428.015H692.346V432.53H696.862V428.015Z" fill="#F0F0F0"/>
<path d="M696.862 435.595H692.346V440.11H696.862V435.595Z" fill="#F0F0F0"/>
<path d="M696.862 443.175H692.346V447.69H696.862V443.175Z" fill="#F0F0F0"/>
<path d="M696.862 465.916H692.346V470.431H696.862V465.916Z" fill="#F0F0F0"/>
<path d="M696.862 473.496H692.346V478.011H696.862V473.496Z" fill="#F0F0F0"/>
<path d="M696.862 481.058H692.346V485.573H696.862V481.058Z" fill="#F0F0F0"/>
<path d="M696.862 488.638H692.346V493.153H696.862V488.638Z" fill="#F0F0F0"/>
<path d="M696.862 496.218H692.346V500.733H696.862V496.218Z" fill="#F0F0F0"/>
<path d="M696.862 503.798H692.346V508.313H696.862V503.798Z" fill="#F0F0F0"/>
<path d="M696.862 511.378H692.346V515.893H696.862V511.378Z" fill="#F0F0F0"/>
<path d="M689.68 405.292H685.165V409.808H689.68V405.292Z" fill="#F0F0F0"/>
<path d="M689.68 412.854H685.165V417.37H689.68V412.854Z" fill="#F0F0F0"/>
<path d="M689.68 420.435H685.165V424.95H689.68V420.435Z" fill="#F0F0F0"/>
<path d="M689.68 428.015H685.165V432.53H689.68V428.015Z" fill="#F0F0F0"/>
<path d="M689.68 435.595H685.165V440.11H689.68V435.595Z" fill="#F0F0F0"/>
<path d="M689.68 443.175H685.165V447.69H689.68V443.175Z" fill="#F0F0F0"/>
<path d="M689.68 465.916H685.165V470.431H689.68V465.916Z" fill="#F0F0F0"/>
<path d="M689.68 473.496H685.165V478.011H689.68V473.496Z" fill="#F0F0F0"/>
<path d="M689.68 481.058H685.165V485.573H689.68V481.058Z" fill="#F0F0F0"/>
<path d="M689.68 488.638H685.165V493.153H689.68V488.638Z" fill="#F0F0F0"/>
<path d="M689.68 496.218H685.165V500.733H689.68V496.218Z" fill="#F0F0F0"/>
<path d="M689.68 503.798H685.165V508.313H689.68V503.798Z" fill="#F0F0F0"/>
<path d="M689.68 518.958H685.165V523.473H689.68V518.958Z" fill="#F0F0F0"/>
<path d="M451.161 371.908H446.646V376.423H451.161V371.908Z" fill="#F0F0F0"/>
<path d="M451.161 379.488H446.646V384.003H451.161V379.488Z" fill="#F0F0F0"/>
<path d="M451.161 387.068H446.646V391.583H451.161V387.068Z" fill="#F0F0F0"/>
<path d="M451.161 394.648H446.646V399.163H451.161V394.648Z" fill="#F0F0F0"/>
<path d="M451.161 402.228H446.646V406.743H451.161V402.228Z" fill="#F0F0F0"/>
<path d="M451.161 409.808H446.646V414.324H451.161V409.808Z" fill="#F0F0F0"/>
<path d="M451.161 417.388H446.646V421.904H451.161V417.388Z" fill="#F0F0F0"/>
<path d="M451.161 424.968H446.646V429.484H451.161V424.968Z" fill="#F0F0F0"/>
<path d="M451.161 432.53H446.646V437.046H451.161V432.53Z" fill="#F0F0F0"/>
<path d="M451.161 440.11H446.646V444.626H451.161V440.11Z" fill="#F0F0F0"/>
<path d="M451.161 447.69H446.646V452.206H451.161V447.69Z" fill="#F0F0F0"/>
<path d="M451.161 462.851H446.646V467.366H451.161V462.851Z" fill="#F0F0F0"/>
<path d="M451.161 470.431H446.646V474.946H451.161V470.431Z" fill="#F0F0F0"/>
<path d="M451.161 478.011H446.646V482.526H451.161V478.011Z" fill="#F0F0F0"/>
<path d="M451.161 485.591H446.646V490.106H451.161V485.591Z" fill="#F0F0F0"/>
<path d="M451.161 493.171H446.646V497.686H451.161V493.171Z" fill="#F0F0F0"/>
<path d="M451.161 500.751H446.646V505.266H451.161V500.751Z" fill="#F0F0F0"/>
<path d="M451.161 508.313H446.646V512.828H451.161V508.313Z" fill="#F0F0F0"/>
<path d="M451.161 515.893H446.646V520.409H451.161V515.893Z" fill="#F0F0F0"/>
<path d="M443.998 371.908H439.483V376.423H443.998V371.908Z" fill="#F0F0F0"/>
<path d="M443.998 379.488H439.483V384.003H443.998V379.488Z" fill="#F0F0F0"/>
<path d="M443.998 387.068H439.483V391.583H443.998V387.068Z" fill="#F0F0F0"/>
<path d="M443.998 394.648H439.483V399.163H443.998V394.648Z" fill="#F0F0F0"/>
<path d="M443.998 402.228H439.483V406.743H443.998V402.228Z" fill="#F0F0F0"/>
<path d="M443.998 409.808H439.483V414.324H443.998V409.808Z" fill="#F0F0F0"/>
<path d="M443.998 417.388H439.483V421.904H443.998V417.388Z" fill="#F0F0F0"/>
<path d="M443.998 424.968H439.483V429.484H443.998V424.968Z" fill="#F0F0F0"/>
<path d="M443.998 432.53H439.483V437.046H443.998V432.53Z" fill="#F0F0F0"/>
<path d="M443.998 440.11H439.483V444.626H443.998V440.11Z" fill="#F0F0F0"/>
<path d="M443.998 447.69H439.483V452.206H443.998V447.69Z" fill="#F0F0F0"/>
<path d="M443.998 455.271H439.483V459.786H443.998V455.271Z" fill="#F0F0F0"/>
<path d="M443.998 462.851H439.483V467.366H443.998V462.851Z" fill="#F0F0F0"/>
<path d="M443.998 470.431H439.483V474.946H443.998V470.431Z" fill="#F0F0F0"/>
<path d="M443.998 478.011H439.483V482.526H443.998V478.011Z" fill="#F0F0F0"/>
<path d="M443.998 485.591H439.483V490.106H443.998V485.591Z" fill="#F0F0F0"/>
<path d="M443.998 493.171H439.483V497.686H443.998V493.171Z" fill="#F0F0F0"/>
<path d="M443.998 500.751H439.483V505.266H443.998V500.751Z" fill="#F0F0F0"/>
<path d="M443.998 508.313H439.483V512.828H443.998V508.313Z" fill="#F0F0F0"/>
<path d="M443.998 515.893H439.483V520.409H443.998V515.893Z" fill="#F0F0F0"/>
<path d="M486.541 401.43H482.026V405.946H486.541V401.43Z" fill="#F0F0F0"/>
<path d="M486.541 409.01H482.026V413.526H486.541V409.01Z" fill="#F0F0F0"/>
<path d="M486.541 416.59H482.026V421.106H486.541V416.59Z" fill="#F0F0F0"/>
<path d="M486.541 424.17H482.026V428.686H486.541V424.17Z" fill="#F0F0F0"/>
<path d="M486.541 431.732H482.026V436.248H486.541V431.732Z" fill="#F0F0F0"/>
<path d="M486.541 439.312H482.026V443.828H486.541V439.312Z" fill="#F0F0F0"/>
<path d="M486.541 446.893H482.026V451.408H486.541V446.893Z" fill="#F0F0F0"/>
<path d="M486.541 454.473H482.026V458.988H486.541V454.473Z" fill="#F0F0F0"/>
<path d="M486.541 462.053H482.026V466.568H486.541V462.053Z" fill="#F0F0F0"/>
<path d="M486.541 469.633H482.026V474.148H486.541V469.633Z" fill="#F0F0F0"/>
<path d="M479.36 401.43H474.845V405.946H479.36V401.43Z" fill="#F0F0F0"/>
<path d="M479.36 409.01H474.845V413.526H479.36V409.01Z" fill="#F0F0F0"/>
<path d="M479.36 416.59H474.845V421.106H479.36V416.59Z" fill="#F0F0F0"/>
<path d="M479.36 424.17H474.845V428.686H479.36V424.17Z" fill="#F0F0F0"/>
<path d="M479.36 431.732H474.845V436.248H479.36V431.732Z" fill="#F0F0F0"/>
<path d="M479.36 439.312H474.845V443.828H479.36V439.312Z" fill="#F0F0F0"/>
<path d="M479.36 446.893H474.845V451.408H479.36V446.893Z" fill="#F0F0F0"/>
<path d="M479.36 454.473H474.845V458.988H479.36V454.473Z" fill="#F0F0F0"/>
<path d="M479.36 462.053H474.845V466.568H479.36V462.053Z" fill="#F0F0F0"/>
<path d="M522.066 113.84H514.486V536.512H522.066V113.84Z" fill="#E1DCFF"/>
<path d="M664.8 113.84H657.22V536.512H664.8V113.84Z" fill="#E1DCFF"/>
<path d="M807.517 113.84H799.937V536.512H807.517V113.84Z" fill="#E1DCFF"/>
<path d="M322.807 593.743H260.081V503.38C260.081 498.974 263.654 495.383 268.078 495.383H314.828C319.235 495.383 322.825 498.956 322.825 503.38V593.743H322.807Z" fill="#F0F0F0"/>
<path d="M322.807 508.676H260.081V515.73H322.807V508.676Z" fill="#F8F7FF"/>
<path d="M311.365 581.829H295.733C293.357 581.829 291.435 583.751 291.435 586.127V593.743H315.662V586.127C315.681 583.751 313.74 581.829 311.365 581.829Z" fill="#E1DCFF"/>
<path d="M315.753 593.743H298.362C296.821 593.743 295.57 592.492 295.57 590.95C295.57 589.409 296.821 588.158 298.362 588.158H315.753C317.295 588.158 318.546 589.409 318.546 590.95C318.546 592.492 317.295 593.743 315.753 593.743Z" fill="#F8F7FF"/>
<path d="M175.775 469.27C172.511 463.903 167.143 468.563 167.143 468.563C167.905 458.263 158.439 451.227 158.439 451.227C158.439 451.227 169.446 451.227 170.988 440.727C172.529 430.227 167.143 435.106 162.102 435.033C157.061 434.96 151.784 449.704 158.439 457.973C165.094 466.26 163.299 480.405 147.957 494.005C144.203 497.324 141.665 501.749 139.942 506.518C141.102 494.024 141.755 476.415 138.074 464.664C131.836 444.699 143.732 439.331 147.177 429.339C150.641 419.347 138.074 410.914 138.074 410.914C138.074 410.914 149.879 405.547 144.113 399.399C138.346 393.252 126.45 394.086 126.45 402.119C126.45 410.153 134.52 413.218 134.52 413.218C134.52 413.218 143.732 422.811 143.732 427.816C143.732 432.802 134.52 443.556 134.52 443.556C134.52 443.556 138.745 434.362 130.295 433.963C121.844 433.564 119.16 444.699 122.624 449.704C126.087 454.69 131.836 450.465 131.836 450.465C131.836 450.465 132.507 461.219 134.484 467.747C135.354 470.612 134.937 481.874 134.212 493.588C132.507 489.363 130.113 485.482 126.74 482.49C111.381 468.89 109.603 454.745 116.259 446.458C122.914 438.17 117.637 423.445 112.596 423.518C107.554 423.59 102.168 418.694 103.71 429.212C105.251 439.73 116.259 439.712 116.259 439.712C116.259 439.712 106.774 446.766 107.554 457.048C107.554 457.048 102.186 452.369 98.9223 457.755C93.1012 467.348 106.593 473.296 108.878 468.581C108.878 468.581 137.512 488.855 130.603 518.033L132.217 520.409C132.017 522.766 131.872 524.181 131.872 524.181L134.121 523.22L136.678 526.973C136.551 534.263 137.331 539.649 137.331 539.649L144.185 529.549C137.276 500.371 165.91 480.097 165.91 480.097C168.104 484.811 181.596 478.863 175.775 469.27Z" fill="#E1DCFF"/>
<path opacity="0.2" d="M175.775 469.27C172.511 463.903 167.143 468.563 167.143 468.563C167.905 458.263 158.439 451.227 158.439 451.227C158.439 451.227 169.446 451.227 170.988 440.727C172.529 430.227 167.143 435.106 162.102 435.033C157.061 434.96 151.784 449.704 158.439 457.973C165.094 466.26 163.299 480.405 147.957 494.005C144.203 497.324 141.665 501.749 139.942 506.518C141.102 494.024 141.755 476.415 138.074 464.664C131.836 444.699 143.732 439.331 147.177 429.339C150.641 419.347 138.074 410.914 138.074 410.914C138.074 410.914 149.879 405.547 144.113 399.399C138.346 393.252 126.45 394.086 126.45 402.119C126.45 410.153 134.52 413.218 134.52 413.218C134.52 413.218 143.732 422.811 143.732 427.816C143.732 432.802 134.52 443.556 134.52 443.556C134.52 443.556 138.745 434.362 130.295 433.963C121.844 433.564 119.16 444.699 122.624 449.704C126.087 454.69 131.836 450.465 131.836 450.465C131.836 450.465 132.507 461.219 134.484 467.747C135.354 470.612 134.937 481.874 134.212 493.588C132.507 489.363 130.113 485.482 126.74 482.49C111.381 468.89 109.603 454.745 116.259 446.458C122.914 438.17 117.637 423.445 112.596 423.518C107.554 423.59 102.168 418.694 103.71 429.212C105.251 439.73 116.259 439.712 116.259 439.712C116.259 439.712 106.774 446.766 107.554 457.048C107.554 457.048 102.186 452.369 98.9223 457.755C93.1012 467.348 106.593 473.296 108.878 468.581C108.878 468.581 137.512 488.855 130.603 518.033L132.217 520.409C132.017 522.766 131.872 524.181 131.872 524.181L134.121 523.22L136.678 526.973C136.551 534.263 137.331 539.649 137.331 539.649L144.185 529.549C137.276 500.371 165.91 480.097 165.91 480.097C168.104 484.811 181.596 478.863 175.775 469.27Z" fill="#E1DCFF"/>
<path d="M170.172 593.744H104.58L97.4897 521.914H177.244L170.172 593.744Z" fill="#F8F7FF"/>
<path d="M180.744 513.989H93.9897V529.839H180.744V513.989Z" fill="#F0F0F0"/>
<path d="M453.355 675.855C647.541 675.855 804.96 666.665 804.96 655.327C804.96 643.99 647.541 634.799 453.355 634.799C259.17 634.799 101.751 643.99 101.751 655.327C101.751 666.665 259.17 675.855 453.355 675.855Z" fill="#F8F7FF"/>
<path d="M744.319 598.151C744.591 596.301 750.938 552.507 738.226 537.383C735.415 534.028 731.861 532.287 727.672 532.178C702.012 531.58 698.494 552.198 698.458 552.398L701.486 552.869C701.595 552.126 704.641 534.681 727.599 535.243C730.918 535.316 733.638 536.676 735.887 539.359C747.728 553.432 741.363 597.262 741.291 597.697L744.319 598.151Z" fill="#6B4EFF"/>
<path d="M745.86 596.156L748.925 596.065C748.907 595.666 747.909 555.716 767.585 547.465C786.88 539.377 795.548 556.006 795.91 556.714L798.649 555.335C798.54 555.136 788.367 535.424 766.406 544.636C744.79 553.703 745.806 594.433 745.86 596.156Z" fill="#6B4EFF"/>
<path d="M745.77 599.293C745.77 598.658 745.951 535.479 758.264 517C770.088 499.265 789.165 507.606 789.981 507.969L791.25 505.176C791.033 505.068 769.018 495.366 755.725 515.295C742.905 534.536 742.705 596.645 742.705 599.293H745.77Z" fill="#6B4EFF"/>
<path d="M723.99 533.719C723.99 533.719 735.197 537.854 731.861 547.61C728.524 557.366 693.09 573.415 693.09 573.415C693.09 573.415 678.256 559.814 691.875 537.691C705.512 515.549 723.682 526.738 723.99 533.719Z" fill="#6B4EFF"/>
<path d="M758.826 513.681C758.826 513.681 750.865 512.829 751.518 507.987C752.153 503.145 782.437 490.669 800.317 510.834C800.317 510.834 788.874 530.492 772.336 530.746C755.798 530.999 758.826 513.681 758.826 513.681Z" fill="#6B4EFF"/>
<path d="M767.005 546.051C767.005 546.051 761.51 541.626 767.44 539.45C773.37 537.292 802.439 537.909 802.747 566.706C802.747 566.706 768.891 572.327 764.702 561.356C760.495 550.403 767.005 546.051 767.005 546.051Z" fill="#6B4EFF"/>
<path opacity="0.2" d="M723.99 533.719C723.99 533.719 735.197 537.854 731.861 547.61C728.524 557.366 693.09 573.415 693.09 573.415C693.09 573.415 678.256 559.814 691.875 537.691C705.512 515.549 723.682 526.738 723.99 533.719Z" fill="black"/>
<path opacity="0.2" d="M758.826 513.681C758.826 513.681 750.865 512.829 751.518 507.987C752.153 503.145 782.437 490.669 800.317 510.834C800.317 510.834 788.874 530.492 772.336 530.746C755.798 530.999 758.826 513.681 758.826 513.681Z" fill="black"/>
<path opacity="0.2" d="M767.005 546.051C767.005 546.051 761.51 541.626 767.44 539.45C773.37 537.292 802.439 537.909 802.747 566.706C802.747 566.706 768.891 572.327 764.702 561.356C760.495 550.403 767.005 546.051 767.005 546.051Z" fill="black"/>
<path d="M717.97 656.833H770.523L776.181 599.293H712.312L717.97 656.833Z" fill="#6B4EFF"/>
<path opacity="0.5" d="M717.97 656.833H770.523L776.181 599.293H712.312L717.97 656.833Z" fill="white"/>
<path d="M709.501 605.651H778.992V592.957H709.501V605.651Z" fill="#6B4EFF"/>
<path opacity="0.2" d="M709.501 605.651H778.992V592.957H709.501V605.651Z" fill="white"/>
<path d="M658.49 615.596L606.245 610.464V537.038H585.536V610.445L533.073 615.596C527.869 616.103 523.897 620.492 523.897 625.714V633.567H593.859H597.704H667.666V625.714C667.666 620.474 663.712 616.103 658.49 615.596Z" fill="#455A64"/>
<path opacity="0.2" d="M658.49 615.596L606.245 610.464V537.038H585.536V610.445L533.073 615.596C527.869 616.103 523.897 620.492 523.897 625.714V633.567H593.859H597.704H667.666V625.714C667.666 620.474 663.712 616.103 658.49 615.596Z" fill="white"/>
<path d="M529.429 656.833C536.91 656.833 542.975 650.768 542.975 643.286C542.975 635.805 536.91 629.74 529.429 629.74C521.947 629.74 515.882 635.805 515.882 643.286C515.882 650.768 521.947 656.833 529.429 656.833Z" fill="#455A64"/>
<path d="M662.153 656.833C669.634 656.833 675.699 650.768 675.699 643.286C675.699 635.805 669.634 629.74 662.153 629.74C654.671 629.74 648.606 635.805 648.606 643.286C648.606 650.768 654.671 656.833 662.153 656.833Z" fill="#455A64"/>
<path d="M602.31 552.815H589.453C585.318 552.815 581.963 549.46 581.963 545.325V487.423H609.799V545.325C609.817 549.46 606.463 552.815 602.31 552.815Z" fill="#455A64"/>
<path opacity="0.3" d="M602.31 552.815H589.453C585.318 552.815 581.963 549.46 581.963 545.325V487.423H609.799V545.325C609.817 549.46 606.463 552.815 602.31 552.815Z" fill="white"/>
<path d="M645.397 372.633C645.397 372.633 649.35 470.558 622.076 487.405H653.194C653.194 487.405 677.313 454.038 670.494 372.633H645.397Z" fill="#455A64"/>
<path opacity="0.3" d="M645.397 372.633C645.397 372.633 649.35 470.558 622.076 487.405H653.194C653.194 487.405 677.313 454.038 670.494 372.633H645.397Z" fill="white"/>
<path d="M533.382 473.713H654.736C659.741 473.713 663.803 477.775 663.803 482.78V494.912H524.315V482.78C524.315 477.775 528.377 473.713 533.382 473.713Z" fill="#455A64"/>
<path d="M522.157 484.304H665.979C667.992 484.304 669.624 485.936 669.624 487.949V491.249C669.624 493.262 667.992 494.894 665.979 494.894H522.157C520.144 494.894 518.512 493.262 518.512 491.249V487.967C518.512 485.936 520.144 484.304 522.157 484.304Z" fill="#455A64"/>
<path opacity="0.6" d="M522.157 484.304H665.979C667.992 484.304 669.624 485.936 669.624 487.949V491.249C669.624 493.262 667.992 494.894 665.979 494.894H522.157C520.144 494.894 518.512 493.262 518.512 491.249V487.967C518.512 485.936 520.144 484.304 522.157 484.304Z" fill="white"/>
<path d="M678.129 392.526H628.278C613.68 392.526 601.838 380.685 601.838 366.087V346.592C601.838 331.994 613.68 320.153 628.278 320.153H678.129C692.727 320.153 704.569 331.994 704.569 346.592V366.087C704.587 380.685 692.745 392.526 678.129 392.526Z" fill="#455A64"/>
<path d="M477.021 240.126L467.065 213.886C467.065 213.886 471.327 209.933 468.407 205.925C465.487 201.918 447.118 190.638 443.763 192.633C440.408 194.609 432.991 202.081 436.999 206.233C441.024 210.386 458.814 217.295 458.814 217.295L467.609 251.732L477.021 240.126Z" fill="#FFBE9D"/>
<path d="M546.529 290.014C546.529 290.014 501.248 280.711 496.334 278.48C491.419 276.25 473.194 222.881 473.194 222.881L459.231 229.409C459.231 229.409 470.474 282.978 481.971 295.726C493.468 308.456 542.521 319.246 542.521 319.246L546.529 290.014Z" fill="#6B4EFF"/>
<path opacity="0.2" d="M542.521 319.21C542.521 319.21 542.231 319.156 541.687 319.01C539.203 318.448 531.478 316.635 522.284 313.933C507.359 309.599 488.536 302.962 481.971 295.69C470.492 282.942 459.231 229.373 459.231 229.373L473.194 222.845C473.194 222.845 491.419 276.232 496.352 278.444C501.266 280.657 546.529 289.959 546.529 289.959L542.521 319.21Z" fill="black"/>
<path d="M473.43 221.829L476.313 227.396L458.36 233.58L459.049 226.78L473.43 221.829Z" fill="#6B4EFF"/>
<path opacity="0.2" d="M542.866 318.485C540.345 318.122 532.493 316.907 523.118 314.93C528.467 305.7 544.135 300.949 544.135 300.949L542.866 318.485Z" fill="black"/>
<path d="M610.362 253.056C610.362 253.056 613.027 278.136 603.725 284.302C594.44 290.467 548.723 283.25 543.537 273.149C538.351 263.066 557.863 235.666 557.863 235.666L610.362 253.056Z" fill="#455A64"/>
<path d="M425.411 583.063L437.343 585.946L443.382 569.48L448.858 554.501L435.276 548.716L430.053 566.887L425.411 583.063Z" fill="#FFBE9D"/>
<path opacity="0.2" d="M430.053 566.887L443.382 569.48L448.858 554.501L435.276 548.716L430.053 566.887Z" fill="black"/>
<path d="M431.25 558.201L447.788 564.348C447.788 564.348 491.909 454.038 500.976 453.657C510.043 453.276 602.364 495.71 625.504 472.172C648.643 448.652 615.185 391.946 615.185 391.946C615.185 391.946 559.531 384.003 555.342 396.57C554.526 399 553.638 403.77 552.985 407.85C552.35 411.694 551.915 414.922 551.915 414.922C551.915 414.922 551.897 414.922 551.879 414.904C550.156 414.469 494.285 400.052 472.27 414.922C449.91 430.046 431.25 558.201 431.25 558.201Z" fill="#6B4EFF"/>
<path opacity="0.6" d="M431.25 558.201L447.788 564.348C447.788 564.348 491.909 454.038 500.976 453.657C510.043 453.276 602.364 495.71 625.504 472.172C648.643 448.652 615.185 391.946 615.185 391.946C615.185 391.946 559.531 384.003 555.342 396.57C554.526 399 553.638 403.77 552.985 407.85C552.35 411.694 551.915 414.922 551.915 414.922C551.915 414.922 551.897 414.922 551.879 414.904C550.156 414.469 494.285 400.052 472.27 414.922C449.91 430.046 431.25 558.201 431.25 558.201Z" fill="white"/>
<path d="M526.382 630.121L538.26 627.074L535.975 610.028L533.853 594.396L519.165 595.72L522.973 613.927L526.382 630.121Z" fill="#FFBE9D"/>
<path opacity="0.2" d="M523.063 614.308L536.047 610.354L533.889 594.56L519.183 595.793L523.063 614.308Z" fill="black"/>
<path d="M454.625 558.219L430.525 550.04L429.509 559.905L447.77 566.361L454.625 558.219Z" fill="#6B4EFF"/>
<path d="M585.536 477.83C585.536 477.83 581.764 477.92 523.39 475.2C523.39 475.2 532.113 548.19 536.882 602.811L519.419 605.785C519.419 605.785 477.71 488.801 478.163 470.213C478.617 451.626 499.924 446.186 499.924 446.186C499.924 446.186 541.506 470.213 585.536 477.83Z" fill="#6B4EFF"/>
<path opacity="0.6" d="M585.536 477.83C585.536 477.83 581.764 477.92 523.39 475.2C523.39 475.2 532.113 548.19 536.882 602.811L519.419 605.785C519.419 605.785 477.71 488.801 478.163 470.213C478.617 451.626 499.924 446.186 499.924 446.186C499.924 446.186 541.506 470.213 585.536 477.83Z" fill="white"/>
<path opacity="0.1" d="M585.536 477.83C585.536 477.83 581.764 477.92 523.39 475.2C523.39 475.2 532.113 548.19 536.882 602.811L519.419 605.785C519.419 605.785 477.71 488.801 478.163 470.213C478.617 451.626 499.924 446.186 499.924 446.186C499.924 446.186 541.506 470.213 585.536 477.83Z" fill="black"/>
<path d="M539.421 597.516L515.429 600.236L520.072 609.647L539.493 607.163L539.421 597.516Z" fill="#6B4EFF"/>
<path opacity="0.1" d="M551.915 414.922L584.466 421.704C584.466 421.704 566.477 411.767 552.985 407.85C552.35 411.694 551.915 414.922 551.915 414.922Z" fill="black"/>
<path d="M613.843 383.278L615.185 391.946L555.342 396.552L553.747 386.324L613.843 383.278Z" fill="#455A64"/>
<path opacity="0.2" d="M613.843 383.278L615.185 391.946L555.342 396.552L553.747 386.324L613.843 383.278Z" fill="black"/>
<path d="M594.938 397.789L597.897 397.484L596.348 382.421L593.389 382.725L594.938 397.789Z" fill="#6B4EFF"/>
<path d="M568.445 396.248L581.546 395.406L580.908 385.471L567.807 386.313L568.445 396.248Z" fill="white"/>
<path d="M558.272 399.395L561.23 399.091L559.681 384.029L556.723 384.333L558.272 399.395Z" fill="#6B4EFF"/>
<path opacity="0.6" d="M594.938 397.789L597.897 397.484L596.348 382.421L593.389 382.725L594.938 397.789Z" fill="white"/>
<path opacity="0.6" d="M558.272 399.395L561.23 399.091L559.681 384.029L556.723 384.333L558.272 399.395Z" fill="white"/>
<path d="M545.441 289.179C545.441 289.179 560.71 293.967 579.914 292.987C599.118 292.008 622.076 301.329 622.076 301.329L613.825 383.278L553.746 386.306C553.746 386.324 533.563 317.886 545.441 289.179Z" fill="#6B4EFF"/>
<path d="M555.106 242.901C555.106 242.901 558.479 203.096 591.756 217.568C633.519 235.72 600.315 284.193 579.914 274.237C559.495 264.281 555.106 242.901 555.106 242.901Z" fill="#455A64"/>
<path opacity="0.2" d="M564.428 295.218L565.389 317.705L572.842 307.132C572.842 307.132 570.176 332.012 571.736 345.541C571.736 345.541 573.168 321.259 576.541 307.132L584.466 317.705L595.836 295.363C595.854 295.345 577.43 288.744 564.428 295.218Z" fill="black"/>
<path d="M574.728 299.389L591.937 294.529C581.329 287.239 586.678 270.918 586.678 270.918L569.632 276.903C570.539 279.732 571.119 282.125 571.463 284.193C573.241 294.819 568.435 295.672 568.435 295.672L574.728 299.389Z" fill="#FFBE9D"/>
<path opacity="0.2" d="M569.632 276.921C570.539 279.75 571.119 282.143 571.464 284.211C579.624 280.947 586.678 270.937 586.678 270.937L569.632 276.921Z" fill="black"/>
<path d="M580.767 225.927C565.679 222.591 559.024 229.591 554.472 244.896C548.796 264.027 550.047 278.789 569.832 278.807C596.707 278.843 605.828 231.476 580.767 225.927Z" fill="#FFBE9D"/>
<path d="M564.409 246.219C564.409 246.219 561.453 249.701 558.625 251.514C558.625 251.514 559.459 253.854 562.233 254.108L564.409 246.219Z" fill="#EB996E"/>
<path d="M573.93 247.017C573.622 248.251 574.039 249.411 574.873 249.611C575.689 249.81 576.614 248.976 576.904 247.743C577.212 246.51 576.795 245.349 575.961 245.15C575.145 244.95 574.238 245.784 573.93 247.017Z" fill="#455A64"/>
<path d="M576.287 245.294L573.857 243.59C573.876 243.59 574.655 246.165 576.287 245.294Z" fill="#455A64"/>
<path d="M558.661 242.992C558.353 244.225 558.77 245.385 559.604 245.585C560.42 245.784 561.345 244.95 561.635 243.717C561.943 242.484 561.526 241.323 560.692 241.124C559.876 240.924 558.969 241.758 558.661 242.992Z" fill="#455A64"/>
<path d="M561.018 241.269L558.588 239.564C558.607 239.564 559.386 242.139 561.018 241.269Z" fill="#455A64"/>
<path d="M576.378 236.626C576.378 236.626 580.748 237.007 582.417 240.362" stroke="#455A64" stroke-width="0.7247" stroke-miterlimit="10" stroke-linecap="round" stroke-linejoin="round"/>
<path d="M565.552 233.562C565.552 233.562 563.104 231.984 559.259 233.471" stroke="#455A64" stroke-width="0.7247" stroke-miterlimit="10" stroke-linecap="round" stroke-linejoin="round"/>
<path d="M591.629 255.015C591.629 255.015 587.313 241.051 590.504 231.712C590.504 231.712 563.303 212.871 555.106 242.901C555.106 242.901 558.153 215.301 584.23 220.433C610.271 225.565 601.802 263.501 585.898 271.843C585.88 271.861 594.276 263.737 591.629 255.015Z" fill="#455A64"/>
<path d="M588.455 257.644C589.09 255.232 592.517 251.678 596.924 253.165C601.494 254.706 601.584 264.807 589.453 264.535C587.694 264.517 587.113 262.667 588.455 257.644Z" fill="#FFBE9D"/>
<path d="M559.531 259.82C560.057 261.815 560.311 265.424 560.311 265.424C560.637 265.46 560.982 265.496 561.308 265.514C565.806 265.895 568.036 264.589 569.124 263.012C569.723 262.159 569.958 261.198 570.067 260.419C570.194 259.512 570.067 258.841 570.067 258.841C567.565 260.056 563.321 260.038 561.073 259.911C560.13 259.893 559.531 259.82 559.531 259.82Z" fill="#455A64"/>
<path d="M561.073 259.929L561.345 261.579C565.588 261.924 568.635 261.615 570.067 260.437C570.194 259.53 570.067 258.859 570.067 258.859C567.565 260.074 563.34 260.038 561.073 259.929Z" fill="white"/>
<path d="M561.309 265.514C565.806 265.895 568.036 264.59 569.124 263.012C567.583 262.939 565.715 263.03 564.029 263.574C562.759 264.009 561.907 264.753 561.309 265.514Z" fill="#EB996E"/>
<path d="M580.821 227.124C580.821 227.124 581.401 253.31 597.105 256.447C612.81 259.584 595.637 222.808 595.637 222.808C595.637 222.808 572.243 207.539 556.666 218.293C541.071 229.064 555.088 242.901 555.088 242.901C555.088 242.901 558.389 223.461 580.821 227.124Z" fill="#455A64"/>
<path d="M581.365 225.401C581.365 225.401 575.762 241.958 586.823 250.644" stroke="#455A64" stroke-width="0.5" stroke-miterlimit="10" stroke-linecap="round" stroke-linejoin="round"/>
<path d="M601.693 261.833C599.698 267.165 594.567 270.157 590.232 268.525C585.898 266.893 584.012 261.271 586.007 255.94C588.002 250.608 593.134 247.616 597.468 249.248C601.802 250.88 603.688 256.52 601.693 261.833Z" fill="#6B4EFF"/>
<path opacity="0.4" d="M601.693 261.833C599.698 267.165 594.567 270.157 590.232 268.525C585.898 266.893 584.012 261.271 586.007 255.94C588.002 250.608 593.134 247.616 597.468 249.248C601.802 250.88 603.688 256.52 601.693 261.833Z" fill="black"/>
<path d="M596.688 253.111C596.688 253.111 603.198 223.969 588.6 216.334C588.6 216.334 591.647 216.752 593.533 217.296C595.419 217.84 607.079 229.663 601.185 255.849L596.688 253.111Z" fill="#6B4EFF"/>
<path opacity="0.2" d="M596.688 253.111C596.688 253.111 603.198 223.969 588.6 216.334C588.6 216.334 591.647 216.752 593.533 217.296C595.419 217.84 607.079 229.663 601.185 255.849L596.688 253.111Z" fill="black"/>
<path d="M569.323 269.794C568.961 269.74 568.598 269.685 568.235 269.631L568.526 267.836C581.673 269.975 591.447 263.03 591.538 262.958L592.608 264.426C592.209 264.717 582.688 271.553 569.323 269.794Z" fill="#6B4EFF"/>
<g opacity="0.2">
<path d="M569.323 269.794C568.961 269.74 568.598 269.685 568.235 269.631L568.526 267.836C581.673 269.975 591.447 263.03 591.538 262.958L592.608 264.426C592.209 264.717 582.688 271.553 569.323 269.794Z" fill="black"/>
</g>
<path d="M601.077 261.108C599.753 264.626 596.362 266.602 593.496 265.533C590.631 264.463 589.38 260.727 590.704 257.209C592.028 253.691 595.419 251.714 598.284 252.784C601.149 253.872 602.4 257.59 601.077 261.108Z" fill="#6B4EFF"/>
<path d="M567.71 270.374L566.259 270.175C565.171 270.03 564.409 269.051 564.554 267.963C564.699 266.874 565.679 266.113 566.767 266.258L568.217 266.457C569.305 266.603 570.067 267.582 569.922 268.67C569.777 269.758 568.78 270.519 567.71 270.374Z" fill="#6B4EFF"/>
<path opacity="0.4" d="M567.71 270.374L566.259 270.175C565.171 270.03 564.409 269.051 564.554 267.963C564.699 266.874 565.679 266.113 566.767 266.258L568.217 266.457C569.305 266.603 570.067 267.582 569.922 268.67C569.777 269.758 568.78 270.519 567.71 270.374Z" fill="black"/>
<path d="M587.313 288.309L576.541 298.881L580.857 311.847L595.854 295.345L587.313 288.309Z" fill="#6B4EFF"/>
<path d="M571.736 290.521L573.477 298.664L567.91 310.179L564.428 295.218L571.736 290.521Z" fill="#6B4EFF"/>
<path d="M585.01 297.485L591.266 274.582C591.266 274.582 588.238 268.869 588.89 267.691C589.543 266.494 592.807 251.116 595.129 249.448C597.45 247.779 606.988 250.626 607.968 252.186C608.929 253.745 598.828 274.582 598.828 274.582L595.147 299.389L585.01 297.485Z" fill="#FFBE9D"/>
<path d="M622.076 301.329C639.286 318.956 604.776 358.887 585.01 357.183C565.244 355.478 585.5 283.086 585.5 283.086L598.157 285.172C598.157 285.172 593.714 316.508 595.111 318.956C596.525 321.404 616.291 295.4 622.076 301.329Z" fill="#6B4EFF"/>
<path opacity="0.2" d="M622.076 301.329C639.286 318.956 604.776 358.887 585.01 357.183C565.244 355.478 585.5 283.086 585.5 283.086L598.157 285.172C598.157 285.172 593.714 316.508 595.111 318.956C596.525 321.404 616.291 295.4 622.076 301.329Z" fill="black"/>
<path d="M584.466 280.765L582.598 286.749L600.243 288.309V283.086L584.466 280.765Z" fill="#6B4EFF"/>
<path opacity="0.6" d="M557.736 344.47H550.591C549.793 344.47 549.159 343.836 549.159 343.038V329.546C549.159 328.748 549.793 328.113 550.591 328.113H557.736C558.534 328.113 559.169 328.748 559.169 329.546V343.038C559.169 343.836 558.516 344.47 557.736 344.47Z" fill="white"/>
<path opacity="0.2" d="M557.863 329.184H549.739V340.3H557.863V329.184Z" fill="black"/>
<path d="M554.889 324.16H553.094V330.707H554.889V324.16Z" fill="#455A64"/>
<path d="M405.681 606.238C407.494 605.404 409.453 604.914 411.429 604.769C411.429 604.769 418.32 600.707 425.139 584.966L432.809 584.93C435.475 584.966 437.814 586.653 438.703 589.155C438.83 589.5 438.903 589.863 438.921 590.225C438.848 592.075 438.649 593.925 438.322 595.756C437.633 601.505 433.843 613.818 433.843 613.818L432.537 613.492L434.895 602.031C435.675 598.132 431.594 601.904 429.69 605.821C427.786 609.738 424.885 613.691 416.398 611.751C406.551 609.43 402.58 608.015 405.681 606.238Z" fill="#6B4EFF"/>
<path d="M426.535 580.832C426.535 580.832 416.942 600.889 411.429 604.769C411.429 604.769 418.828 609.176 426.535 599.365C436.491 586.671 438.939 590.208 438.939 590.208C438.939 590.208 438.522 585.855 437.742 583.734C436.237 579.635 426.535 580.832 426.535 580.832Z" fill="#FFBE9D"/>
<path d="M511.258 654.022C512.818 652.789 514.595 651.846 516.499 651.229C516.499 651.229 522.229 645.662 525.131 628.743L532.584 626.875C535.177 626.277 537.861 627.346 539.312 629.577C539.511 629.885 539.675 630.212 539.783 630.556C540.146 632.37 540.4 634.219 540.527 636.069C541.216 641.818 540.454 654.675 540.454 654.675L539.112 654.657L538.695 642.96C538.532 638.989 535.449 643.613 534.543 647.874C533.636 652.136 531.75 656.67 523.046 656.796C512.872 656.923 508.665 656.47 511.258 654.022Z" fill="#6B4EFF"/>
<path d="M525.494 624.408C525.494 624.408 520.942 646.169 516.499 651.229C516.499 651.229 524.732 653.768 529.882 642.398C536.555 627.691 539.765 630.574 539.765 630.574C539.765 630.574 538.333 626.458 537.063 624.572C534.633 620.927 525.494 624.408 525.494 624.408Z" fill="#FFBE9D"/>
<path d="M694.105 230.95H630.78C625.703 230.95 621.586 226.834 621.586 221.756V194.664C621.586 189.586 625.703 185.47 630.78 185.47H694.105C699.183 185.47 703.299 189.586 703.299 194.664V221.756C703.299 226.834 699.183 230.95 694.105 230.95Z" fill="#6B4EFF"/>
<path d="M643.493 225.764L624.416 251.696L655.189 227.505L643.493 225.764Z" fill="#6B4EFF"/>
<path d="M644.2 208.21C644.2 209.679 643.003 210.894 641.516 210.894C640.047 210.894 638.832 209.697 638.832 208.21C638.832 206.741 640.029 205.526 641.516 205.526C643.003 205.545 644.2 206.741 644.2 208.21Z" fill="white"/>
<path d="M658.145 208.21C658.145 209.679 656.948 210.894 655.461 210.894C653.974 210.894 652.777 209.697 652.777 208.21C652.777 206.741 653.974 205.526 655.461 205.526C656.948 205.526 658.145 206.741 658.145 208.21Z" fill="white"/>
<path d="M672.09 208.21C672.09 209.679 670.894 210.894 669.407 210.894C667.938 210.894 666.723 209.697 666.723 208.21C666.723 206.741 667.92 205.526 669.407 205.526C670.894 205.545 672.09 206.741 672.09 208.21Z" fill="white"/>
<path d="M686.035 208.21C686.035 209.679 684.838 210.894 683.351 210.894C681.882 210.894 680.667 209.697 680.667 208.21C680.667 206.741 681.864 205.526 683.351 205.526C684.838 205.545 686.035 206.741 686.035 208.21Z" fill="white"/>
<path d="M439.628 195.19L394.473 170.872C393.258 170.219 392.787 168.696 393.458 167.463L407.856 140.733C408.509 139.518 410.033 139.046 411.266 139.717L456.42 164.035C457.635 164.688 458.106 166.211 457.435 167.444L443.037 194.174C442.366 195.389 440.843 195.843 439.628 195.19Z" fill="#6B4EFF"/>
<path opacity="0.7" d="M439.628 195.19L394.473 170.872C393.258 170.219 392.787 168.696 393.458 167.463L407.856 140.733C408.509 139.518 410.033 139.046 411.266 139.717L456.42 164.035C457.635 164.688 458.106 166.211 457.435 167.444L443.037 194.174C442.366 195.389 440.843 195.843 439.628 195.19Z" fill="white"/>
<path opacity="0.2" d="M406.66 142.945L420.786 169.33C421.892 171.379 424.123 172.576 426.426 172.34L455.822 169.439L425.882 173.846C423.198 174.244 420.569 172.83 419.426 170.364L406.66 142.945Z" fill="black"/>
<path d="M372.368 138.031C372.839 127.948 380.311 107.62 389.396 101.4C398.481 95.1796 392.497 103.793 392.497 103.793C392.497 103.793 401.111 95.4154 405.644 95.6692C410.196 95.905 405.644 101.164 405.644 101.164C405.644 101.164 414.965 95.4154 419.281 95.6511C423.579 95.8868 419.281 100.91 419.281 100.91C419.281 100.91 426.934 95.4154 430.035 98.0448C433.136 100.674 390.339 128.891 385.552 140.37C380.8 151.849 371.878 148.24 372.368 138.031Z" fill="#6B4EFF"/>
<path opacity="0.4" d="M372.368 138.031C372.839 127.948 380.311 107.62 389.396 101.4C398.481 95.1796 392.497 103.793 392.497 103.793C392.497 103.793 401.111 95.4154 405.644 95.6692C410.196 95.905 405.644 101.164 405.644 101.164C405.644 101.164 414.965 95.4154 419.281 95.6511C423.579 95.8868 419.281 100.91 419.281 100.91C419.281 100.91 426.934 95.4154 430.035 98.0448C433.136 100.674 390.339 128.891 385.552 140.37C380.8 151.849 371.878 148.24 372.368 138.031Z" fill="white"/>
<path d="M409.144 136.544L414.856 140.207C415.273 140.479 415.056 141.114 414.566 141.077L408.564 140.606L409.072 145.212C409.126 145.72 408.509 145.992 408.165 145.611L404.701 141.694L409.144 136.544Z" fill="#6B4EFF"/>
<path opacity="0.3" d="M409.144 136.544L414.856 140.207C415.273 140.479 415.056 141.114 414.566 141.077L408.564 140.606L409.072 145.212C409.126 145.72 408.509 145.992 408.165 145.611L404.701 141.694L409.144 136.544Z" fill="white"/>
<path d="M328.9 113.84C328.9 113.84 336.789 108.345 348.757 111.918C348.757 111.918 352.203 127.694 361.596 132.953C366.765 135.837 379.404 135.601 389.414 132.355C401.292 128.51 407.113 128.51 409.271 132.953C411.302 137.16 409.036 142.039 399.95 144.196C390.865 146.354 383.684 162.131 367.182 162.367C350.68 162.603 341.993 146.064 346.146 131.521C346.128 131.521 341.105 120.676 328.9 113.84Z" fill="#6B4EFF"/>
<path opacity="0.5" d="M328.9 113.84C328.9 113.84 336.789 108.345 348.757 111.918C348.757 111.918 352.203 127.694 361.596 132.953C366.765 135.837 379.404 135.601 389.414 132.355C401.292 128.51 407.113 128.51 409.271 132.953C411.302 137.16 409.036 142.039 399.95 144.196C390.865 146.354 383.684 162.131 367.182 162.367C350.68 162.603 341.993 146.064 346.146 131.521C346.128 131.521 341.105 120.676 328.9 113.84Z" fill="white"/>
<path d="M404.719 135.945C404.719 136.399 404.357 136.743 403.922 136.743C403.468 136.743 403.105 136.381 403.105 135.945C403.105 135.492 403.468 135.129 403.922 135.129C404.357 135.148 404.719 135.51 404.719 135.945Z" fill="#455A64"/>
<path d="M363.337 149.238C353.599 151.904 331.947 151.069 323.224 144.342C314.502 137.614 324.548 140.642 324.548 140.642C324.548 140.642 313.921 135.039 312.761 130.65C311.582 126.262 317.983 128.946 317.983 128.946C317.983 128.946 309.642 121.855 308.536 117.684C307.447 113.514 313.541 116.052 313.541 116.052C313.541 116.052 305.942 110.467 307.484 106.695C309.025 102.923 349.084 134.93 361.469 135.946C373.891 136.943 373.202 146.536 363.337 149.238Z" fill="#6B4EFF"/>
<path opacity="0.4" d="M363.337 149.238C353.599 151.904 331.947 151.069 323.224 144.342C314.502 137.614 324.548 140.642 324.548 140.642C324.548 140.642 313.921 135.039 312.761 130.65C311.582 126.262 317.983 128.946 317.983 128.946C317.983 128.946 309.642 121.855 308.536 117.684C307.447 113.514 313.541 116.052 313.541 116.052C313.541 116.052 305.942 110.467 307.484 106.695C309.025 102.923 349.084 134.93 361.469 135.946C373.891 136.943 373.202 146.536 363.337 149.238Z" fill="white"/>
<path d="M299.505 104.446C297.8 103.847 296.077 103.267 294.336 102.741" stroke="#6B4EFF" stroke-width="0.75" stroke-linecap="round" stroke-linejoin="round"/>
<path d="M283.746 100.039C277.399 98.7155 270.925 97.8451 264.506 97.3917C246.879 96.1586 219.225 94.4177 208.435 111.99C198.588 128.002 215.525 155.312 221.528 170.182C228.89 188.389 237.649 210.894 228.945 230.17C211.064 269.776 134.556 249.211 108.751 212.725" stroke="#6B4EFF" stroke-width="0.75" stroke-linecap="round" stroke-linejoin="round" stroke-dasharray="6.03 6.03"/>
<path d="M105.831 208.137C104.925 206.542 104.109 204.909 103.419 203.259" stroke="#6B4EFF" stroke-width="0.75" stroke-linecap="round" stroke-linejoin="round"/>
<path d="M326.071 352.124H257.234V366.232H326.071V352.124Z" fill="white"/>
<path opacity="0.1" d="M326.071 352.124H257.234V366.232H326.071V352.124Z" fill="black"/>
<path opacity="0.1" d="M286.23 352.124H257.234V366.232H286.23V352.124Z" fill="black"/>
<path opacity="0.1" d="M257.234 354.155H318.509L257.234 355.896V354.155Z" fill="black"/>
<path opacity="0.1" d="M326.071 356.603L272.956 357.926H326.071V356.603Z" fill="black"/>
<path opacity="0.1" d="M260.044 360.556L286.23 359.468L324.729 360.556L286.23 361.154L260.044 360.556Z" fill="black"/>
<path opacity="0.1" d="M257.234 363.548H302.606L257.234 364.618V363.548Z" fill="black"/>
<path opacity="0.1" d="M325.962 364.618L295.678 365.18H326.071L325.962 364.618Z" fill="black"/>
<path d="M316.497 337.997H247.659V352.105H316.497V337.997Z" fill="white"/>
<path opacity="0.1" d="M316.497 337.997H247.659V352.105H316.497V337.997Z" fill="black"/>
<path opacity="0.1" d="M276.656 337.997H247.659V352.105H276.656V337.997Z" fill="black"/>
<path opacity="0.1" d="M247.659 340.046H308.935L247.659 341.769V340.046Z" fill="black"/>
<path opacity="0.1" d="M316.496 342.494L263.381 343.8H316.496V342.494Z" fill="black"/>
<path opacity="0.1" d="M250.452 346.429L276.637 345.359L315.136 346.429L276.637 347.028L250.452 346.429Z" fill="black"/>
<path opacity="0.1" d="M247.659 349.422H293.031L247.659 350.492V349.422Z" fill="black"/>
<path opacity="0.1" d="M316.388 350.492L286.085 351.054H316.497L316.388 350.492Z" fill="black"/>
<path d="M324.349 323.889H255.511V337.997H324.349V323.889Z" fill="white"/>
<path opacity="0.1" d="M324.349 323.889H255.511V337.997H324.349V323.889Z" fill="black"/>
<path opacity="0.1" d="M284.508 323.889H255.511V337.997H284.508V323.889Z" fill="black"/>
<path opacity="0.1" d="M255.511 325.92H316.787L255.511 327.661V325.92Z" fill="black"/>
<path opacity="0.1" d="M324.349 328.368L271.233 329.691H324.349V328.368Z" fill="black"/>
<path opacity="0.1" d="M258.322 332.321L284.508 331.233L323.007 332.321L284.508 332.919L258.322 332.321Z" fill="black"/>
<path opacity="0.1" d="M255.511 335.313H300.883L255.511 336.383V335.313Z" fill="black"/>
<path opacity="0.1" d="M324.258 336.383L293.956 336.945H324.349L324.258 336.383Z" fill="black"/>
<path d="M370.21 365.942L371.988 359.178H445.522L479.397 362.569L480.684 365.942H370.21Z" fill="#455A64"/>
<path opacity="0.4" d="M445.522 359.178V365.942H370.21L371.988 359.178H445.522Z" fill="black"/>
<path d="M430.76 326.808C431.087 330.381 428.475 333.282 424.921 333.282H312.271C308.699 333.282 305.544 330.381 305.217 326.808L298.526 254.688C298.453 253.945 298.508 253.238 298.671 252.585C299.305 250.046 301.536 248.214 304.365 248.214H417.015C420.587 248.214 423.742 251.116 424.069 254.688L430.76 326.808Z" fill="#455A64"/>
<path opacity="0.4" d="M424.522 333.282H312.271C308.699 333.282 305.544 330.38 305.217 326.808L298.526 254.688C298.453 253.945 298.508 253.237 298.671 252.584H410.922C414.476 252.584 417.631 255.486 417.976 259.058L424.667 331.178C424.74 331.922 424.685 332.629 424.522 333.282Z" fill="black"/>
<path d="M347.125 289.035H370.428L364.226 355.769L401.074 361.299V365.942H323.46V361.299L339.364 355.769L347.125 289.035Z" fill="#455A64"/>
<path opacity="0.1" d="M370.428 289.035L353.164 364.89L339.364 364.473L347.125 289.035H370.428Z" fill="white"/>
<path d="M370.319 656.833H359.221L339.255 378.926H353.998L370.319 656.833Z" fill="#455A64"/>
<path opacity="0.4" d="M370.337 656.832H359.221L340.235 392.726L339.255 379.379H353.998L354.796 392.726L370.337 656.832Z" fill="white"/>
<path opacity="0.2" d="M354.796 392.073H340.235L339.255 379.379H353.998L354.796 392.073Z" fill="black"/>
<path d="M451.851 656.833H440.752L438.939 378.926H453.664L451.851 656.833Z" fill="#455A64"/>
<path opacity="0.5" d="M453.682 379.379L453.392 424.207L451.869 656.832H440.752L439.229 424.207L438.939 379.379H453.682Z" fill="white"/>
<path opacity="0.2" d="M453.682 379.379L453.392 424.714H439.229L438.939 379.379H453.682Z" fill="black"/>
<path d="M569.795 656.833H558.697L538.731 378.926H553.475L569.795 656.833Z" fill="#455A64"/>
<path opacity="0.5" d="M569.814 656.832H558.697L539.711 392.726L538.731 379.379H553.475L554.272 392.726L569.814 656.832Z" fill="white"/>
<path opacity="0.2" d="M554.272 392.073H539.711L538.731 379.379H553.475L554.272 392.073Z" fill="black"/>
<path d="M243.234 656.833H232.136L248.457 378.926H263.2L243.234 656.833Z" fill="#455A64"/>
<path opacity="0.5" d="M263.2 379.379L262.221 392.726L243.234 656.832H232.136L247.659 392.726L248.457 379.379H263.2Z" fill="white"/>
<path opacity="0.2" d="M248.457 379.379H263.2L262.221 392.073H247.659L248.457 379.379Z" fill="black"/>
<path d="M561.236 385.889H240.696C238.538 385.889 236.779 384.13 236.779 381.972V371.98H565.153V381.972C565.153 384.13 563.394 385.889 561.236 385.889Z" fill="#6B4EFF"/>
<path opacity="0.6" d="M561.236 385.889H240.696C238.538 385.889 236.779 384.13 236.779 381.972V371.98H565.153V381.972C565.153 384.13 563.394 385.889 561.236 385.889Z" fill="white"/>
<path opacity="0.2" d="M565.153 371.962H236.779V378.926H565.153V371.962Z" fill="black"/>
<path d="M572.044 373.794H229.888C227.73 373.794 225.971 372.035 225.971 369.877C225.971 367.719 227.73 365.96 229.888 365.96H572.044C574.202 365.96 575.961 367.719 575.961 369.877C575.961 372.035 574.202 373.794 572.044 373.794Z" fill="#6B4EFF"/>
<path opacity="0.6" d="M572.044 373.794H229.888C227.73 373.794 225.971 372.035 225.971 369.877C225.971 367.719 227.73 365.96 229.888 365.96H572.044C574.202 365.96 575.961 367.719 575.961 369.877C575.961 372.035 574.202 373.794 572.044 373.794Z" fill="white"/>
<path d="M491.093 353.864L495.3 347.553C496.134 346.302 497.549 345.541 499.072 345.541H504.403C504.857 345.541 505.292 345.613 505.709 345.74L524.732 351.507C525.82 351.833 526.727 352.558 527.307 353.52L530.027 358.108L491.093 353.864Z" fill="#6B4EFF"/>
<path opacity="0.2" d="M530.045 358.108L502.354 355.097L491.093 353.864L495.3 347.553C496.134 346.302 497.549 345.541 499.072 345.541H504.403C504.857 345.541 505.292 345.613 505.727 345.74L506.144 345.867L524.732 351.507C525.82 351.833 526.745 352.54 527.325 353.52L530.045 358.108Z" fill="black"/>
<path opacity="0.2" d="M530.045 358.107L502.354 355.097L506.144 345.867L524.732 351.506C525.82 351.833 526.745 352.54 527.325 353.519L530.045 358.107Z" fill="black"/>
<path d="M543.211 365.343V365.942H519.074H484.419L486.596 357.437C487.448 354.245 490.349 352.015 493.65 352.015H519.727C520.597 352.015 521.45 352.16 522.266 352.468L525.53 353.683L538.478 358.507C541.325 359.577 543.211 362.297 543.211 365.343Z" fill="#6B4EFF"/>
<path opacity="0.2" d="M543.21 365.343V365.941H519.074L520.361 356.747C520.706 354.317 523.226 352.83 525.53 353.683L538.477 358.506C541.324 359.576 543.21 362.296 543.21 365.343Z" fill="black"/>
<path d="M522.828 359.685L530.498 336.637C530.825 335.639 531.967 335.186 532.91 335.657C533.617 336.02 533.98 336.836 533.781 337.616L527.307 362.224C527.307 362.224 523.009 363.965 522.828 359.685Z" fill="#455A64"/>
<path opacity="0.2" d="M491.093 364.037H487.684L488.336 360.683H491.746L491.093 364.037Z" fill="black"/>
<path opacity="0.2" d="M496.17 363.892H492.761L493.414 360.556H496.823L496.17 363.892Z" fill="black"/>
</g>
<defs>
<clipPath id="clip0_288_2392">
<rect width="906.711" height="675.699" fill="white" transform="translate(0 0.15625)"/>
</clipPath>
</defs>
</svg>
