<svg width="26" height="26" viewBox="0 0 26 26" fill="none" xmlns="http://www.w3.org/2000/svg">
<g id="Google play" clip-path="url(#clip0_526_4121)">
<path id="Vector" d="M13.5793 12.6878L1.4856 24.7993C0.907471 24.2517 0.594971 23.5005 0.594971 22.6868V3.69016C0.594971 2.86082 0.923096 2.10972 1.51685 1.54639L13.5793 12.6878Z" fill="#2196F3"/>
<path id="Vector_2" d="M24.0325 13.1884C24.0325 14.2838 23.4387 15.254 22.4543 15.8016L19.0168 17.7107L14.7512 13.7674L13.5793 12.6877L18.095 8.16541L22.4543 10.5752C23.4387 11.1229 24.0325 12.0931 24.0325 13.1884Z" fill="#FFC107"/>
<path id="Vector_3" d="M13.5793 12.6877L1.51685 1.54629C1.6731 1.38981 1.87622 1.24898 2.07935 1.12379C3.06372 0.529169 4.25122 0.513521 5.26685 1.07685L18.095 8.1654L13.5793 12.6877Z" fill="#4CAF50"/>
<path id="Vector_4" d="M19.0168 17.7108L5.26685 25.3C4.78247 25.5817 4.2356 25.7069 3.70435 25.7069C3.14185 25.7069 2.57935 25.5661 2.07935 25.2531C1.86237 25.1286 1.66273 24.9761 1.4856 24.7993L13.5793 12.6877L14.7512 13.7675L19.0168 17.7108Z" fill="#F44336"/>
</g>
<defs>
<clipPath id="clip0_526_4121">
<rect width="25" height="25.0368" fill="white" transform="translate(0.579346 0.670044)"/>
</clipPath>
</defs>
</svg>
