<svg xmlns="http://www.w3.org/2000/svg" width="80" height="76" viewBox="0 0 80 76" fill="none">
  <path d="M79.1232 14.7203V20.2587C77.7936 20.2587 40.8257 20.2587 39.0576 20.2587C35.8138 20.2587 33.0229 17.8314 33.0229 14.7203C33.0229 11.7432 35.6677 9.18188 39.0576 9.18188H73.0886C76.3178 9.30258 79.1232 11.7432 79.1232 14.7203Z" fill="white"/>
  <path d="M76.7557 0.787109C77.4863 0.787109 78.0854 1.33714 78.0854 2.00791C78.0854 2.67868 77.4863 3.22871 76.7557 3.22871C76.0251 3.22871 75.426 2.67868 75.426 2.00791C75.4406 1.33714 76.0251 0.787109 76.7557 0.787109Z" fill="#F8A300"/>
  <path d="M75.879 35.5327C76.6096 35.5327 77.2087 36.0827 77.2087 36.7535C77.2087 37.4243 76.6096 37.9743 75.879 37.9743C75.1484 37.9743 74.5493 37.4243 74.5493 36.7535C74.5493 36.0827 75.1484 35.5327 75.879 35.5327Z" fill="#F8A300"/>
  <path d="M74.8416 54.8702C74.8416 57.1634 73.9649 59.4699 72.6352 61.2266C70.4288 58.3837 66.8928 56.627 62.9184 56.627C65.417 56.627 67.4919 54.7361 67.4919 52.4296C67.4919 50.1364 65.4316 48.0981 62.9184 48.0981C60.4197 48.0981 58.3449 49.9889 58.3449 52.2955C58.3449 54.5886 60.4051 56.4929 62.9184 56.4929C58.9439 56.4929 55.2618 58.3837 53.2015 61.0925C51.8718 59.3358 50.9951 57.1768 50.9951 54.7361C50.9951 48.6479 56.2992 43.78 62.933 43.78C69.5375 43.78 74.8416 48.782 74.8416 54.8702Z" fill="#FFF1A8"/>
  <path d="M72.6354 61.2266C70.429 64.0696 66.8929 65.8263 62.9185 65.8263C58.9441 65.8263 55.2619 63.9355 53.2017 61.2266C55.408 58.3837 58.9441 56.627 62.9185 56.627C66.8929 56.627 70.429 58.3837 72.6354 61.2266Z" fill="white"/>
  <path d="M73.5119 26.615C73.5119 30.1284 70.4142 32.9714 66.5859 32.9714H17.8262L8.10938 38.9255V32.9714V26.615C8.10938 23.1015 11.2071 20.2585 15.0354 20.2585C15.1815 20.2585 64.8325 20.2585 66.6005 20.2585C70.4288 20.2585 73.5119 23.1015 73.5119 26.615Z" fill="#FFF1A8"/>
  <path d="M67.6236 70.9626C68.3542 70.9626 68.9533 71.5127 68.9533 72.1834C68.9533 72.8542 68.3542 73.4042 67.6236 73.4042C66.893 73.4042 66.2939 72.8542 66.2939 72.1834C66.2939 71.4993 66.893 70.9626 67.6236 70.9626Z" fill="#F8A300"/>
  <path d="M62.9182 48.1116C65.4168 48.1116 67.4917 50.0024 67.4917 52.3089C67.4917 54.6021 65.4315 56.5063 62.9182 56.5063C60.4196 56.5063 58.3447 54.6155 58.3447 52.3089C58.3447 50.0024 60.2589 48.1116 62.9182 48.1116Z" fill="white"/>
  <path d="M46.8599 67.583C48.9202 67.583 50.5421 69.0715 50.5421 70.9624C50.5421 72.8532 48.9202 74.3417 46.8599 74.3417C44.7996 74.3417 43.1777 72.8532 43.1777 70.9624C43.1777 69.0715 44.785 67.583 46.8599 67.583Z" fill="white"/>
  <path d="M51.4188 49.8685C51.4188 52.1616 50.5274 54.4681 49.2124 56.2249C47.006 53.3819 43.4699 51.6252 39.4955 51.6252C41.9941 51.6252 44.069 49.7344 44.069 47.4278C44.069 45.1347 42.0087 43.2304 39.4955 43.2304C36.9969 43.2304 34.922 45.1213 34.922 47.4278C34.922 49.7209 36.9823 51.6252 39.4955 51.6252C35.5211 51.6252 31.8389 53.516 29.7786 56.2249C28.449 54.4681 27.5723 52.3091 27.5723 49.8685C27.5723 43.7802 32.8764 38.9124 39.5101 38.9124C46.1147 38.9124 51.4188 43.7802 51.4188 49.8685Z" fill="#FFF1A8"/>
  <path d="M49.2125 56.0906C47.0061 58.9336 43.4701 60.6903 39.4957 60.6903C35.5213 60.6903 31.8391 58.9336 29.7788 56.0906C31.9852 53.2477 35.5213 51.491 39.4957 51.491C43.4701 51.491 47.0061 53.3818 49.2125 56.0906Z" fill="white"/>
  <path d="M39.4812 43.1096C41.9798 43.1096 44.0547 45.0004 44.0547 47.307C44.0547 49.6001 41.9944 51.5044 39.4812 51.5044C36.9826 51.5044 34.9077 49.6135 34.9077 47.307C34.9223 45.0004 36.9826 43.1096 39.4812 43.1096Z" fill="white"/>
  <path d="M33.4469 67.583C34.1775 67.583 34.7765 68.133 34.7765 68.8038C34.7765 69.4746 34.1775 70.0246 33.4469 70.0246C32.7163 70.0246 32.1172 69.4746 32.1172 68.8038C32.1172 68.1196 32.7163 67.583 33.4469 67.583Z" fill="#F8A300"/>
  <path d="M29.7642 2.54395C30.4948 2.54395 31.0939 3.09398 31.0939 3.76474C31.0939 4.43551 30.4948 4.98554 29.7642 4.98554C29.0337 4.98554 28.4346 4.43551 28.4346 3.76474C28.4346 3.09398 29.0337 2.54395 29.7642 2.54395Z" fill="#F8A300"/>
  <path d="M27.9959 54.8702C27.9959 57.1634 27.1192 59.4699 25.7895 61.2266C23.5831 58.3837 20.0471 56.627 16.0727 56.627C18.5713 56.627 20.6462 54.7361 20.6462 52.4296C20.6462 50.1364 18.5859 48.0981 16.0727 48.0981C13.574 48.0981 11.4992 49.9889 11.4992 52.2955C11.4992 54.5886 13.5594 56.4929 16.0727 56.4929C12.0982 56.4929 8.41607 58.3837 6.3558 61.0925C5.02612 59.3358 4.14941 57.1768 4.14941 54.7361C4.14941 48.6479 9.4535 43.78 16.0873 43.78C22.6918 43.9141 27.9959 48.782 27.9959 54.8702Z" fill="#FFF1A8"/>
  <path d="M25.7902 61.2266C23.5838 64.0696 20.0477 65.8263 16.0733 65.8263C12.0989 65.8263 8.41671 63.9355 6.35645 61.2266C8.56283 58.3837 12.0989 56.627 16.0733 56.627C20.0477 56.627 23.7299 58.3837 25.7902 61.2266Z" fill="white"/>
  <path d="M16.0584 48.1116C18.557 48.1116 20.6319 50.0024 20.6319 52.3089C20.6319 54.6021 18.5716 56.5063 16.0584 56.5063C13.5597 56.5063 11.4849 54.6155 11.4849 52.3089C11.4995 50.0024 13.5597 48.1116 16.0584 48.1116Z" fill="white"/>
  <path d="M11.7915 3.36182C14.8016 3.36182 17.2417 5.60131 17.2417 8.36381C17.2417 11.1263 14.8016 13.3658 11.7915 13.3658C8.78148 13.3658 6.34131 11.1263 6.34131 8.36381C6.34131 5.60131 8.78148 3.36182 11.7915 3.36182Z" fill="white"/>
  <path d="M1.32968 37.1555C2.06027 37.1555 2.65935 37.7055 2.65935 38.3763C2.65935 39.0471 2.06027 39.5971 1.32968 39.5971C0.599084 39.5971 0 39.0471 0 38.3763C0 37.7055 0.599084 37.1555 1.32968 37.1555Z" fill="#F8A300"/>
  <path d="M25.7898 62.0315C25.4976 62.0315 25.2053 61.8974 25.0592 61.6292C22.999 58.9203 19.609 57.2977 16.073 57.2977C12.5369 57.2977 9.14696 58.9203 7.08669 61.6292C6.79445 62.0315 6.20998 62.0315 5.75702 61.7633C5.31866 61.6292 5.31866 61.0927 5.6109 60.677C7.9634 57.5659 11.9378 55.675 16.073 55.675C20.1935 55.675 24.1679 57.5659 26.535 60.677C26.8273 61.0793 26.6811 61.6292 26.3889 61.8974C26.2282 62.0315 26.0821 62.0315 25.7898 62.0315Z" fill="#F8A300"/>
  <path d="M16.0582 57.4453C12.9605 57.4453 10.4619 55.1521 10.4619 52.3092C10.4619 49.4662 12.9605 47.1731 16.0582 47.1731C19.1559 47.1731 21.6546 49.4662 21.6546 52.3092C21.6692 55.1387 19.1559 57.4453 16.0582 57.4453ZM16.0582 48.9164C13.998 48.9164 12.3761 50.4049 12.3761 52.2958C12.3761 54.1866 13.998 55.6751 16.0582 55.6751C18.1185 55.6751 19.7404 54.1866 19.7404 52.2958C19.7404 50.4049 18.1331 48.9164 16.0582 48.9164Z" fill="#F8A300"/>
  <path d="M49.2122 57.0293C48.9199 57.0293 48.6277 56.8952 48.4816 56.627C46.4213 53.9182 43.0314 52.2956 39.4953 52.2956C35.9593 52.2956 32.5693 53.9182 30.5091 56.627C30.2168 57.0293 29.6323 57.0293 29.1794 56.7611C28.741 56.4929 28.741 55.9565 29.0333 55.5408C31.3858 52.4297 35.3602 50.5388 39.4953 50.5388C43.6159 50.5388 47.6049 52.4297 49.9574 55.5408C50.2496 55.9431 50.1035 56.4929 49.8113 56.7611C49.6505 56.8952 49.3583 57.0293 49.2122 57.0293Z" fill="#F8A300"/>
  <path d="M39.4806 52.2956C36.3829 52.2956 33.8843 50.0025 33.8843 47.1595C33.8843 44.3166 36.3829 42.0234 39.4806 42.0234C42.5783 42.0234 45.0769 44.3166 45.0769 47.1595C45.0915 50.0025 42.5783 52.2956 39.4806 52.2956ZM39.4806 43.9143C37.4203 43.9143 35.7984 45.4028 35.7984 47.2936C35.7984 49.1845 37.4203 50.673 39.4806 50.673C41.5409 50.673 43.1628 49.1845 43.1628 47.2936C43.1774 45.4028 41.5555 43.9143 39.4806 43.9143Z" fill="#F8A300"/>
  <path d="M72.6355 62.0313C72.3433 62.0313 72.051 61.8972 71.9049 61.629C69.8447 58.9201 66.4547 57.2975 62.9187 57.2975C59.3826 57.2975 55.9927 58.9201 53.9324 61.629C53.6402 62.0313 53.0411 62.0313 52.6027 61.7631C52.1644 61.4949 52.1644 60.9585 52.4566 60.5428C54.8091 57.4316 58.7981 55.5408 62.9187 55.5408C67.0392 55.5408 71.0136 57.4316 73.3807 60.5428C73.673 60.9451 73.5268 61.4949 73.2346 61.7631C72.9278 62.0313 72.7816 62.0313 72.6355 62.0313Z" fill="#F8A300"/>
  <path d="M62.9186 57.4453C59.8209 57.4453 57.3223 55.1521 57.3223 52.3092C57.3223 49.4662 59.8209 47.1731 62.9186 47.1731C66.0163 47.1731 68.5149 49.4662 68.5149 52.3092C68.5149 55.1387 65.8556 57.4453 62.9186 57.4453ZM62.9186 48.9164C60.8583 48.9164 59.2364 50.4049 59.2364 52.2958C59.2364 54.1866 60.8583 55.6751 62.9186 55.6751C64.9789 55.6751 66.6008 54.1866 66.6008 52.2958C66.6008 50.4049 64.8327 48.9164 62.9186 48.9164Z" fill="#F8A300"/>
  <path d="M16.0582 66.7651C11.9377 66.7651 7.94866 64.8743 5.59616 61.7632C4.12036 59.7382 3.24365 57.4317 3.24365 55.0044C3.24365 48.5139 8.9861 43.1096 16.2043 43.1096C23.4226 43.1096 29.165 48.3798 29.165 55.0044C29.165 57.4317 28.2883 59.8723 26.8125 61.7632C24.1678 64.8743 20.1934 66.7651 16.0582 66.7651ZM7.07195 60.6903C9.13222 63.3992 12.5222 65.0218 16.0582 65.0218C19.5943 65.0218 22.9842 63.3992 25.0445 60.6903C26.3742 58.9336 27.1048 56.9087 27.1048 54.8703C27.1048 49.3319 22.0929 44.7322 16.0582 44.7322C10.0235 44.7322 5.01168 49.3319 5.01168 54.8703C5.01168 57.0294 5.75689 59.0677 7.07195 60.6903Z" fill="#F8A300"/>
  <path d="M39.4806 61.6292C35.36 61.6292 31.3856 59.7383 29.0185 56.6272C27.5427 54.6022 26.666 52.2957 26.666 49.8684C26.666 43.3779 32.4085 37.9736 39.6267 37.9736C46.8449 37.9736 52.5874 43.2438 52.5874 49.8684C52.5874 52.2957 51.6961 54.7363 50.2349 56.6272C47.5901 59.7383 43.6157 61.6292 39.4806 61.6292ZM30.4943 55.675C32.5546 58.3839 35.9445 60.0065 39.4806 60.0065C43.0166 60.0065 46.4066 58.3839 48.4668 55.675C49.7965 53.9183 50.5271 51.8934 50.5271 49.855C50.5271 44.3166 45.5153 39.717 39.4806 39.717C33.4459 39.717 28.434 44.3166 28.434 49.855C28.434 51.8934 29.1792 53.9183 30.4943 55.675Z" fill="#F8A300"/>
  <path d="M62.9186 66.7651C58.798 66.7651 54.809 64.8743 52.4565 61.7632C50.9807 59.7382 50.104 57.4317 50.104 55.0044C50.104 48.5139 55.8464 43.1096 62.9186 43.1096C69.9907 43.1096 75.8793 48.3798 75.8793 55.0044C75.8793 57.4317 74.9879 59.8723 73.5268 61.7632C71.0135 64.8743 67.0391 66.7651 62.9186 66.7651ZM53.7716 60.6903C55.8318 63.3992 59.2218 65.0218 62.7578 65.0218C66.2939 65.0218 69.6838 63.3992 71.7441 60.6903C73.0738 58.9336 73.8044 56.9087 73.8044 54.8703C73.8044 49.3319 68.7925 44.7322 62.7578 44.7322C56.7232 44.7322 51.7113 49.3319 51.7113 54.8703C51.8574 57.0294 52.4565 59.0677 53.7716 60.6903Z" fill="#F8A300"/>
  <path d="M79.1234 21.0634H66.7472C66.3088 21.0634 65.8705 20.6611 65.8705 20.2588C65.8705 19.8565 66.3088 19.4542 66.7472 19.4542H78.2321V14.8545C78.2321 12.2798 76.0257 10.2548 73.2202 10.2548H39.0432C37.7135 10.2548 36.3838 10.7912 35.5071 11.6093C34.6158 12.4273 34.0313 13.6342 34.0313 14.8545C34.0313 17.4293 36.2377 19.4542 39.0432 19.4542C39.4815 19.4542 39.9199 19.8565 39.9199 20.2588C39.9199 20.6611 39.4815 21.0634 39.0432 21.0634C35.2149 21.0634 32.1172 18.2205 32.1172 14.707C32.1172 12.9503 32.8478 11.4617 34.1775 10.2414C35.5071 9.02109 37.2752 8.35059 39.0432 8.35059H73.0741C76.9024 8.35059 80.0001 11.1935 80.0001 14.707V20.2454C80.0001 20.6611 79.5618 21.0634 79.1234 21.0634Z" fill="#F8A300"/>
  <path d="M8.10962 39.7301C7.9635 39.7301 7.81738 39.7301 7.67126 39.596C7.37903 39.4619 7.23291 39.1937 7.23291 38.7914V26.4943C7.23291 22.5785 10.769 19.3333 15.0356 19.3333H66.6007C68.661 19.3333 70.7213 20.1379 72.1971 21.4923C73.6728 22.8467 74.5496 24.6034 74.5496 26.6284C74.5496 30.5441 71.0135 33.7894 66.7468 33.7894H18.1333L8.7087 39.6094C8.54797 39.596 8.40185 39.7301 8.10962 39.7301ZM15.0356 21.0632C11.7918 21.0632 9.00094 23.4904 9.00094 26.6016V37.276L17.2566 32.2741C17.4027 32.14 17.5489 32.14 17.695 32.14H66.4546C69.6984 32.14 72.4893 29.7127 72.4893 26.6016C72.4893 25.113 71.9048 23.7586 70.7213 22.6858C69.5377 21.5996 68.0765 21.0632 66.4546 21.0632H15.0356Z" fill="#F8A300"/>
  <path d="M11.7918 14.3045C8.25579 14.3045 5.3042 11.5956 5.3042 8.35035C5.3042 5.10509 8.25579 2.39624 11.7918 2.39624C15.3279 2.39624 18.2795 5.10509 18.2795 8.35035C18.2795 11.609 15.3279 14.3045 11.7918 14.3045ZM11.7918 4.16638C9.29323 4.16638 7.21835 6.05722 7.21835 8.36376C7.21835 10.6569 9.27861 12.5611 11.7918 12.5611C14.2905 12.5611 16.3653 10.6703 16.3653 8.36376C16.5115 6.05722 14.4366 4.16638 11.7918 4.16638Z" fill="#F8A300"/>
  <path d="M46.8601 75.1465C44.3615 75.1465 42.2866 73.2556 42.2866 70.9491C42.2866 68.6559 44.3469 66.7517 46.8601 66.7517C49.3587 66.7517 51.4336 68.6425 51.4336 70.9491C51.419 73.2556 49.3587 75.1465 46.8601 75.1465ZM46.8601 68.3877C45.3843 68.3877 44.0546 69.474 44.0546 70.9625C44.0546 72.3169 45.2382 73.5372 46.8601 73.5372C48.482 73.5372 49.6656 72.451 49.6656 70.9625C49.651 69.474 48.3213 68.3877 46.8601 68.3877Z" fill="#F8A300"/>
</svg>