<svg xmlns="http://www.w3.org/2000/svg" width="80" height="76" viewBox="0 0 80 76" fill="none">
  <path d="M74.4138 3.2124C76.9079 3.2124 78.979 5.17435 78.979 7.56765C78.979 9.96095 76.9225 11.9229 74.4138 11.9229C71.9197 11.9229 69.8486 9.96095 69.8486 7.56765C69.8486 5.17435 71.9197 3.2124 74.4138 3.2124Z" fill="white"/>
  <path d="M76.7618 33.9358C77.4911 33.9358 78.0891 34.5065 78.0891 35.2025C78.0891 35.8985 77.4911 36.4692 76.7618 36.4692C76.0326 36.4692 75.4346 35.8985 75.4346 35.2025C75.4346 34.5065 76.0326 33.9358 76.7618 33.9358Z" fill="#F8A300"/>
  <path d="M67.6464 55.8384C68.3794 55.8384 68.9736 55.2712 68.9736 54.5716C68.9736 53.8721 68.3794 53.3049 67.6464 53.3049C66.9133 53.3049 66.3191 53.8721 66.3191 54.5716C66.3191 55.2712 66.9133 55.8384 67.6464 55.8384Z" fill="#F8A300"/>
  <path d="M66.4649 62.6971C67.5004 63.6851 68.0838 64.9374 68.0838 66.4819C68.0838 69.4318 65.5898 71.8112 62.4977 71.8112H40.4448C43.391 67.8873 46.7748 64.5199 50.144 61.2918H62.4977C63.9708 61.1526 65.4439 61.7231 66.4649 62.6971Z" fill="white"/>
  <path d="M60.2955 0.693848C61.0248 0.693848 61.6228 1.26457 61.6228 1.96056C61.6228 2.65656 61.0248 3.22728 60.2955 3.22728C59.5663 3.22728 58.9683 2.65656 58.9683 1.96056C58.9683 1.26457 59.5663 0.693848 60.2955 0.693848Z" fill="#F8A300"/>
  <path d="M40.4448 3.78296C56.3281 3.78296 69.1194 15.986 69.1194 31.1389C69.1194 48.8104 51.763 56.6721 40.4448 71.6859C28.9808 56.6721 11.7703 48.8243 11.7703 31.1389C11.7703 15.986 24.5615 3.78296 40.4448 3.78296ZM40.4448 49.367C50.8879 49.367 59.5661 41.227 59.5661 31.125C59.5661 21.1622 51.0337 12.8831 40.4448 12.8831C29.8559 12.8831 21.3236 21.0231 21.3236 31.125C21.3236 41.1018 30.0018 49.367 40.4448 49.367Z" fill="#FFF1A8"/>
  <path d="M52.361 31.2781C52.361 33.6575 51.4858 36.0508 50.1586 37.8736C47.9562 34.9237 44.4266 33.1009 40.4594 33.1009C42.9535 33.1009 45.0246 31.1389 45.0246 28.7456C45.0246 26.3663 42.9681 24.3904 40.4594 24.3904C37.9653 24.3904 35.8942 26.3523 35.8942 28.7456C35.8942 31.125 37.9508 33.1009 40.4594 33.1009C36.4922 33.1009 32.8167 35.0628 30.7602 37.8736C29.433 36.0508 28.5579 33.8105 28.5579 31.2781C28.5579 24.9609 33.8523 19.9099 40.474 19.9099C47.0665 19.9099 52.361 24.9609 52.361 31.2781Z" fill="#FFF1A8"/>
  <path d="M50.144 37.8735C47.9416 40.8234 44.412 42.6462 40.4448 42.6462C36.4776 42.6462 32.8021 40.6843 30.7456 37.8735C32.948 34.9236 36.4776 33.1008 40.4448 33.1008C44.412 33.1008 48.0874 34.9236 50.144 37.8735Z" fill="white"/>
  <path d="M40.4451 24.2651C42.9391 24.2651 45.0102 26.2271 45.0102 28.6204C45.0102 30.9998 42.9537 32.9756 40.4451 32.9756C37.951 32.9756 35.8799 31.0137 35.8799 28.6204C35.8799 26.2271 37.951 24.2651 40.4451 24.2651Z" fill="white"/>
  <path d="M40.4449 71.6859H18.3921C16.9189 71.6859 15.4458 71.1293 14.4249 70.1414C13.3893 69.1534 12.8059 67.9011 12.8059 66.3566C12.8059 63.4067 15.3 61.0273 18.2462 61.0273H30.5999C34.1149 64.3807 37.4987 67.7481 40.4449 71.6859Z" fill="white"/>
  <path d="M9.71373 72.5208C10.443 72.5208 11.041 73.0915 11.041 73.7875C11.041 74.4835 10.443 75.0542 9.71373 75.0542C8.98447 75.0542 8.38647 74.4835 8.38647 73.7875C8.38647 73.0915 8.98447 72.5208 9.71373 72.5208Z" fill="#F8A300"/>
  <path d="M4.56513 52.3169C6.62164 52.3169 8.2406 53.8614 8.2406 55.8234C8.2406 57.7853 6.62164 59.3298 4.56513 59.3298C2.50861 59.3298 0.889648 57.7853 0.889648 55.8234C0.889648 53.8614 2.65446 52.3169 4.56513 52.3169Z" fill="white"/>
  <path d="M6.03844 3.36572C6.7677 3.36572 7.3657 3.93644 7.3657 4.63244C7.3657 5.32844 6.7677 5.89915 6.03844 5.89915C5.30918 5.89915 4.71118 5.32844 4.71118 4.63244C4.71118 3.92252 5.30918 3.36572 6.03844 3.36572Z" fill="#F8A300"/>
  <path d="M1.47325 38.4302C2.20251 38.4302 2.80051 39.0009 2.80051 39.6969C2.80051 40.3929 2.20251 40.9636 1.47325 40.9636C0.74399 40.9636 0.145996 40.3929 0.145996 39.6969C0.145996 39.0009 0.74399 38.4302 1.47325 38.4302Z" fill="#F8A300"/>
  <path d="M40.4446 50.2159C29.4182 50.2159 20.4482 41.6585 20.4482 31.1391C20.4482 20.6197 29.4182 12.0623 40.4446 12.0623C51.471 12.0623 60.4409 20.6197 60.4409 31.1391C60.4409 41.6585 51.471 50.2159 40.4446 50.2159ZM40.4446 13.7459C30.4391 13.7459 22.2131 21.4685 22.2131 31.1391C22.3589 40.6845 30.4537 48.3931 40.4446 48.3931C50.4501 48.3931 58.6761 40.6845 58.6761 30.9999C58.6761 21.5937 50.4355 13.7459 40.4446 13.7459Z" fill="#F8A300"/>
  <path d="M40.445 72.5207H18.3921C16.6273 72.5207 15.0083 71.8249 13.8269 70.6979C12.6455 69.5708 11.9163 68.0263 11.9163 66.3426C11.9163 62.9753 14.8625 60.1646 18.3921 60.1646H30.7458C31.1834 60.1646 31.6209 60.582 31.6209 61.0133C31.6209 61.4308 31.1834 61.8482 30.7458 61.8482H18.3921C15.898 61.8482 13.8269 63.8102 13.8269 66.2035C13.8269 67.3305 14.2645 68.4437 15.1542 69.2925C16.0293 70.1413 17.2107 70.5587 18.3921 70.5587H40.445C40.8825 70.5587 41.3347 70.9762 41.3347 71.4075C41.3201 71.8249 41.0284 72.5207 40.445 72.5207Z" fill="#F8A300"/>
  <path d="M62.4978 72.5207H40.4449C40.0074 72.5207 39.5698 72.1033 39.5698 71.6719C39.5698 71.2545 40.0074 70.837 40.4449 70.837H62.4978C64.9919 70.837 67.063 68.8751 67.063 66.4818C67.063 65.3547 66.6254 64.2415 65.7357 63.3928C64.8606 62.5579 63.6792 62.1265 62.4978 62.1265H50.1441C49.7066 62.1265 49.2544 61.7091 49.2544 61.2778C49.2544 60.8603 49.692 60.4429 50.1441 60.4429H62.4978C64.2626 60.4429 65.8816 61.1386 67.063 62.2657C68.2444 63.3928 68.9736 64.9373 68.9736 66.6209C68.9736 69.71 66.0274 72.5207 62.4978 72.5207Z" fill="#F8A300"/>
  <path d="M40.4448 72.5207C40.1531 72.5207 39.8614 72.3816 39.7155 72.1033C36.7693 68.1794 33.3855 64.8121 30.1622 61.723C29.2871 60.8882 28.5432 60.1785 27.6681 59.3436C18.9899 51.2036 10.9097 43.495 10.9097 31.1389C10.9097 15.5685 24.1385 2.948 40.4739 2.948C56.7948 2.948 70.1841 15.5685 70.1841 31.1389C70.1841 43.4811 62.1038 51.2036 53.4256 59.3436C52.5505 60.1785 51.8067 60.8882 50.9315 61.723C47.6936 64.8121 44.3098 68.1794 41.3782 72.1033C41.0282 72.3816 40.7365 72.5207 40.4448 72.5207ZM31.329 60.4568C34.4211 63.4067 37.4985 66.4818 40.4448 70.1413C43.391 66.4957 46.4685 63.4067 49.5605 60.4568C50.4356 59.608 51.1795 58.9123 52.0546 58.0774C60.7328 49.7983 68.2296 42.6462 68.2296 31.1389C68.2296 16.5425 55.7301 4.63166 40.4302 4.63166C25.1303 4.63166 12.6307 16.5564 12.6307 31.1389C12.6307 42.7853 20.1275 49.7983 28.8057 58.0774C29.71 58.9123 30.5851 59.608 31.329 60.4568Z" fill="#F8A300"/>
  <path d="M50.1438 38.7085C49.8521 38.7085 49.5604 38.5694 49.4146 38.2911C47.3581 35.4803 43.9743 33.7967 40.4447 33.7967C36.915 33.7967 33.5313 35.4803 31.4748 38.2911C31.183 38.7085 30.5996 38.7085 30.1475 38.4302C29.7099 38.1519 29.7099 37.5954 30.0016 37.164C32.3499 33.9358 36.3316 31.9739 40.4447 31.9739C44.5577 31.9739 48.5395 33.9358 50.8877 37.164C51.1794 37.5814 51.0335 38.1519 50.7418 38.4302C50.596 38.7085 50.4355 38.7085 50.1438 38.7085Z" fill="#F8A300"/>
  <path d="M40.4448 33.9359C37.3527 33.9359 34.8586 31.5565 34.8586 28.6066C34.8586 25.6567 37.3527 23.2773 40.4448 23.2773C43.5369 23.2773 46.0309 25.6567 46.0309 28.6066C46.0309 31.5565 43.5369 33.9359 40.4448 33.9359ZM40.4448 25.1002C38.3883 25.1002 36.7693 26.6447 36.7693 28.6066C36.7693 30.5686 38.3883 32.1131 40.4448 32.1131C42.5013 32.1131 44.1203 30.5686 44.1203 28.6066C44.1203 26.7838 42.5013 25.1002 40.4448 25.1002Z" fill="#F8A300"/>
  <path d="M40.4448 43.6204C36.3318 43.6204 32.35 41.6585 30.0018 38.4303C28.5287 36.3292 27.6536 33.9359 27.6536 31.4174C27.6536 24.6828 33.3856 19.0752 40.5907 19.0752C47.7958 19.0752 53.5278 24.5436 53.5278 31.4174C53.5278 33.9359 52.6527 36.4684 51.1795 38.4303C48.525 41.6585 44.5578 43.6204 40.4448 43.6204ZM31.4749 37.3032C33.5314 40.114 36.9152 41.7976 40.4448 41.7976C43.9744 41.7976 47.3582 40.114 49.4147 37.3032C50.742 35.4804 51.4713 33.3793 51.4713 31.2782C51.4713 25.5315 46.4685 20.7589 40.4448 20.7589C34.4211 20.7589 29.4184 25.5315 29.4184 31.2782C29.4184 33.5185 30.1476 35.6196 31.4749 37.3032Z" fill="#F8A300"/>
  <path d="M74.4138 12.8971C71.3217 12.8971 68.8276 10.5177 68.8276 7.56779C68.8276 4.61791 71.3217 2.23853 74.4138 2.23853C77.5059 2.23853 79.9999 4.61791 79.9999 7.56779C79.9999 10.5177 77.5059 12.8971 74.4138 12.8971ZM74.4138 4.06133C72.3573 4.06133 70.7383 5.60584 70.7383 7.56779C70.7383 9.52974 72.3573 11.0743 74.4138 11.0743C76.4703 11.0743 78.0893 9.52974 78.0893 7.56779C78.0893 5.60584 76.4703 4.06133 74.4138 4.06133Z" fill="#F8A300"/>
  <path d="M4.56518 60.1785C2.0711 60.1785 0 58.2166 0 55.8233C0 53.4439 2.05652 51.468 4.56518 51.468C7.05925 51.468 9.13035 53.43 9.13035 55.8233C9.26162 58.2166 7.20511 60.1785 4.56518 60.1785ZM4.56518 53.1656C3.09207 53.1656 1.76481 54.2927 1.76481 55.8372C1.76481 57.3817 2.94622 58.5088 4.56518 58.5088C6.03829 58.5088 7.36554 57.3817 7.36554 55.8372C7.35096 54.2788 6.18414 53.1656 4.56518 53.1656Z" fill="#F8A300"/>
</svg>