<svg xmlns="http://www.w3.org/2000/svg" width="44" height="44" viewBox="0 0 44 44" fill="none">
  <rect width="44" height="44" rx="22" fill="#6B4EFF"/>
  <path d="M14.5053 24.3475L13.9158 24.4536C13.4687 22.7067 13.0212 21.2162 12.5732 19.9819C12.4374 20.3977 12.2982 20.9794 12.1556 21.727C12.0178 22.4691 11.9195 22.9514 11.8608 23.174C11.8504 23.1749 11.8323 23.1791 11.8067 23.1865C11.7859 23.1884 11.7676 23.19 11.752 23.1913C11.679 23.1977 11.5584 23.2006 11.3901 23.1998C11.2219 23.199 11.1143 23.2007 11.0674 23.2048C11.0487 23.0563 10.8709 22.5724 10.534 21.7529C10.1966 20.9283 9.99119 20.4001 9.91768 20.1684C9.89909 21.0087 9.67115 22.556 9.23386 24.8102L8.74477 24.8065C8.76713 24.2402 8.86734 23.3436 9.04541 22.1165C9.22347 20.8894 9.30884 19.9449 9.30152 19.2828C9.39444 19.2643 9.46958 19.2526 9.52694 19.2475C9.57908 19.2429 9.77386 19.2466 10.1113 19.2584C10.1852 19.2622 10.3106 19.4868 10.4875 19.932C10.6692 20.3717 10.855 20.8575 11.0451 21.3896C11.2351 21.9217 11.3528 22.235 11.3981 22.3293C11.512 21.9621 11.6347 21.3715 11.766 20.5575C11.9026 19.7431 12.0028 19.2244 12.0667 19.0013C12.1506 18.9991 12.416 18.9991 12.8629 19.0013C13.0454 19.5082 13.2264 20.0566 13.4059 20.6466C13.5906 21.2361 13.7906 21.9071 14.0058 22.6596C14.2262 23.4116 14.3927 23.9743 14.5053 24.3475Z" fill="white"/>
  <path d="M14.8065 20.9663L14.6145 20.5871C14.738 20.4416 14.9006 20.3212 15.1022 20.2259C15.3033 20.1254 15.5055 20.0662 15.7089 20.0484C16.5901 19.9711 17.0985 20.6823 17.2342 22.1821C17.2527 22.3876 17.2671 22.6917 17.2773 23.0947C17.2927 23.4971 17.3094 23.7985 17.3275 23.9988C17.3002 24.1617 17.2266 24.2484 17.1067 24.259C17.0128 24.2672 16.9226 24.2285 16.836 24.1429C16.7495 24.0573 16.7011 23.9581 16.6908 23.8451C16.6876 23.8091 16.6879 23.7832 16.6917 23.7673C16.3963 24.1039 16.0661 24.2882 15.7011 24.3202C15.4248 24.3445 15.1735 24.2682 14.9473 24.0913C14.7258 23.9088 14.6023 23.6763 14.5767 23.3938C14.5335 22.9161 14.6822 22.4682 15.0228 22.05C15.3686 21.6314 15.7813 21.401 16.261 21.3589C16.2819 21.3571 16.303 21.3578 16.3243 21.3611C16.3451 21.3593 16.3688 21.3598 16.3954 21.3627C16.4271 21.3651 16.4508 21.3656 16.4664 21.3642C16.3704 20.7669 16.1007 20.4877 15.6575 20.5266C15.3968 20.5495 15.1132 20.6961 14.8065 20.9663ZM16.6592 23.2343C16.6372 22.8739 16.6177 22.6012 16.601 22.4163C16.5871 22.2622 16.5624 22.0469 16.5268 21.7705L16.4643 21.776C16.0945 21.8136 15.7679 21.9795 15.4845 22.2735C15.2062 22.5672 15.0843 22.904 15.1186 23.2841C15.1335 23.4485 15.1949 23.5751 15.3028 23.664C15.4159 23.7525 15.5454 23.7903 15.6914 23.7775C15.9209 23.7573 16.2435 23.5763 16.6592 23.2343Z" fill="white"/>
  <path d="M20.7628 19.9698L21.2905 19.8769C21.6139 20.5474 21.9967 21.8159 22.4388 23.6822C22.352 23.7106 22.2643 23.7286 22.1756 23.7364C22.0974 23.7433 22.005 23.7384 21.8984 23.7219C21.7999 23.4458 21.6662 22.9554 21.4973 22.2506C21.3337 21.5453 21.1993 21.0472 21.0941 20.7561C20.8758 21.1894 20.5999 21.9747 20.2666 23.1119C20.2305 23.1202 20.1663 23.1362 20.0738 23.1598C19.9866 23.183 19.9195 23.1967 19.8726 23.2008C19.8152 23.2058 19.7467 23.2041 19.6671 23.1955C19.5647 22.9923 19.4091 22.6668 19.2004 22.2192C18.9965 21.766 18.8343 21.4256 18.7139 21.198C18.3276 22.5055 18.0993 23.4677 18.029 24.0848L17.7163 24.0268C17.7071 23.6342 17.7889 22.941 17.9618 21.9474C18.1343 20.9486 18.2345 20.3134 18.2625 20.0417C18.325 20.0362 18.3961 20.0377 18.4757 20.0463C18.5601 20.0492 18.6231 20.0489 18.6648 20.0452C18.8213 20.2645 19.0466 20.6925 19.3407 21.3294C19.6343 21.9611 19.8277 22.3557 19.9208 22.5132C20.2167 21.369 20.4974 20.5212 20.7628 19.9698Z" fill="white"/>
  <path d="M22.7372 20.2702L22.5452 19.891C22.6687 19.7456 22.8312 19.6252 23.0328 19.5298C23.234 19.4293 23.4362 19.3702 23.6395 19.3523C24.5207 19.275 25.0292 19.9862 25.1648 21.486C25.1834 21.6915 25.1978 21.9957 25.2079 22.3986C25.2233 22.8011 25.2401 23.1024 25.2582 23.3028C25.2309 23.4657 25.1573 23.5524 25.0373 23.5629C24.9435 23.5711 24.8533 23.5324 24.7667 23.4469C24.6801 23.3613 24.6317 23.262 24.6215 23.149C24.6182 23.113 24.6185 23.0871 24.6223 23.0712C24.3269 23.4078 23.9968 23.5921 23.6318 23.6241C23.3554 23.6484 23.1041 23.5721 22.8779 23.3952C22.6564 23.2127 22.5329 22.9802 22.5074 22.6977C22.4642 22.2201 22.6129 21.7721 22.9534 21.354C23.2992 20.9353 23.712 20.705 24.1917 20.6629C24.2125 20.661 24.2336 20.6618 24.2549 20.6651C24.2758 20.6632 24.2995 20.6637 24.326 20.6666C24.3578 20.669 24.3815 20.6695 24.3971 20.6681C24.301 20.0708 24.0314 19.7916 23.5882 19.8305C23.3275 19.8534 23.0438 20 22.7372 20.2702ZM24.5899 22.5383C24.5678 22.1778 24.5484 21.9051 24.5317 21.7202C24.5177 21.5661 24.493 21.3508 24.4575 21.0744L24.3949 21.0799C24.0252 21.1175 23.6986 21.2834 23.4151 21.5775C23.1369 21.8711 23.0149 22.208 23.0493 22.5881C23.0642 22.7524 23.1255 22.879 23.2334 22.9679C23.3465 23.0564 23.4761 23.0942 23.6221 23.0814C23.8515 23.0612 24.1741 22.8802 24.5899 22.5383Z" fill="white"/>
  <path d="M30.1932 19.0334L30.5521 19.0795L31.07 22.8004C31.037 22.9586 30.9527 23.0437 30.8172 23.0556C30.7233 23.0638 30.6286 23.0333 30.533 22.964C30.4378 22.8999 30.3749 22.8148 30.3443 22.7088C30.3429 22.6934 30.3271 22.2573 30.297 21.4006L30.2914 21.3389C30.1445 21.3415 29.9276 21.3553 29.6408 21.3805C29.2081 21.4185 28.881 21.4342 28.6597 21.4278C28.7127 21.7234 28.79 22.2007 28.8917 22.8596C28.8592 23.0229 28.7751 23.1106 28.6395 23.1225C28.5457 23.1307 28.4512 23.1028 28.3561 23.0386C28.2657 22.9689 28.2052 22.881 28.1745 22.775C28.167 22.5168 28.1516 22.2593 28.1283 22.0025C28.1135 21.8381 28.0885 21.5918 28.0536 21.2635C28.0187 20.9353 27.994 20.6915 27.9796 20.5323C27.935 20.0392 27.9132 19.6244 27.9143 19.2877L28.2739 19.3416C28.479 20.447 28.5856 21.0149 28.5936 21.0453C29.4894 21.0133 29.9503 20.9961 29.9764 20.9938C30.1901 20.9751 30.2959 20.9528 30.2936 20.9272C30.2843 20.8244 30.2652 20.4974 30.2363 19.9459C30.2075 19.3945 30.1931 19.0903 30.1932 19.0334Z" fill="white"/>
  <path d="M34.7962 21.8133L34.9051 22.1454C34.6831 22.2477 34.3499 22.3702 33.9056 22.5127C33.466 22.6497 33.1367 22.7277 32.9177 22.747C32.6935 22.7666 32.4915 22.7119 32.3116 22.5827C32.1313 22.4484 31.9892 22.2719 31.8853 22.0532C31.781 21.8294 31.698 21.6089 31.6363 21.3917C31.5794 21.1689 31.5411 20.9497 31.5216 20.7339C31.4055 19.4499 31.9366 18.7561 33.115 18.6527C33.3966 18.628 33.6524 18.6961 33.8824 18.8571C34.112 19.013 34.2395 19.2322 34.2651 19.5147C34.279 19.6688 34.247 19.8088 34.1691 19.9347C34.0963 20.0601 34.0006 20.1643 33.882 20.2472C33.7681 20.3245 33.6173 20.3999 33.4295 20.4733C33.2469 20.5463 33.0837 20.602 32.94 20.6405C32.7964 20.679 32.6243 20.7226 32.4237 20.7713C32.2231 20.8199 32.0844 20.8554 32.0076 20.8777C32.0263 21.0262 32.046 21.1564 32.0666 21.2685C32.0925 21.3802 32.1297 21.5011 32.1783 21.6315C32.2316 21.7562 32.2935 21.8595 32.364 21.9413C32.4392 22.0176 32.5367 22.0789 32.6565 22.1253C32.7764 22.1718 32.9145 22.1881 33.0709 22.1744C33.2586 22.1579 33.4866 22.1224 33.755 22.0678C34.0229 22.008 34.2595 21.951 34.4648 21.8967C34.6753 21.842 34.7858 21.8142 34.7962 21.8133ZM31.9957 20.3972C32.6867 20.1347 33.249 19.8731 33.6827 19.6124C33.6309 19.4461 33.5702 19.3272 33.5006 19.2556C33.4311 19.1841 33.3338 19.1538 33.2086 19.1648C32.8906 19.1927 32.6109 19.3259 32.3697 19.5645C32.1338 19.8027 32.0091 20.0803 31.9957 20.3972Z" fill="white"/>
  <path d="M9.15561 26.51C10.2883 26.1665 10.9812 25.9836 11.2345 25.9614C12.2326 25.8738 12.7698 26.2519 12.8462 27.0957C12.8727 27.3892 12.8464 27.68 12.7674 27.968C12.6951 28.248 12.5885 28.4385 12.4474 28.5397C13.0636 28.8776 13.4026 29.3877 13.4643 30.0701C13.5227 30.7158 13.3521 31.2374 12.9526 31.6349C12.5606 32.0317 12.0145 32.2608 11.3143 32.3223C10.48 32.3955 9.83815 32.23 9.38865 31.8257L9.15561 26.51ZM10.0424 29.2167L10.345 31.4422C10.5392 31.5139 10.7555 31.5393 10.9938 31.5184C11.4556 31.4778 11.8673 31.2975 12.2287 30.9773C12.5902 30.6571 12.7536 30.3063 12.7191 29.9247C12.6952 29.6606 12.5691 29.4276 12.3406 29.2258C12.1114 29.0166 11.8367 28.9261 11.5164 28.9542C11.3302 28.9705 10.8389 29.058 10.0424 29.2167ZM9.72555 26.9592L9.95707 28.6473C10.0675 28.6228 10.2378 28.5968 10.468 28.5692C10.6983 28.5416 10.8832 28.5105 11.0227 28.4761C11.1616 28.4343 11.313 28.3656 11.4771 28.2698C11.6404 28.1667 11.7609 28.0045 11.8385 27.7833C11.9235 27.5613 11.969 27.2763 11.9751 26.9281C11.8807 26.7145 11.6436 26.6244 11.2637 26.6578C11.0924 26.6728 10.8265 26.722 10.4662 26.8054C10.1058 26.8888 9.85896 26.9401 9.72555 26.9592Z" fill="white"/>
  <path d="M14.7911 33.1598L14.2783 33.0938C14.271 33.0131 14.2346 32.776 14.1689 32.3823C14.1033 31.9887 14.0625 31.7039 14.0466 31.5278C14.0333 31.381 14.0302 31.2223 14.0373 31.0515L14.7636 30.9878C14.7895 30.8598 14.8322 30.6674 14.8916 30.4108C14.9584 30.1535 15.002 29.9721 15.0226 29.8668C15.0431 29.7614 15.0704 29.6074 15.1046 29.4047C15.1456 29.194 15.1673 29.0183 15.1696 28.8776C15.1787 28.7289 15.181 28.5475 15.1767 28.3334C15.1798 28.1186 15.1707 27.8939 15.1495 27.6591C15.0997 27.1087 15.0213 26.4907 14.9142 25.8048C15.3333 25.7903 15.7741 25.7664 16.2366 25.7332C16.7065 25.6993 17.0911 25.6766 17.3904 25.6652C17.6897 25.6537 17.9981 25.6599 18.3155 25.6838C18.383 26.1808 18.4797 27.0007 18.6056 28.1434C18.7382 29.2781 18.8383 30.094 18.9058 30.591L19.7773 30.5145L19.8072 30.8447C19.8244 31.0354 19.8527 31.3066 19.892 31.6582C19.9388 32.009 19.9674 32.2432 19.9781 32.3606C19.998 32.5807 20.0058 32.7502 20.0015 32.8689L19.4888 32.8029C19.4497 32.7028 19.4079 32.5734 19.3635 32.4145C19.3273 32.2624 19.2859 32.0959 19.2395 31.9151C19.1931 31.7343 19.1589 31.6042 19.1367 31.5248C18.7101 31.54 18.0283 31.5555 17.0912 31.5712C16.1616 31.5862 15.4351 31.6056 14.9117 31.6293L14.7911 33.1598ZM15.9154 26.4159C15.9179 26.5266 15.9314 26.7584 15.9558 27.1112C15.9795 27.4568 15.9923 27.7219 15.994 27.9067C16.0031 28.0908 16.004 28.3495 15.9966 28.683C15.996 29.0085 15.9796 29.2836 15.9474 29.5083C15.9145 29.7256 15.8575 29.9673 15.7765 30.2333C15.7022 30.4912 15.6063 30.7178 15.4888 30.913L17.9357 30.6983L17.767 26.3421C17.662 26.3439 17.3854 26.3571 16.9372 26.3817C16.4964 26.4056 16.1558 26.417 15.9154 26.4159Z" fill="white"/>
  <path d="M19.8564 28.8989C19.8299 28.6054 19.8301 28.2763 19.8572 27.9115C19.8917 27.5461 19.9544 27.1597 20.0452 26.7523C20.1359 26.345 20.296 25.9981 20.5254 25.7117C20.7547 25.4253 21.037 25.2674 21.3722 25.238C22.0873 25.1753 22.6897 25.4441 23.1795 26.0446C23.6686 26.6377 23.9483 27.3231 24.0187 28.1009C24.0485 28.4311 24.0411 28.7646 23.9965 29.1013C23.9587 29.4301 23.8796 29.7587 23.7591 30.0873C23.6387 30.4159 23.4466 30.699 23.1828 30.9367C22.9257 31.1663 22.6123 31.3121 22.2426 31.3742C21.5493 31.3463 20.9946 31.1065 20.5783 30.6549C20.1614 30.196 19.9208 29.6107 19.8564 28.8989ZM21.491 25.8045C21.233 25.8567 21.0345 26.1108 20.8955 26.5667C20.7566 27.0227 20.6799 27.4621 20.6656 27.8849C20.6507 28.3004 20.6574 28.6659 20.686 28.9814C20.7231 29.3923 20.8843 29.7628 21.1694 30.0927C21.4613 30.4147 21.7674 30.5617 22.0877 30.5336C22.3186 30.5133 22.5192 30.4069 22.6895 30.2145C22.8598 30.022 22.9855 29.7928 23.0665 29.5269C23.1543 29.2529 23.2124 28.9815 23.2406 28.7128C23.2763 28.4434 23.2849 28.206 23.2663 28.0006C23.2119 27.3989 23.0266 26.8863 22.7105 26.4629C22.3945 26.0395 21.988 25.82 21.491 25.8045Z" fill="white"/>
  <path d="M29.0636 24.9845L29.8174 24.8518C30.2794 25.8097 30.8262 27.6218 31.4578 30.288C31.3338 30.3285 31.2085 30.3543 31.0819 30.3654C30.9702 30.3752 30.8382 30.3683 30.6859 30.3447C30.5451 29.9503 30.3541 29.2496 30.1129 28.2428C29.8791 27.2352 29.6871 26.5236 29.5369 26.1078C29.225 26.7269 28.8309 27.8487 28.3547 29.4732C28.3032 29.4851 28.2114 29.5079 28.0793 29.5417C27.9547 29.5748 27.8589 29.5944 27.7918 29.6002C27.7099 29.6074 27.6121 29.6049 27.4983 29.5927C27.352 29.3023 27.1297 28.8374 26.8316 28.1979C26.5403 27.5505 26.3086 27.0642 26.1366 26.7391C25.5848 28.6069 25.2586 29.9816 25.1582 30.8631L24.7115 30.7803C24.6983 30.2194 24.8152 29.2291 25.0622 27.8096C25.3085 26.3828 25.4517 25.4753 25.4917 25.0872C25.581 25.0794 25.6826 25.0816 25.7963 25.0938C25.9168 25.098 26.0069 25.0975 26.0665 25.0923C26.29 25.4055 26.6118 26.017 27.032 26.9268C27.4515 27.8292 27.7277 28.3929 27.8606 28.6179C28.2834 26.9833 28.6844 25.7722 29.0636 24.9845Z" fill="white"/>
  <path d="M31.8841 25.4137L31.6099 24.872C31.7863 24.6642 32.0185 24.4922 32.3065 24.356C32.5938 24.2124 32.8827 24.1279 33.1732 24.1024C34.432 23.9919 35.1584 25.008 35.3522 27.1506C35.3787 27.4441 35.3992 27.8786 35.4138 28.4542C35.4357 29.0292 35.4597 29.4597 35.4855 29.7459C35.4465 29.9786 35.3414 30.1025 35.17 30.1175C35.036 30.1293 34.9071 30.074 34.7834 29.9517C34.6597 29.8295 34.5906 29.6876 34.576 29.5262C34.5713 29.4748 34.5717 29.4378 34.5772 29.4152C34.1552 29.8959 33.6835 30.1592 33.1621 30.205C32.7673 30.2396 32.4083 30.1306 32.0852 29.8779C31.7688 29.6173 31.5923 29.2852 31.5558 28.8816C31.4941 28.1992 31.7065 27.5593 32.193 26.9619C32.687 26.3638 33.2767 26.0347 33.9619 25.9746C33.9917 25.972 34.0219 25.973 34.0523 25.9778C34.0821 25.9751 34.116 25.9759 34.1539 25.9799C34.1992 25.9834 34.2331 25.9841 34.2554 25.9821C34.1182 25.1288 33.733 24.73 33.0999 24.7856C32.7274 24.8183 32.3222 25.0276 31.8841 25.4137ZM34.5309 28.6537C34.4993 28.1388 34.4716 27.7493 34.4477 27.4851C34.4278 27.265 34.3924 26.9574 34.3417 26.5625L34.2523 26.5704C33.7241 26.6241 33.2576 26.8611 32.8526 27.2812C32.4551 27.7007 32.2809 28.1819 32.33 28.7249C32.3512 28.9597 32.4389 29.1406 32.593 29.2676C32.7546 29.3939 32.9397 29.4479 33.1483 29.4296C33.476 29.4009 33.9369 29.1422 34.5309 28.6537Z" fill="white"/>
  <path d="M24.4403 10.2144C23.1461 10.2144 22.0969 11.2682 22.0969 12.5681C22.0969 14.9219 24.8664 17.0617 26.3577 17.5594C27.8489 17.0617 30.6184 14.9219 30.6184 12.5681C30.6184 11.2682 29.5692 10.2144 28.275 10.2144C27.4825 10.2144 26.7816 10.6096 26.3577 11.2145C26.1416 10.9053 25.8545 10.653 25.5208 10.4789C25.187 10.3048 24.8164 10.2141 24.4403 10.2144Z" fill="#FFF1A8"/>
</svg>