<svg xmlns="http://www.w3.org/2000/svg" width="70" height="66" viewBox="0 0 70 66" fill="none">
  <path d="M1.4051 21.8696C1.28263 21.8696 1.18978 21.841 1.11223 21.7977C0.953205 21.7088 0.856119 21.5428 0.772306 21.3811C0.645747 21.1368 0.772307 20.7704 1.02543 20.636C1.27854 20.5139 1.65822 20.636 1.79744 20.8803L1.924 21.1246C2.0118 21.2941 1.97777 21.5223 1.86418 21.6911C1.76674 21.8358 1.4051 21.8696 1.4051 21.8696Z" fill="#F8A300"/>
  <path d="M1.1519 21.6134C0.950136 21.6134 0.828786 21.5358 0.72375 21.3806C0.666312 21.2957 0.603078 21.2119 0.562185 21.1179C0.525788 21.0343 0.502189 20.9383 0.462292 20.858C0.427554 20.7881 0.39255 20.7144 0.39255 20.6364V20.5143C0.39255 20.434 0.366191 20.3553 0.359953 20.2753C0.341863 20.0433 0.557045 19.7614 0.772227 19.6472C0.990557 19.5419 1.30305 19.7091 1.47416 19.9138C1.52549 19.9752 1.54424 20.0557 1.54424 20.1357V20.2578V20.3799C1.54424 20.6371 1.76711 20.8804 1.69672 21.1277C1.68099 21.183 1.65775 21.2367 1.62796 21.2861C1.52716 21.4533 1.34715 21.6134 1.1519 21.6134Z" fill="#F8A300"/>
  <path d="M1.35581 19.6495C1.1783 20.1485 0.25293 20.1776 0.25293 19.648C0.25293 19.5258 0.25293 19.5258 0.25293 19.4037C0.25293 19.1594 0.379489 18.793 0.759167 18.793C1.01229 18.793 1.39196 18.9151 1.39196 19.2815V19.4037C1.39504 19.4928 1.38238 19.5748 1.35581 19.6495Z" fill="#F8A300"/>
  <path d="M0.953801 19.3537C0.767069 19.509 0.482383 19.5504 0.30131 19.3886C0.197215 19.2955 0.126465 19.1664 0.126465 19.0373V18.9151C0.126465 18.6709 0.379583 18.3044 0.632702 18.3044C0.885821 18.3044 1.2655 18.5487 1.2655 18.793C1.2655 18.8733 1.24812 18.9532 1.21005 19.0239C1.14748 19.1402 1.07067 19.2565 0.953801 19.3537Z" fill="#F8A300"/>
  <path d="M0.632702 19.2817C0.379583 19.2817 0.126465 19.0374 0.126465 18.7931V18.671C0.126465 18.4267 0.379583 18.0603 0.632702 18.0603C0.885821 18.0603 1.2655 18.3046 1.2655 18.5488C1.2655 18.6298 1.25478 18.7111 1.22216 18.7852C1.09272 19.079 0.857711 19.2817 0.632702 19.2817Z" fill="#F8A300"/>
  <path d="M59.7736 44.9041C60.6722 44.9041 61.4316 45.649 61.4316 46.5038C61.4316 47.3709 60.6596 48.1036 59.7736 48.1036C59.6583 48.1036 59.5453 48.0913 59.4358 48.0681C57.9973 47.7631 58.0308 45.2233 59.4725 44.9337C59.5693 44.9143 59.6698 44.9041 59.7736 44.9041Z" fill="white"/>
  <path d="M67.6972 42.9265C68.6897 42.9265 69.4943 43.7311 69.4943 44.7237V48.5314C69.4943 49.4541 68.7464 50.202 67.8238 50.202H59.2683C58.2432 50.202 57.3573 49.8358 56.5853 49.0911C55.8133 48.3465 55.4336 47.492 55.4336 46.5032C55.4336 44.5379 57.0915 42.9265 59.1418 42.9265H67.6972ZM61.4452 46.5032C61.4452 45.6365 60.6732 44.9041 59.7872 44.9041C58.8887 44.9041 58.1293 45.6487 58.1293 46.5032C58.1293 47.3699 58.9013 48.1024 59.7872 48.1024C60.6732 48.1024 61.4452 47.3699 61.4452 46.5032Z" fill="white"/>
  <path d="M45.979 4.8645C47.3638 6.12747 47.3945 8.29739 46.0459 9.599L30.5485 24.5571C30.2094 24.8845 29.7564 25.0674 29.2851 25.0674C27.6486 25.0674 26.8442 23.0755 28.0217 21.9391L45.7196 4.85836C45.7927 4.78784 45.9093 4.7906 45.979 4.8645Z" fill="white"/>
  <path d="M43.5619 2.52054C44.8202 3.73426 44.8199 5.74993 43.5612 6.96327L25.4227 24.4482C25.0107 24.8453 24.4607 25.0673 23.8884 25.0673C23.3159 25.0673 22.7657 24.8452 22.3537 24.4477L21.5912 23.7123C21.5052 23.6293 21.4776 23.6027 21.4688 23.5558C21.4584 23.5006 21.4418 23.4461 21.4014 23.4071C21.3609 23.3681 21.3401 23.313 21.3205 23.2604C21.2858 23.1669 21.2115 23.0733 21.2115 22.9798C21.2115 22.9798 21.2115 22.9798 21.2115 22.9798C21.2115 22.9798 21.2022 22.8178 21.1899 22.7376C21.1116 22.2247 21.2114 21.7099 21.4894 21.2799C21.5435 21.1963 21.6461 21.0836 21.7178 21.0145L41.0054 2.41068C41.6382 1.7759 42.7899 1.7759 43.5619 2.52054Z" fill="white"/>
  <path d="M21.5786 23.7126C21.5786 23.7126 21.5786 23.7126 21.5786 23.7126C22.0888 24.2047 21.7404 25.0676 21.0316 25.0676H19.0306C18.619 25.0676 18.2234 24.9086 17.9263 24.6238L16.339 23.1022C15.567 22.3576 15.567 21.2589 16.339 20.5143L21.3255 15.7047L25.8057 11.3955L35.6393 1.91053C36.4113 1.16589 37.5504 1.16589 38.3224 1.91053C39.2271 2.78321 39.2244 4.23328 38.3163 5.10252L21.7056 21.0031C21.6311 21.0744 21.5262 21.1752 21.452 21.2467C20.9829 21.6992 20.8398 22.3718 21.0227 22.8565C21.0511 22.9316 21.0723 23.0098 21.0723 23.09C21.0723 23.1809 21.1424 23.2717 21.1783 23.3625C21.2009 23.4199 21.224 23.4804 21.2684 23.5233C21.3053 23.5589 21.3543 23.5789 21.4021 23.5976C21.4985 23.6354 21.5786 23.7126 21.5786 23.7126Z" fill="white"/>
  <path d="M57.0911 15.7042C57.4707 16.4489 57.3442 17.3034 56.7114 17.9259L51.2529 23.1909C50.005 24.3945 48.3388 25.0671 46.605 25.0671C40.5819 25.0671 37.622 17.7347 41.9571 13.5533L44.1947 11.3951C46.5464 9.1267 50.2718 9.12669 52.6235 11.3951L56.0675 14.7169C56.4102 15.0475 56.8719 15.2815 57.0911 15.7042Z" fill="white"/>
  <path d="M62.0988 11.3953C63.2892 11.3953 64.2542 12.3603 64.2542 13.5507C64.2542 14.7411 63.2892 15.7061 62.0988 15.7061H57.3568C57.1944 15.7061 57.039 15.6416 56.9461 15.5084C56.8721 15.4023 56.798 15.289 56.724 15.2176C55.2826 13.8312 56.2639 11.3953 58.2638 11.3953H62.0988Z" fill="#FFF1A8"/>
  <path d="M59.5728 15.5823C62.1583 15.5823 64.2542 17.6782 64.2542 20.2637C64.2542 22.8492 62.1583 24.9452 59.5728 24.9452H52.7626C51.5584 24.9452 50.9666 23.4792 51.8334 22.6432L56.8505 17.804C57.4513 17.2245 57.6072 16.4139 57.2856 15.6961C57.2621 15.6437 57.2993 15.5823 57.3567 15.5823H59.5728Z" fill="#FFF1A8"/>
  <path d="M21.3253 15.5826L16.3389 20.3922C15.5669 21.1369 15.5669 22.2355 16.3389 22.9801C17.0835 23.6983 16.5751 24.9577 15.5406 24.9577C12.9128 24.9577 10.2883 24.9577 7.6569 24.9577C6.25209 24.9577 4.84728 24.4694 3.69559 23.7248C3.06279 23.3586 2.5439 22.8581 2.03766 22.2477C1.80137 22.0198 1.67537 21.7919 1.55671 21.4548C1.53957 21.4061 1.53443 21.3534 1.51688 21.3048C1.4992 21.2559 1.46866 21.2115 1.44393 21.1807C1.42043 21.1514 1.40959 21.1475 1.40151 21.1108C1.38507 21.0361 1.27936 20.9337 1.20917 20.9034C1.20855 20.9032 1.20791 20.9029 1.20727 20.9026C1.17361 20.8888 1.13629 20.8792 1.11325 20.8511C1.04003 20.7616 1.01812 20.6648 0.951481 20.5145C0.918971 20.4412 0.898628 20.3626 0.898628 20.2824V20.1603V20.0382C0.898628 19.9161 0.772068 19.672 0.772068 19.5499V19.4279C0.772068 19.3337 0.772067 19.167 0.714061 19.0397C0.681727 18.9687 0.645508 18.8955 0.645508 18.8175C0.645508 18.8175 0.645508 18.8175 0.645508 18.6954V18.5733V18.4513C0.645508 18.3292 0.645508 18.3292 0.645508 18.2071C0.645508 14.5083 3.83481 11.3101 7.66955 11.3101H19.5791C21.8115 11.3101 22.9187 14.0189 21.3253 15.5826Z" fill="#FFF1A8"/>
  <path d="M64.8645 59.687H9.72953C8.16542 59.687 6.89746 60.955 6.89746 62.5191C6.89746 64.0832 8.16542 65.3512 9.72953 65.3512H64.8645C66.4286 65.3512 67.6966 64.0832 67.6966 62.5191C67.6966 60.955 66.4286 59.687 64.8645 59.687Z" fill="#FFF1A8"/>
  <path d="M6.89764 59.6871V65.0981C6.89764 65.2379 6.78431 65.3512 6.64452 65.3512C3.32866 65.3512 0.519043 62.6413 0.519043 59.443V18.1704C0.519043 18.2925 0.519043 18.2925 0.519043 18.4146V18.5366V18.6587V18.7808V18.9028C0.519043 18.997 0.519043 19.1636 0.577048 19.291C0.609382 19.362 0.645603 19.4352 0.645603 19.5132C0.645603 19.6353 0.772163 19.8794 0.772163 20.0015V20.1236V20.2456V20.3677C0.772163 20.4768 0.873239 20.6834 0.985062 20.8132C1.00958 20.8417 1.02295 20.8788 1.03898 20.9127C1.04424 20.9239 1.05152 20.9352 1.0616 20.9453C1.10019 20.9837 1.1426 20.9908 1.16766 21.0391C1.19272 21.0874 1.27882 21.1456 1.30061 21.1955C1.32221 21.245 1.35507 21.2883 1.37813 21.3152C1.3952 21.3352 1.41099 21.3561 1.42347 21.3792C1.49701 21.5153 1.60323 21.6831 1.70366 21.8473C1.84888 22.0847 1.99856 22.3214 2.1849 22.5281C2.60689 22.9963 3.04962 23.3874 3.56912 23.6881C4.72081 24.4327 6.12562 24.921 7.53043 24.921C11.1121 24.921 14.681 24.921 18.2627 24.921H22.8568H24.6413H29.8808H49.1685C50.3202 24.921 51.4718 24.921 52.4843 24.921H63.9759C65.954 24.921 67.5575 26.5245 67.5575 28.5026V34.2369C67.5575 38.9619 63.7272 42.7923 59.0021 42.7923C56.9645 42.7923 55.2939 44.3915 55.2939 46.3691C55.2939 47.3578 55.6736 48.2123 56.4456 48.957C57.2176 49.7016 58.1036 50.0678 59.1287 50.0678H62.02C65.1482 50.0678 67.6841 52.6038 67.6841 55.732C67.6841 57.9096 65.9188 59.6749 63.7412 59.6749H6.90984C6.9031 59.6749 6.89764 59.6804 6.89764 59.6871Z" fill="#FFF1A8"/>
  <path d="M52.6234 25.5556H49.3075C49.0544 25.5556 48.8013 25.3114 48.8013 25.0672C48.8013 24.823 49.0544 24.5789 49.3075 24.5789H52.6234C52.8765 24.5789 53.1296 24.823 53.1296 25.0672C53.1423 25.3114 53.003 25.5556 52.6234 25.5556Z" fill="#F8A300"/>
  <path d="M18.389 25.5572H7.65672C6.12535 25.5572 4.59398 25.0688 3.31573 24.3238C2.68293 23.9575 2.03748 23.3347 1.53124 22.7241C1.49055 22.6848 1.45312 22.6424 1.41792 22.5978C1.04578 22.1261 0.585196 21.3125 1.15156 21.1121C1.40468 20.99 1.78436 20.99 1.92358 21.3563C2.19953 21.8889 2.59901 22.3573 3.03734 22.7667C3.3092 23.0206 3.61849 23.2584 3.96118 23.4568C4.98631 24.2017 6.26456 24.5681 7.66937 24.5681H18.4016C18.6547 24.5681 18.9078 24.8123 18.9078 25.0565C18.9078 25.313 18.6421 25.5572 18.389 25.5572Z" fill="#F8A300"/>
  <path d="M67.6966 65.8515H6.77093C3.06274 65.8515 0 62.8974 0 59.3207V18.1702C0 17.926 0.253118 17.6819 0.506237 17.6819C0.759356 17.6819 1.13903 17.926 1.13903 18.1702C1.13903 18.2922 1.13903 18.2922 1.13903 18.4143V59.4427C1.13903 62.3969 3.69553 64.8627 6.75827 64.8627H52.4075C60.5718 64.8627 67.1904 58.2442 67.1904 50.0798C67.1904 49.8357 67.4435 49.5915 67.6966 49.5915C67.9497 49.5915 68.2029 49.8357 68.2029 50.0798V64.2548C68.2029 64.8991 68.341 65.8515 67.6966 65.8515Z" fill="#F8A300"/>
  <path d="M67.6967 43.4268C67.4436 43.4268 67.1905 43.1826 67.1905 42.9385V28.4916C67.1905 26.87 65.8759 25.5554 64.2543 25.5554C64.0012 25.5554 63.748 25.3113 63.748 25.0671C63.748 24.823 64.0012 24.5789 64.2543 24.5789H67.8359C68.089 24.5789 68.3421 24.823 68.3421 25.0671V42.9385C68.3421 43.1826 68.0764 43.4268 67.6967 43.4268Z" fill="#F8A300"/>
  <path d="M64.2542 25.5554H52.7626C52.5095 25.5554 52.2563 25.3112 52.2563 25.0671C52.2563 24.8229 52.5095 24.5788 52.7626 24.5788H57.4002C60.906 24.5788 63.7479 21.7368 63.7479 18.2311C63.7479 14.7253 60.906 11.8833 57.4002 11.8833H52.8891C52.636 11.8833 52.3829 11.6392 52.3829 11.395C52.3829 11.1509 52.636 10.9067 52.8891 10.9067H64.3807C64.6339 10.9067 64.887 11.1509 64.887 11.395V24.2318C64.887 24.7806 64.803 25.5554 64.2542 25.5554Z" fill="#F8A300"/>
  <path d="M3.69606 24.457C3.5695 24.457 3.44294 24.457 3.31638 24.3349C2.68359 23.8466 2.03813 23.3461 1.5319 22.7358C1.37034 22.5799 1.26034 22.3744 1.13609 22.1794C1.00137 21.968 0.772541 21.7535 0.77254 21.5028C0.77254 21.5028 0.772538 21.4406 0.726531 21.405C0.689111 21.3761 0.645981 21.3424 0.645981 21.2951C0.645981 21.2718 0.636059 21.2499 0.621521 21.2318C0.531072 21.1188 0.51398 20.9351 0.430697 20.8153C0.409262 20.7844 0.395198 20.7476 0.379162 20.7136C0.376918 20.7089 0.374305 20.7041 0.371265 20.6994C0.334693 20.6428 0.266303 20.5937 0.266303 20.5263V20.4042C0.266303 20.2821 0.139743 20.038 0.139743 19.9159V19.7938C0.139743 19.6997 0.139743 19.533 0.0817365 19.4057C0.0494024 19.3347 0.0131836 19.2615 0.0131836 19.1835V19.0614V18.9393V18.8172C0.0131836 18.6952 0.0131836 18.6952 0.0131836 18.5731C0.0131836 14.5081 3.46825 11.1755 7.68268 11.1755H25.6921C25.9452 11.1755 26.1983 11.4197 26.1983 11.6638C26.1983 11.908 25.9452 12.1521 25.6921 12.1521H7.65737C4.07574 12.1521 1.13956 14.9842 1.13956 18.4388C1.13956 18.5609 1.13956 18.5609 1.13956 18.683V18.805V18.9271V19.0492V19.1713C1.13956 19.2734 1.13956 19.3756 1.21372 19.5492C1.24522 19.623 1.26612 19.7014 1.26612 19.7816C1.26612 19.9037 1.39268 20.0258 1.39268 20.2699V20.392V20.514V20.6361C1.39268 20.7582 1.51924 20.8803 1.51924 21.0023C1.51924 21.0023 1.51924 21.0023 1.51924 21.0023C1.51924 21.0023 1.51924 21.0023 1.51924 21.1244V21.2465C1.51924 21.4328 1.68775 21.5767 1.79863 21.7264C1.85249 21.7991 1.91033 21.8722 1.96556 21.9459C2.10295 22.1294 2.2198 22.3294 2.3764 22.4968C2.69451 22.8368 3.06235 23.1246 3.36052 23.4021C3.40565 23.4441 3.4351 23.4566 3.49114 23.4823C3.5499 23.5092 3.58312 23.6156 3.62964 23.6605L3.68341 23.7123C3.79022 23.8154 3.85196 23.9184 3.87814 24.0223C3.91407 24.1651 3.84323 24.457 3.69606 24.457Z" fill="#F8A300"/>
  <path d="M69.4937 50.6901H59.2677C58.1161 50.6901 57.0909 50.2018 56.205 49.4571C55.433 48.7125 54.9268 47.6138 54.9268 46.503C54.9268 44.1592 56.8378 42.3159 59.2677 42.3159H69.4937C69.7469 42.3159 70 42.5601 70 42.8042V50.0797C70 50.4459 69.7469 50.6901 69.4937 50.6901ZM59.2677 43.4268C57.4833 43.4268 56.0785 44.7818 56.0785 46.503C56.0785 47.3697 56.4581 48.1021 56.977 48.7247C57.6098 49.3351 58.3818 49.5914 59.2804 49.5914H65.7786C67.4809 49.5914 68.8609 48.2114 68.8609 46.5091C68.8609 44.8068 67.4809 43.4268 65.7786 43.4268H59.2677Z" fill="#F8A300"/>
  <path d="M59.774 48.6045C58.4957 48.6045 57.5972 47.6153 57.5972 46.504C57.5972 45.3927 58.6223 44.4036 59.774 44.4036C61.0522 44.4036 61.9508 45.3927 61.9508 46.504C61.9508 47.6153 61.0522 48.6045 59.774 48.6045ZM59.774 45.5271C59.1412 45.5271 58.7489 46.0155 58.7489 46.5162C58.7489 47.0047 59.2551 47.5054 59.774 47.5054C60.4068 47.5054 60.7991 47.0169 60.7991 46.5162C60.7991 46.0155 60.4194 45.5271 59.774 45.5271Z" fill="#F8A300"/>
  <path d="M6.89735 65.8513C6.64423 65.8513 6.39111 65.6072 6.39111 65.3631V29.2542C6.39111 29.01 6.64423 28.7659 6.89735 28.7659C7.15047 28.7659 7.40359 29.01 7.40359 29.2542V64.4918C7.40359 65.0569 7.46248 65.8513 6.89735 65.8513Z" fill="#F8A300"/>
  <path d="M67.6965 60.3097H6.89735C6.64423 60.3097 6.39111 60.0655 6.39111 59.8214C6.39111 59.5772 6.64423 59.333 6.89735 59.333H67.6965C67.9496 59.333 68.2027 59.5772 68.2027 59.8214C68.2154 60.0655 68.0762 60.3097 67.6965 60.3097Z" fill="#F8A300"/>
  <path d="M64.2538 16.1928H57.3563C57.1032 16.1928 56.8501 15.9486 56.8501 15.7044C56.8501 15.4602 57.1032 15.2161 57.3563 15.2161H64.2538C64.5069 15.2161 64.7601 15.4602 64.7601 15.7044C64.7601 15.9486 64.5069 16.1928 64.2538 16.1928Z" fill="#F8A300"/>
  <path d="M21.3253 16.1928H7.27723C7.02411 16.1928 6.771 15.9486 6.771 15.7044C6.771 15.4602 7.02411 15.2161 7.27723 15.2161H21.3253C21.5784 15.2161 21.8316 15.4602 21.8316 15.7044C21.8442 15.9486 21.5784 16.1928 21.3253 16.1928Z" fill="#F8A300"/>
  <path d="M21.4517 24.0806C21.3638 24.0806 21.215 24.0217 21.0898 23.9447C20.9912 23.8842 20.9342 23.7747 20.8571 23.6884C20.8116 23.6375 20.8002 23.5607 20.7782 23.4961C20.6981 23.26 20.7392 22.9637 21.072 22.8458C21.315 22.7285 21.6746 22.7238 21.8262 23.0481C21.839 23.0755 21.8409 23.0771 21.8456 23.107C21.8599 23.199 22.0006 23.2638 22.0256 23.3536C22.0742 23.5278 22.0637 23.7253 21.9626 23.8578C21.8996 23.9404 21.8103 24.0049 21.7141 24.0444C21.626 24.0806 21.536 24.0806 21.4517 24.0806Z" fill="#F8A300"/>
  <path d="M21.1991 23.5968C21.1991 23.5934 21.1963 23.5907 21.193 23.5907C20.9419 23.5887 20.6928 23.4666 20.6928 23.2243C20.6928 23.144 20.6664 23.0653 20.6602 22.9853C20.6527 22.888 20.687 22.7844 20.7455 22.6974C20.8928 22.478 21.24 22.3989 21.4699 22.5291C21.7168 22.6689 21.8231 23.0176 21.7038 23.275C21.642 23.4082 21.5218 23.5285 21.3432 23.5965C21.3317 23.6008 21.3194 23.6029 21.3071 23.6029H21.2052C21.2018 23.6029 21.1991 23.6002 21.1991 23.5968Z" fill="#F8A300"/>
  <path d="M21.3072 23.4789C21.2696 23.4756 21.108 23.4651 21.0708 23.4588C20.8765 23.4259 20.7091 23.3167 20.6937 23.1312C20.6922 23.1126 20.6898 23.0939 20.6848 23.076C20.4447 22.2182 20.6978 21.3747 21.1988 20.7584C21.3511 20.6114 21.5492 20.5529 21.7132 20.5828C21.9234 20.6211 22.1002 20.8539 22.1479 21.0622C22.2282 21.4127 21.8388 21.6504 21.7346 21.9945C21.6765 22.1864 21.6537 22.3835 21.6772 22.5621C21.6928 22.6806 21.7593 22.7918 21.7502 22.911C21.7337 23.1266 21.5422 23.3686 21.3478 23.4763C21.3414 23.4799 21.3145 23.4796 21.3072 23.4789Z" fill="#F8A300"/>
  <path d="M21.5788 21.6128C21.4522 21.6128 21.3257 21.6128 21.1991 21.4908C20.7841 21.0905 21.4097 20.5431 21.8248 20.143L40.4868 2.15455C40.993 1.66626 41.6385 1.40991 42.2712 1.40991C42.904 1.40991 43.5495 1.65406 44.0557 2.15455L46.3591 4.37626C46.4747 4.48772 46.5375 4.62463 46.5475 4.75329C46.5702 5.04326 46.2256 5.30152 45.9347 5.30399C45.6381 5.30652 45.4787 5.01633 45.2651 4.81034L43.2837 2.89919C43.0306 2.65505 42.6509 2.53297 42.3852 2.53297C42.0055 2.53297 41.7524 2.65505 41.4866 2.89919L22.0977 21.4908C21.9711 21.6128 21.8446 21.6128 21.5788 21.6128Z" fill="#F8A300"/>
  <path d="M49.3071 25.5557H30.0194C29.7663 25.5557 29.5132 25.3116 29.5132 25.0674C29.5132 24.8233 29.7663 24.5791 30.0194 24.5791H38.9433C45.4295 24.5791 51.6627 22.0629 56.3311 17.56C56.604 17.2968 56.7461 16.9011 56.7105 16.5181C56.6828 16.2198 56.5467 15.9247 56.3311 15.7167L45.5989 5.365C45.4833 5.25354 45.4205 5.11664 45.4105 4.98798C45.3878 4.69801 45.7324 4.43975 46.0233 4.43727C46.3199 4.43475 46.4793 4.72494 46.6929 4.93092L57.1031 14.9721C57.4518 15.3084 57.6301 15.8005 57.7309 16.2743C57.898 17.0597 57.6887 17.8497 57.1031 18.4145L49.6994 25.4336C49.5602 25.5557 49.4336 25.5557 49.3071 25.5557Z" fill="#F8A300"/>
  <path d="M24.7805 25.5556H22.996C22.7429 25.5556 22.4897 25.3114 22.4897 25.0672C22.4897 24.823 22.7429 24.5789 22.996 24.5789H24.7805C25.0336 24.5789 25.2867 24.823 25.2867 25.0672C25.2867 25.3114 25.0336 25.5556 24.7805 25.5556Z" fill="#F8A300"/>
  <path d="M30.0199 25.5555H24.7803C24.5272 25.5555 24.4007 25.4334 24.2741 25.1893C24.1475 24.9451 24.2741 24.701 24.4007 24.5789L45.4728 4.37598C45.8957 3.96812 46.4595 4.58305 46.8823 4.99091L48.9279 6.96391C49.3429 7.36422 48.7165 7.91071 48.2999 8.30931L30.7114 25.1351C30.5122 25.3256 30.2955 25.5555 30.0199 25.5555ZM28.481 22.2438C27.6475 23.0473 28.2162 24.4568 29.3739 24.4568C29.7071 24.4568 30.0274 24.3276 30.2672 24.0962L46.7855 8.16362C47.321 7.64709 47.3063 6.78482 46.7534 6.28689C46.253 5.83618 45.4893 5.84911 45.0044 6.31649L28.481 22.2438Z" fill="#F8A300"/>
  <path d="M22.9955 25.5555H18.4014C18.2749 25.5555 18.1483 25.5555 18.0217 25.4334L15.9715 23.4681C14.9464 22.4793 14.9464 21.0022 15.9715 20.0135L25.2989 11.0167L35.1326 1.53175C35.6388 1.04346 36.2843 0.787109 36.9171 0.787109C37.5499 0.787109 38.1953 1.03125 38.7015 1.53175L40.3595 3.13089C40.7745 3.53115 40.1489 4.07862 39.734 4.47888L22.5087 21.0934C22.2349 21.3575 21.9486 21.635 21.8438 22.0007C21.7906 22.1862 21.7776 22.3841 21.8175 22.6042C21.832 22.6839 21.8438 22.7645 21.8438 22.8455C21.8438 22.9676 21.9704 22.9676 21.9704 23.0897C21.9704 23.0897 21.9704 23.0897 21.9704 23.0897C21.9704 23.0897 21.9704 23.0982 21.9727 23.1108C21.9934 23.2217 22.1423 23.2555 22.2235 23.3338L23.6283 24.6888C23.9417 24.991 23.5655 25.4735 23.1358 25.5437C23.0891 25.5513 23.0423 25.5555 22.9955 25.5555ZM18.3455 24.1691C18.5356 24.3536 18.7901 24.4569 19.055 24.4569H21.0506C21.2421 24.4569 21.3363 24.2237 21.1984 24.0907C21.0718 23.9686 21.0718 23.9686 20.9453 23.8465C20.9453 23.8465 20.9453 23.8465 20.9453 23.8465C20.9453 23.8465 20.9284 23.8302 20.907 23.8037C20.8173 23.6923 20.758 23.5462 20.6921 23.4193C20.6724 23.3812 20.6527 23.3432 20.6253 23.3051C20.5912 23.2577 20.5656 23.2032 20.5656 23.1448C20.5656 23.1244 20.5626 23.1041 20.5571 23.0844C20.3275 22.2611 20.5525 21.451 21.0148 20.8428C21.0509 20.7953 21.06 20.7694 21.0848 20.7151C21.1127 20.6539 21.2254 20.6221 21.2739 20.5754L37.9742 4.46723C38.579 3.88385 38.579 2.91505 37.9742 2.33167C37.8608 2.22227 37.7321 2.12835 37.5871 2.06659C37.3971 1.98562 37.1868 1.92238 36.9044 1.92238C36.5247 1.92238 36.2716 2.04445 36.0058 2.2886L26.0583 11.7614L16.7308 20.7581C16.2246 21.2464 16.2246 22.1131 16.7308 22.6014L18.3455 24.1691Z" fill="#F8A300"/>
  <path d="M67.6965 56.3668H16.4779C16.2248 56.3668 15.9717 56.1227 15.9717 55.8785C15.9717 55.6343 16.2248 55.3901 16.4779 55.3901H67.6965C67.9496 55.3901 68.2027 55.6343 68.2027 55.8785C68.2154 56.1105 68.0762 56.3668 67.6965 56.3668Z" fill="#F8A300"/>
</svg>